<?xml version="1.0" encoding="UTF-8" standalone="no"?>
<!-- Created with Inkscape (http://www.inkscape.org/) -->

<svg
   xmlns:dc="http://purl.org/dc/elements/1.1/"
   xmlns:cc="http://creativecommons.org/ns#"
   xmlns:rdf="http://www.w3.org/1999/02/22-rdf-syntax-ns#"
   xmlns:svg="http://www.w3.org/2000/svg"
   xmlns="http://www.w3.org/2000/svg"
   xmlns:sodipodi="http://sodipodi.sourceforge.net/DTD/sodipodi-0.dtd"
   xmlns:inkscape="http://www.inkscape.org/namespaces/inkscape"
   width="512"
   height="512"
   viewBox="0 0 512 512"
   version="1.1"
   id="svg1499"
   sodipodi:docname="U+53E4.svg"
   inkscape:version="0.92.4 (5da689c313, 2019-01-14)">
  <defs
     id="defs1493">
    <inkscape:path-effect
       effect="bspline"
       id="path-effect2618"
       is_visible="true"
       weight="33.333333"
       steps="2"
       helper_size="0"
       apply_no_weight="true"
       apply_with_weight="true"
       only_selected="false" />
    <inkscape:path-effect
       effect="bspline"
       id="path-effect2614"
       is_visible="true"
       weight="33.333333"
       steps="2"
       helper_size="0"
       apply_no_weight="true"
       apply_with_weight="true"
       only_selected="false" />
    <inkscape:path-effect
       effect="bspline"
       id="path-effect2610"
       is_visible="true"
       weight="33.333333"
       steps="2"
       helper_size="0"
       apply_no_weight="true"
       apply_with_weight="true"
       only_selected="false" />
  </defs>
  <sodipodi:namedview
     id="base"
     pagecolor="#ffffff"
     bordercolor="#666666"
     borderopacity="1.0"
     inkscape:pageopacity="0.0"
     inkscape:pageshadow="2"
     inkscape:zoom="1.2346236"
     inkscape:cx="199.65902"
     inkscape:cy="209.27345"
     inkscape:document-units="px"
     inkscape:current-layer="layer1"
     showgrid="false"
     units="px"
     inkscape:window-width="1920"
     inkscape:window-height="1001"
     inkscape:window-x="-9"
     inkscape:window-y="-9"
     inkscape:window-maximized="1" />
  <metadata
     id="metadata1496">
    <rdf:RDF>
      <cc:Work
         rdf:about="">
        <dc:format>image/svg+xml</dc:format>
        <dc:type
           rdf:resource="http://purl.org/dc/dcmitype/StillImage" />
        <dc:title></dc:title>
      </cc:Work>
    </rdf:RDF>
  </metadata>
  <g
     inkscape:label="圖層 1"
     inkscape:groupmode="layer"
     id="layer1"
     transform="translate(0,-161.53331)">
    <path
       style="fill:#000000;stroke:#000000;stroke-width:1px;stroke-linecap:butt;stroke-linejoin:miter;stroke-opacity:1;fill-opacity:1"
       d="M 24.298903,372.22691 C 29.699659,373.03588 35.099415,373.84584 40.498171,374.6568 51.027075,371.95634 292.3968,321.19922 292.3968,321.19922 L 390.40237,316.33944 C 390.40237,316.33944 395.26215,308.2398 413.89131,316.33944 432.52047,324.43907 439.00018,334.15863 439.00018,334.15863 L 437.38025,346.30808 423.61087,345.49812 381.49278,340.63834 289.96691,335.77856 149.84323,361.69739 58.317367,402.19556 18.629159,374.6568 Z"
       id="path2606"
       inkscape:connector-curvature="0" />
    <path
       style="fill:#000000;stroke:#000000;stroke-width:1px;stroke-linecap:butt;stroke-linejoin:miter;stroke-opacity:1;fill-opacity:1"
       d="M 186.0222,228.18812 C 184.67166,228.86339 209.78053,268.5516 209.78053,268.5516 209.78053,268.5516 217.0702,301.7601 217.0702,301.7601 217.0702,301.7601 205.73071,388.42618 205.73071,388.42618 205.73071,388.42618 179.81188,433.78413 179.81188,433.78413 184.13169,436.754 188.45171,439.72401 194.79657,436.34879 201.14143,432.97358 209.51146,423.25354 217.20551,409.62005 224.89956,395.98656 231.92001,378.43542 237.85943,355.62246 243.79885,332.80949 248.65897,304.72882 247.98896,286.60393 247.31895,268.47903 241.63898,260.99179 231.51475,252.35242 221.39052,243.71305 207.08089,234.2633 198.57673,230.21312 190.07257,226.16293 187.37274,227.51285 186.0222,228.18812 Z"
       id="path2608"
       inkscape:connector-curvature="0"
       inkscape:path-effect="#path-effect2610"
       inkscape:original-d="M 184.67166,228.86339 209.78053,268.5516 217.0702,301.7601 205.73071,388.42618 179.81188,433.78413 C 179.81188,433.78413 188.45249,439.72287 192.7713,442.69373 201.14151,432.97365 209.51154,423.25361 217.88016,413.53505 224.90007,395.98677 231.92053,378.43563 238.93921,360.88743 243.79966,332.80963 248.65977,304.72896 253.51855,276.65123 247.58006,268.28095 241.64009,260.99094 235.69936,253.16229 221.39128,243.7119 207.08165,234.26214 192.7713,224.81357 190.07237,226.16253 187.37254,227.51245 184.67166,228.86339 Z" />
    <path
       style="fill:#000000;stroke:#000000;stroke-width:1px;stroke-linecap:butt;stroke-linejoin:miter;stroke-opacity:1;fill-opacity:1"
       d="M 135.39983,427.16857 C 131.75473,431.62305 127.43492,439.1827 126.08472,449.84846 124.73452,460.51422 126.35419,474.28144 135.1631,494.99516 143.97202,515.70889 159.8326,543.12888 169.28237,557.97845 178.73214,572.82801 181.70198,574.98789 183.59261,570.79247 185.48325,566.59705 186.29167,556.08754 182.37714,538.13488 178.46262,520.18223 169.82213,494.80079 162.80251,473.87692 155.78289,452.95304 150.38301,436.4834 146.19895,428.92375 142.0149,421.3641 139.04493,422.71409 135.39983,427.16857 Z"
       id="path2612"
       inkscape:connector-curvature="0"
       inkscape:path-effect="#path-effect2614"
       inkscape:original-d="M 136.07386,424.06457 C 131.75505,431.62323 127.43525,439.18289 123.11444,446.74355 124.73562,460.51409 126.3553,474.28131 127.97422,488.05168 144.17551,515.59118 159.83378,543.1282 175.76206,570.66795 178.73296,572.82688 181.7028,574.98676 184.67166,577.14766 185.75255,566.61777 186.29259,556.08761 187.10155,545.55909 178.46382,520.18182 169.82333,494.80038 161.18272,469.42253 155.78409,452.95265 150.38421,436.48301 144.98345,420.01476 142.0147,421.36365 139.04472,422.71363 136.07386,424.06457 Z" />
    <path
       style="fill:#000000;stroke:#000000;stroke-width:1px;stroke-linecap:butt;stroke-linejoin:miter;stroke-opacity:1;fill-opacity:1"
       d="M 189.12705,454.70757 C 213.83151,449.71316 263.23927,438.91365 291.58779,433.78404 319.9363,428.65442 327.22615,429.19441 332.7601,433.91836 338.29404,438.6423 342.07435,447.55302 338.56476,458.48759 335.05518,469.42216 324.25626,482.38086 314.94136,493.58575 305.62645,504.79064 297.79746,514.23942 297.25745,521.93499 296.71745,529.63055 303.46637,535.5696 305.89647,540.9687 308.32657,546.36779 306.43663,551.22762 299.82061,551.90286 293.20458,552.57809 281.8679,549.06912 262.29322,547.98909 242.71855,546.90905 214.91135,548.25892 199.53671,549.08089 184.16206,549.90286 181.70289,550.14877 182.10843,547.71733 182.51396,545.28588 186.02238,540.15818 200.87094,535.99052 215.71949,531.82286 242.45016,528.54972 257.02941,525.71449 271.60867,522.87927 274.30866,520.44928 278.89695,512.21725 283.48524,503.98522 289.96746,489.94039 294.1521,479.81613 298.33673,469.69186 300.22681,463.4816 298.60728,458.48785 296.98775,453.4941 291.85699,449.71354 279.19335,450.74686 266.52972,451.78018 245.6901,457.8127 228.41045,462.13265 211.1308,466.4526 197.09225,469.15232 186.96728,469.96242 176.84231,470.77252 170.6331,469.69265 167.52784,467.39696 164.42258,465.10127 164.42258,461.59188 164.42258,460.24182 164.42258,458.89177 164.42258,459.70197 189.12705,454.70757 Z"
       id="path2616"
       inkscape:connector-curvature="0"
       inkscape:path-effect="#path-effect2618"
       inkscape:original-d="M 164.42258,460.51293 C 213.83135,449.71242 263.23911,438.9129 312.64588,428.11439 319.93638,428.65335 327.22623,429.19334 334.5149,429.73432 338.29525,438.64179 342.07556,447.55251 345.85438,456.46311 335.05528,469.42224 324.25636,482.38094 313.45585,495.34136 305.62655,504.79072 297.79755,514.2395 289.96691,523.69008 296.71838,529.62949 303.4673,535.56854 310.21599,541.50927 308.3271,546.368 306.43716,551.22783 304.54625,556.08861 293.20495,552.5769 281.86827,549.06793 270.52779,545.55909 242.7185,546.9081 214.9113,548.25797 187.10155,549.60891 184.13257,549.60791 181.7028,550.14788 179.00192,550.41887 182.51418,545.28603 186.0226,540.15833 189.53144,535.02956 215.7154,531.78943 242.45005,528.54886 268.90786,525.31 271.60862,522.87921 274.30861,520.44922 277.00749,518.02033 283.48568,503.98542 289.96791,489.9406 296.44662,475.90223 298.33737,469.69205 300.22745,463.48179 302.11636,457.27307 296.98858,453.49297 291.85782,449.71241 286.72705,445.93359 266.47829,451.60252 245.68991,457.81205 225.16983,463.75278 211.13065,466.45182 197.0921,469.15154 183.05174,471.85242 176.84251,470.77138 170.6333,469.69151 164.42258,468.61256 164.42358,465.10127 164.42358,461.59188 164.42258,458.08304 164.42358,458.89177 164.42358,459.70197 164.42258,460.51293 Z" />
  </g>
</svg>
