<?xml version="1.0" encoding="UTF-8" standalone="no"?>
<!-- Created with Inkscape (http://www.inkscape.org/) -->

<svg
   xmlns:dc="http://purl.org/dc/elements/1.1/"
   xmlns:cc="http://creativecommons.org/ns#"
   xmlns:rdf="http://www.w3.org/1999/02/22-rdf-syntax-ns#"
   xmlns:svg="http://www.w3.org/2000/svg"
   xmlns="http://www.w3.org/2000/svg"
   xmlns:sodipodi="http://sodipodi.sourceforge.net/DTD/sodipodi-0.dtd"
   xmlns:inkscape="http://www.inkscape.org/namespaces/inkscape"
   width="513"
   height="513"
   viewBox="0 0 513 513"
   version="1.1"
   id="svg2626"
   inkscape:version="0.92.4 (5da689c313, 2019-01-14)"
   sodipodi:docname="U+594F.svg">
  <defs
     id="defs2620">
    <inkscape:path-effect
       effect="bspline"
       id="path-effect3214"
       is_visible="true"
       weight="33.333333"
       steps="2"
       helper_size="0"
       apply_no_weight="true"
       apply_with_weight="true"
       only_selected="false" />
    <inkscape:path-effect
       effect="bspline"
       id="path-effect3210"
       is_visible="true"
       weight="33.333333"
       steps="2"
       helper_size="0"
       apply_no_weight="true"
       apply_with_weight="true"
       only_selected="false" />
    <inkscape:path-effect
       effect="bspline"
       id="path-effect3206"
       is_visible="true"
       weight="33.333333"
       steps="2"
       helper_size="0"
       apply_no_weight="true"
       apply_with_weight="true"
       only_selected="false" />
    <inkscape:path-effect
       effect="bspline"
       id="path-effect3202"
       is_visible="true"
       weight="33.333333"
       steps="2"
       helper_size="0"
       apply_no_weight="true"
       apply_with_weight="true"
       only_selected="false" />
    <inkscape:path-effect
       effect="bspline"
       id="path-effect3198"
       is_visible="true"
       weight="33.333333"
       steps="2"
       helper_size="0"
       apply_no_weight="true"
       apply_with_weight="true"
       only_selected="false" />
    <inkscape:path-effect
       effect="bspline"
       id="path-effect3194"
       is_visible="true"
       weight="33.333333"
       steps="2"
       helper_size="0"
       apply_no_weight="true"
       apply_with_weight="true"
       only_selected="false" />
  </defs>
  <sodipodi:namedview
     id="base"
     pagecolor="#ffffff"
     bordercolor="#666666"
     borderopacity="1.0"
     inkscape:pageopacity="0.0"
     inkscape:pageshadow="2"
     inkscape:zoom="1.4182101"
     inkscape:cx="292.20876"
     inkscape:cy="245.19214"
     inkscape:document-units="px"
     inkscape:current-layer="layer1"
     showgrid="false"
     units="px"
     inkscape:window-width="1920"
     inkscape:window-height="1001"
     inkscape:window-x="-9"
     inkscape:window-y="-9"
     inkscape:window-maximized="1" />
  <metadata
     id="metadata2623">
    <rdf:RDF>
      <cc:Work
         rdf:about="">
        <dc:format>image/svg+xml</dc:format>
        <dc:type
           rdf:resource="http://purl.org/dc/dcmitype/StillImage" />
        <dc:title></dc:title>
      </cc:Work>
    </rdf:RDF>
  </metadata>
  <g
     inkscape:label="圖層 1"
     inkscape:groupmode="layer"
     id="layer1"
     transform="translate(0,-161.26873)">
    <path
       style="fill:#000000;stroke:#000000;stroke-width:1px;stroke-linecap:butt;stroke-linejoin:miter;stroke-opacity:1;fill-opacity:1"
       d="M 133.26657,295.62245 160.76602,297.73779 270.76382,268.123 284.16099,266.71277 299.6735,272.35368 294.7377,282.22528 163.58648,314.66053 C 163.58648,314.66053 150.89442,309.72473 148.07397,308.3145 145.25351,306.90427 133.26657,295.62245 133.26657,295.62245 Z"
       id="path3182"
       inkscape:connector-curvature="0" />
    <path
       style="fill:#000000;stroke:#000000;stroke-width:1px;stroke-linecap:butt;stroke-linejoin:miter;stroke-opacity:1;fill-opacity:1"
       d="M 107.88246,343.57021 C 107.88246,343.57021 130.44611,350.62135 155.12511,344.27532 179.8041,337.92929 261.59734,314.66053 261.59734,314.66053 261.59734,314.66053 280.63542,310.42984 282.75076,316.77587 284.8661,323.1219 279.93031,328.76281 279.93031,328.76281 L 151.59954,365.42875 C 151.59954,365.42875 135.38191,371.06966 123.39497,361.90317 111.40803,352.73669 107.88246,343.57021 107.88246,343.57021 Z"
       id="path3186"
       inkscape:connector-curvature="0" />
    <path
       style="fill:#000000;stroke:#000000;stroke-width:1px;stroke-linecap:butt;stroke-linejoin:miter;stroke-opacity:1;fill-opacity:1"
       d="M 90.959721,401.38957 305.31441,347.09578 C 305.31441,347.09578 332.10875,343.57021 334.22409,351.32646 336.33944,359.08272 334.92921,367.54409 332.10875,367.54409 329.28829,367.54409 315.18601,364.72363 315.18601,364.72363 L 121.27963,410.55605 Z"
       id="path3188"
       inkscape:connector-curvature="0" />
    <path
       style="fill:none;stroke:#000000;stroke-width:1px;stroke-linecap:butt;stroke-linejoin:miter;stroke-opacity:1"
       d="M 185.44501,195.49624 Z"
       id="path3190"
       inkscape:connector-curvature="0" />
    <path
       style="fill:#000000;stroke:#000000;stroke-width:1px;stroke-linecap:butt;stroke-linejoin:miter;stroke-opacity:1;fill-opacity:1"
       d="M 185.44501,195.49624 C 192.496,206.07272 199.54714,216.64943 203.1903,228.63614 206.83346,240.62286 207.0685,254.01973 204.95313,270.8256 202.83776,287.63148 198.37236,307.84326 189.79322,333.81586 181.21408,359.78845 168.52275,391.51676 154.06775,419.6043 139.61274,447.69183 123.39574,472.13486 107.17789,491.05587 90.960043,509.97688 74.743183,523.37341 59.817861,533.9505 44.89254,544.52758 31.261243,552.28331 28.676126,555.92669 26.09101,559.57006 34.551644,559.10003 46.420192,555.92718 58.28874,552.75433 73.568113,546.87765 87.552236,536.65377 101.53636,526.42989 114.22942,511.85638 129.2711,489.88134 144.31278,467.9063 161.70687,438.5244 177.10149,407.38251 192.49611,376.24061 205.89381,343.33396 214.70749,309.7242 223.52116,276.11444 227.752,241.79763 227.16459,223.1128 226.57717,204.42797 221.17113,201.37238 213.88448,194.90842 206.59784,188.44446 197.43191,178.57346 192.37867,178.10284 187.32544,177.63223 186.38528,186.5637 185.44501,195.49624 185.44501,195.49624 185.44501,195.49624 185.44501,195.49624 185.44501,195.49624 185.44501,195.49624 185.44501,195.49624 185.44501,195.49624 185.44501,195.49624 185.44501,195.49624"
       id="path3192"
       inkscape:connector-curvature="0"
       inkscape:path-effect="#path-effect3194"
       inkscape:original-d="M 185.44501,195.49624 C 192.49715,206.07195 199.54829,216.64866 206.59844,227.22638 206.83448,240.62284 207.06951,254.01971 207.30355,267.41788 202.8385,287.63164 198.37311,307.84343 193.90638,328.0577 181.2146,359.78866 168.52327,391.51697 155.83022,423.2481 139.61298,447.69199 123.39597,472.13502 107.17735,496.57997 90.959955,509.97677 74.743097,523.37331 58.524472,536.77148 44.892354,544.52725 31.261059,552.28299 17.627853,560.04024 26.090958,559.56913 34.551592,559.09909 43.011961,558.63001 58.288534,552.75379 73.567907,546.87711 88.844379,541.00216 101.53643,526.42995 114.22949,511.85644 126.92054,497.28509 144.31309,467.90648 161.70717,438.52458 179.09899,409.14582 192.49662,376.24082 205.89432,343.33417 219.29049,310.42984 223.52202,276.11455 227.75286,241.79774 231.98255,207.48318 226.57784,204.42679 221.1718,201.37119 215.76492,198.3167 206.59888,188.4435 197.43295,178.5725 188.26547,168.70191 187.32632,177.63232 186.38616,186.56379 185.44501,195.49624 185.44501,195.49624 185.44601,195.49524 185.44501,195.49624 185.44501,195.49624 185.44601,195.49524 185.44501,195.49624 185.44501,195.49624 185.44601,195.49524 185.44501,195.49624" />
    <path
       style="fill:#000000;stroke:#000000;stroke-width:1px;stroke-linecap:butt;stroke-linejoin:miter;stroke-opacity:1;fill-opacity:1"
       d="M 257.01405,414.55155 C 277.34498,434.05993 313.54084,464.61488 338.33745,483.77052 363.13406,502.92616 376.53125,510.68244 388.51846,513.97283 400.50567,517.26323 411.08263,516.08801 425.53656,513.15019 439.99049,510.21237 458.32536,505.51112 461.96856,501.75084 465.61177,497.99056 454.56427,495.16992 437.99335,490.23391 421.42243,485.2979 399.33025,478.2472 376.5311,468.49295 353.73196,458.73869 330.22881,446.28203 307.42987,432.29712 284.63092,418.3122 262.53769,402.79993 249.37553,393.51591 236.21337,384.23189 231.98273,381.17643 232.10015,383.8793 232.21758,386.58216 236.68311,395.04317 257.01405,414.55155 Z"
       id="path3196"
       inkscape:connector-curvature="0"
       inkscape:path-effect="#path-effect3198"
       inkscape:original-d="M 241.14903,403.50491 C 277.34589,434.05885 313.54175,464.6138 349.7366,495.16974 363.13474,502.92498 376.53194,510.68125 389.92811,518.43851 400.50557,517.26235 411.08253,516.08713 421.65824,514.91294 439.99031,510.21167 458.32518,505.51042 476.65715,500.81066 465.61207,497.98938 454.56457,495.16874 443.51678,492.34929 421.42281,485.2967 399.33063,478.246 377.23605,471.19586 353.73259,458.7375 330.22945,446.28083 306.72464,433.82482 284.63172,418.31106 262.53849,402.79879 240.44391,387.28728 236.21419,384.23076 231.98355,381.17529 227.75186,378.1208 232.21878,386.58153 236.68431,395.04254 241.14903,403.50491 Z" />
    <path
       style="fill:#000000;stroke:#000000;stroke-width:1px;stroke-linecap:butt;stroke-linejoin:miter;stroke-opacity:1;fill-opacity:1"
       d="M 174.7515,467.67022 C 184.74108,463.43929 208.00985,457.09326 223.05211,453.09767 238.09436,449.10209 244.91081,447.45674 251.60834,448.98429 258.30586,450.51184 264.88806,455.21341 261.82511,459.29647 258.76216,463.37952 245.61593,466.96486 231.51295,470.72566 217.40997,474.48645 202.13389,478.48174 191.9092,479.42206 181.68451,480.36239 176.51407,478.24721 172.2831,476.13174 168.05213,474.01628 164.76192,471.90115 174.7515,467.67022 Z"
       id="path3200"
       inkscape:connector-curvature="0"
       inkscape:path-effect="#path-effect3202"
       inkscape:original-d="M 161.47113,469.78564 C 184.7409,463.43861 208.00967,457.09258 231.27743,450.74755 238.09419,449.10137 244.91064,447.45602 251.72574,445.81176 258.30667,450.51071 264.88887,455.21228 271.46894,459.91404 258.77825,463.43851 245.61575,466.96418 232.68766,470.49075 217.40979,474.48576 202.13371,478.48104 186.85524,482.47769 181.68501,480.36118 176.51457,478.246 171.34273,476.13166 168.05288,474.01511 164.76267,471.89998 161.47113,469.78564 Z" />
    <path
       style="fill:#000000;stroke:#000000;stroke-width:1px;stroke-linecap:butt;stroke-linejoin:miter;stroke-opacity:1;fill-opacity:1"
       d="M 153.36287,518.90841 C 173.2242,513.03239 215.296,504.10094 245.26308,498.34259 275.23017,492.58423 293.09356,489.99874 304.49212,492.11386 315.89068,494.22898 320.82679,501.04551 315.42127,504.45365 310.01576,507.8618 294.26863,507.8618 280.63609,508.33186 267.00355,508.80192 255.48742,509.74201 237.62345,512.91519 219.75948,516.08837 195.55282,521.49374 180.15769,525.72435 164.76255,529.95496 158.1818,533.01031 152.65765,533.59811 147.13349,534.18592 142.66858,532.30596 139.26011,529.95527 135.85165,527.60458 133.50153,524.78444 153.36287,518.90841 Z"
       id="path3204"
       inkscape:connector-curvature="0"
       inkscape:path-effect="#path-effect3206"
       inkscape:original-d="M 131.15123,521.96408 C 173.22404,513.03163 215.29584,504.10019 257.36665,495.16974 275.23005,492.5834 293.09344,489.99791 310.95533,487.41349 315.89182,494.22816 320.82792,501.04469 325.76272,507.8618 310.01576,507.8608 294.26863,507.8608 278.52008,507.8618 267.00348,508.80101 255.48735,509.7411 243.96949,510.68225 219.75931,516.08763 195.55265,521.493 171.34273,526.89988 164.76235,529.95452 158.1816,533.00987 151.59954,536.06636 147.134,534.18471 142.66909,532.30475 138.20237,530.42545 135.85273,527.60368 133.50261,524.78354 131.15123,521.96408 Z" />
    <path
       style="fill:#000000;stroke:#000000;stroke-width:1px;stroke-linecap:butt;stroke-linejoin:miter;stroke-opacity:1;fill-opacity:1"
       d="M 208.12655,482.47752 C 205.65809,484.82767 208.24351,489.99851 208.94874,497.40223 209.65397,504.80594 208.47887,514.44175 204.60061,525.60674 200.72235,536.77173 194.14204,549.46233 185.68043,559.92207 177.21881,570.38181 166.87811,578.60737 155.47815,584.71882 144.07819,590.83027 131.6225,594.82549 129.50732,597.76383 127.39214,600.70217 135.61768,602.58229 145.01896,601.99458 154.42024,601.40687 164.99789,598.3511 178.27652,587.65754 191.55514,576.96398 207.53952,558.62895 217.99829,541.23655 228.45705,523.84415 233.39313,507.39053 233.74573,497.5197 234.09833,487.64887 229.86734,484.3581 223.99166,482.47776 218.11598,480.59743 210.59501,480.12736 208.12655,482.47752 Z"
       id="path3208"
       inkscape:connector-curvature="0"
       inkscape:path-effect="#path-effect3210"
       inkscape:original-d="M 203.07287,479.65723 C 205.65929,484.82707 208.2447,489.99791 210.82912,495.16974 209.65484,504.80605 208.47974,514.44186 207.30355,524.07942 200.72273,536.77193 194.14242,549.46253 187.56036,562.15558 177.21871,570.38169 166.87801,578.60725 156.53533,586.83458 144.07799,590.82965 131.6223,594.82487 119.16429,598.82152 127.39241,600.701 135.61795,602.58113 143.84328,604.46243 154.42005,601.40621 164.9977,598.35044 175.57342,595.29595 191.55521,576.96404 207.53959,558.62901 223.52118,540.29705 228.45769,523.84434 233.39377,507.39072 238.32857,490.93906 234.09919,487.64776 229.8682,484.35699 225.63652,481.06746 218.11605,480.59637 210.59508,480.12631 203.07287,479.65723 Z" />
    <path
       style="fill:#000000;stroke:#000000;stroke-width:1px;stroke-linecap:butt;stroke-linejoin:miter;stroke-opacity:1;fill-opacity:1"
       d="M 243.26498,556.39674 C 254.7814,567.09151 280.40054,586.12959 297.44092,597.52896 314.4813,608.92834 322.94273,612.68897 326.8206,611.16086 330.69847,609.63275 329.99332,602.81628 325.05816,594.82603 320.123,586.83577 310.95533,577.6681 298.59421,569.37005 286.2331,561.072 270.29418,553.45938 259.48247,548.87611 248.67076,544.29284 242.79497,542.64762 238.56432,542.99974 234.33367,543.35186 231.74855,545.70197 243.26498,556.39674 Z"
       id="path3212"
       inkscape:connector-curvature="0"
       inkscape:path-effect="#path-effect3214"
       inkscape:original-d="M 229.16209,548.0533 C 254.78224,567.09038 280.40138,586.12846 306.01953,605.16755 314.48184,608.92713 322.94327,612.68776 331.40364,616.44937 330.69956,609.63264 329.99441,602.81617 329.28829,596.00106 320.124,586.83477 310.95633,577.6671 301.78884,568.50161 286.27733,560.97939 270.29475,553.45818 254.5462,545.93796 248.67109,544.29165 242.7953,542.64643 236.91834,541.00216 234.33363,543.35181 231.74851,545.70192 229.16209,548.0533 Z" />
  </g>
</svg>
