<?xml version="1.0" encoding="UTF-8" standalone="no"?>
<!-- Created with Inkscape (http://www.inkscape.org/) -->

<svg
   xmlns:dc="http://purl.org/dc/elements/1.1/"
   xmlns:cc="http://creativecommons.org/ns#"
   xmlns:rdf="http://www.w3.org/1999/02/22-rdf-syntax-ns#"
   xmlns:svg="http://www.w3.org/2000/svg"
   xmlns="http://www.w3.org/2000/svg"
   xmlns:sodipodi="http://sodipodi.sourceforge.net/DTD/sodipodi-0.dtd"
   xmlns:inkscape="http://www.inkscape.org/namespaces/inkscape"
   version="1.1"
   id="svg3721"
   width="513"
   height="513"
   viewBox="0 0 513 513"
   sodipodi:docname="U+5BC2.svg"
   inkscape:version="0.92.4 (5da689c313, 2019-01-14)">
  <metadata
     id="metadata3727">
    <rdf:RDF>
      <cc:Work
         rdf:about="">
        <dc:format>image/svg+xml</dc:format>
        <dc:type
           rdf:resource="http://purl.org/dc/dcmitype/StillImage" />
        <dc:title></dc:title>
      </cc:Work>
    </rdf:RDF>
  </metadata>
  <defs
     id="defs3725" />
  <sodipodi:namedview
     pagecolor="#ffffff"
     bordercolor="#666666"
     borderopacity="1"
     objecttolerance="10"
     gridtolerance="10"
     guidetolerance="10"
     inkscape:pageopacity="0"
     inkscape:pageshadow="2"
     inkscape:window-width="1920"
     inkscape:window-height="1017"
     id="namedview3723"
     showgrid="false"
     inkscape:zoom="0.46003899"
     inkscape:cx="-124.98941"
     inkscape:cy="256.5"
     inkscape:window-x="-8"
     inkscape:window-y="-8"
     inkscape:window-maximized="1"
     inkscape:current-layer="svg3721" />
  <path
     style="fill:#000000;stroke:#000000;stroke-width:1px;stroke-linecap:butt;stroke-linejoin:miter;stroke-opacity:1;fill-opacity:1"
     d="M 86.949153,86.949153 126.07627,132.59746 117.38136,182.59322 95.644068,223.89407 80.427966,197.80932 106.51271,149.98729 Z"
     id="path3731"
     inkscape:connector-curvature="0" />
  <path
     style="fill:#000000;stroke:#000000;stroke-width:1px;stroke-linecap:butt;stroke-linejoin:miter;stroke-opacity:1;fill-opacity:1"
     d="M 213.02542,63.038136 245.63136,73.90678 243.45763,84.775424 158.6822,104.33898 134.77119,91.29661 158.6822,126.07627 389.09746,93.470339 380.40254,136.94492 445.61441,110.86017 397.79237,82.601695 267.36864,86.949153 269.54237,58.690678 217.37288,34.779661 197.80932,45.648305 206.50424,65.211864 Z"
     id="path3733"
     inkscape:connector-curvature="0" />
  <path
     style="fill:none;stroke:#000000;stroke-width:1px;stroke-linecap:butt;stroke-linejoin:miter;stroke-opacity:1"
     d="M 213.02542,63.038136 197.80932,45.648305 Z"
     id="path3735"
     inkscape:connector-curvature="0" />
  <path
     style="fill:none;stroke:#000000;stroke-width:1px;stroke-linecap:butt;stroke-linejoin:miter;stroke-opacity:1"
     d="M 269.54237,58.690678 Z"
     id="path3737"
     inkscape:connector-curvature="0" />
  <path
     style="fill:#000000;stroke:#000000;stroke-width:1px;stroke-linecap:butt;stroke-linejoin:miter;stroke-opacity:1;fill-opacity:1"
     d="M 23.911017,254.32627 C 23.911017,254.32627 210.85169,217.37288 223.89407,221.72034 236.93644,226.0678 384.75,215.19915 384.75,215.19915 L 404.31356,208.67797 445.61441,226.0678 428.22458,241.2839 269.54237,230.41525 113.0339,263.02119 71.733051,282.58475 Z"
     id="path3739"
     inkscape:connector-curvature="0" />
  <path
     style="fill:#000000;stroke:#000000;stroke-width:1px;stroke-linecap:butt;stroke-linejoin:miter;stroke-opacity:1;fill-opacity:1"
     d="M 147.81356,173.89831 C 163.02966,178.24576 171.72458,195.63559 171.72458,195.63559 L 160.85593,217.37288 152.16102,195.63559 Z"
     id="path3741"
     inkscape:connector-curvature="0" />
  <path
     style="fill:#000000;stroke:#000000;stroke-width:1px;stroke-linecap:butt;stroke-linejoin:miter;stroke-opacity:1;fill-opacity:1"
     d="M 302.14831,160.85593 317.36441,186.94068 321.71186,302.14831 326.05932,421.70339 321.71186,452.13559 343.44915,467.35169 V 441.26695 L 336.92797,273.88983 347.79661,193.46186 315.19068,156.50847 Z"
     id="path3743"
     inkscape:connector-curvature="0" />
  <path
     style="fill:#000000;stroke:#000000;stroke-width:1px;stroke-linecap:butt;stroke-linejoin:miter;stroke-opacity:1;fill-opacity:1"
     d="M 360.83898,273.88983 395.61864,295.62712 389.09746,317.36441 365.18644,289.10593 Z"
     id="path3745"
     inkscape:connector-curvature="0" />
  <path
     style="fill:#000000;stroke:#000000;stroke-width:1px;stroke-linecap:butt;stroke-linejoin:miter;stroke-opacity:1;fill-opacity:1"
     d="M 284.75847,282.58475 306.49576,304.32203 310.84322,282.58475 289.10593,269.54237 Z"
     id="path3747"
     inkscape:connector-curvature="0" />
  <path
     style="fill:#000000;stroke:#000000;stroke-width:1px;stroke-linecap:butt;stroke-linejoin:miter;stroke-opacity:1;fill-opacity:1"
     d="M 239.11017,291.27966 252.15254,319.53814 267.36864,306.49576 Z"
     id="path3749"
     inkscape:connector-curvature="0" />
  <path
     style="fill:#000000;stroke:#000000;stroke-width:1px;stroke-linecap:butt;stroke-linejoin:miter;stroke-opacity:1;fill-opacity:1"
     d="M 189.11441,306.49576 208.67797,336.92797 223.89407,326.05932 208.67797,306.49576 Z"
     id="path3751"
     inkscape:connector-curvature="0" />
  <path
     style="fill:#000000;stroke:#000000;stroke-width:1px;stroke-linecap:butt;stroke-linejoin:miter;stroke-opacity:1;fill-opacity:1"
     d="M 173.89831,143.4661 C 173.89831,143.4661 202.15678,197.80932 193.46186,213.02542 184.76695,228.24153 191.28814,291.27966 156.50847,304.32203 121.72881,317.36441 82.601695,349.97034 43.474576,347.79661 4.3474576,345.62288 36.95339,352.14407 36.95339,352.14407 L 65.211864,367.36017 C 65.211864,367.36017 169.55085,339.10169 158.6822,317.36441 147.81356,295.62712 167.37712,310.84322 167.37712,310.84322 L 204.33051,252.15254 219.54661,180.41949 210.85169,147.81356 Z"
     id="path3753"
     inkscape:connector-curvature="0" />
  <path
     style="fill:none;stroke:#000000;stroke-width:1px;stroke-linecap:butt;stroke-linejoin:miter;stroke-opacity:1"
     d="M 167.37712,310.84322 Z"
     id="path3755"
     inkscape:connector-curvature="0" />
</svg>
