<?xml version="1.0" encoding="UTF-8" standalone="no"?>
<!-- Created with Inkscape (http://www.inkscape.org/) -->

<svg
   xmlns:dc="http://purl.org/dc/elements/1.1/"
   xmlns:cc="http://creativecommons.org/ns#"
   xmlns:rdf="http://www.w3.org/1999/02/22-rdf-syntax-ns#"
   xmlns:svg="http://www.w3.org/2000/svg"
   xmlns="http://www.w3.org/2000/svg"
   xmlns:sodipodi="http://sodipodi.sourceforge.net/DTD/sodipodi-0.dtd"
   xmlns:inkscape="http://www.inkscape.org/namespaces/inkscape"
   version="1.1"
   id="svg4562"
   width="513"
   height="513"
   viewBox="0 0 513 513"
   sodipodi:docname="U+5BE5.svg"
   inkscape:version="0.92.4 (5da689c313, 2019-01-14)">
  <metadata
     id="metadata4568">
    <rdf:RDF>
      <cc:Work
         rdf:about="">
        <dc:format>image/svg+xml</dc:format>
        <dc:type
           rdf:resource="http://purl.org/dc/dcmitype/StillImage" />
        <dc:title></dc:title>
      </cc:Work>
    </rdf:RDF>
  </metadata>
  <defs
     id="defs4566" />
  <sodipodi:namedview
     pagecolor="#ffffff"
     bordercolor="#666666"
     borderopacity="1"
     objecttolerance="10"
     gridtolerance="10"
     guidetolerance="10"
     inkscape:pageopacity="0"
     inkscape:pageshadow="2"
     inkscape:window-width="1920"
     inkscape:window-height="1017"
     id="namedview4564"
     showgrid="false"
     inkscape:zoom="1.3011867"
     inkscape:cx="145.65985"
     inkscape:cy="306.83606"
     inkscape:window-x="-8"
     inkscape:window-y="-8"
     inkscape:window-maximized="1"
     inkscape:current-layer="svg4562" />
  <path
     style="fill:#000000;stroke:#000000;stroke-width:1px;stroke-linecap:butt;stroke-linejoin:miter;stroke-opacity:1;fill-opacity:1"
     d="M 178.24576,13.042373 202.15678,17.389831 221.72034,39.127119 230.41525,45.648305 358.66525,39.127119 413.00847,73.90678 343.44915,93.470339 356.49153,65.211864 345.62288,49.995763 115.20763,84.775424 91.29661,65.211864 189.11441,47.822034 Z"
     id="path4572"
     inkscape:connector-curvature="0" />
  <path
     style="fill:#000000;stroke:#000000;stroke-width:1px;stroke-linecap:butt;stroke-linejoin:miter;stroke-opacity:1;fill-opacity:1"
     d="M 56.516949,60.864407 C 56.516949,60.864407 89.122881,84.775424 73.90678,115.20763 58.690678,145.63983 49.995763,156.50847 49.995763,156.50847 L 63.038136,169.55085 97.817797,99.991525 65.211864,60.864407 Z"
     id="path4574"
     inkscape:connector-curvature="0" />
  <path
     style="fill:none;stroke:#000000;stroke-width:1px;stroke-linecap:butt;stroke-linejoin:miter;stroke-opacity:1"
     d="M 65.211864,60.864407 Z"
     id="path4576"
     inkscape:connector-curvature="0" />
  <path
     style="fill:#000000;stroke:#000000;stroke-width:1px;stroke-linecap:butt;stroke-linejoin:miter;stroke-opacity:1;fill-opacity:1"
     d="M 132.59746,119.55508 195.63559,97.817797 217.37288,132.59746 197.80932,197.80932 163.02966,219.54661 115.20763,236.93644 106.51271,213.02542 182.59322,199.98305 191.28814,128.25 143.4661,134.77119 Z"
     id="path4578"
     inkscape:connector-curvature="0" />
  <path
     style="fill:#000000;stroke:#000000;stroke-width:1px;stroke-linecap:butt;stroke-linejoin:miter;stroke-opacity:1;fill-opacity:1"
     d="M 134.77119,173.89831 154.33475,184.76695 171.72458,173.89831 173.89831,163.02966 143.4661,158.6822 Z"
     id="path4580"
     inkscape:connector-curvature="0" />
  <path
     style="fill:#000000;stroke:#000000;stroke-width:1px;stroke-linecap:butt;stroke-linejoin:miter;stroke-opacity:1;fill-opacity:1"
     d="M 255.0948,108.68644 263.78972,128.25 298.56938,121.72881 294.22192,180.41949 224.6626,197.80932 255.0948,210.85169 324.65412,191.28814 311.61175,165.20339 333.34904,115.20763 300.74311,102.16525 Z"
     id="path4582"
     inkscape:connector-curvature="0" />
  <path
     style="fill:#000000;stroke:#000000;stroke-width:1px;stroke-linecap:butt;stroke-linejoin:miter;stroke-opacity:1;fill-opacity:1"
     d="M 182.59322,199.98305 C 182.59322,199.98305 169.55085,278.23729 113.0339,317.36441 56.516949,356.49153 6.5211864,378.22881 6.5211864,378.22881 L 49.995763,373.88136 123.90254,326.05932 186.94068,256.5 197.80932,197.80932 Z"
     id="path4584"
     inkscape:connector-curvature="0" />
  <path
     style="fill:#000000;stroke:#000000;stroke-width:1px;stroke-linecap:butt;stroke-linejoin:miter;stroke-opacity:1;fill-opacity:1"
     d="M 213.02542,232.58898 C 213.02542,232.58898 286.9322,267.36864 291.27966,282.58475 295.62712,297.80085 332.58051,319.53814 332.58051,319.53814 L 391.27119,354.3178 491.26271,334.75424 341.27542,291.27966 241.2839,236.93644 Z"
     id="path4586"
     inkscape:connector-curvature="0" />
  <path
     style="fill:#000000;stroke:#000000;stroke-width:1px;stroke-linecap:butt;stroke-linejoin:miter;stroke-opacity:1;fill-opacity:1"
     d="M 241.31817,157.17098 263.60551,166.39333 286.66139,161.78216 278.20757,153.32834 260.5314,149.48569 Z"
     id="path4592"
     inkscape:connector-curvature="0" />
  <path
     style="fill:#000000;stroke:#000000;stroke-width:1px;stroke-linecap:butt;stroke-linejoin:miter;stroke-opacity:1;fill-opacity:1"
     d="M 212.11406,263.22801 C 212.11406,263.22801 229.0217,275.52448 213.65112,290.89506 198.28053,306.26565 185.21554,309.33976 185.21554,309.33976 L 194.43789,311.64535 248.23493,281.67271 224.41052,262.45948 209.03994,260.92242 Z"
     id="path4594"
     inkscape:connector-curvature="0" />
  <path
     style="fill:#000000;stroke:#000000;stroke-width:1px;stroke-linecap:butt;stroke-linejoin:miter;stroke-opacity:1;fill-opacity:1"
     d="M 204.42877,329.32152 214.41964,339.3124 199.04906,357.7571 162.15966,382.35004 C 162.15966,382.35004 175.22466,390.03533 195.20641,379.27592 215.18817,368.51651 220.56788,363.13681 220.56788,363.13681 L 238.24405,348.53475 233.63287,334.70123 C 233.63287,334.70123 225.94758,321.63623 219.79935,324.71035 213.65112,327.78446 204.42877,329.32152 204.42877,329.32152 Z"
     id="path4596"
     inkscape:connector-curvature="0" />
  <path
     style="fill:#000000;stroke:#000000;stroke-width:1px;stroke-linecap:butt;stroke-linejoin:miter;stroke-opacity:1;fill-opacity:1"
     d="M 232.86435,393.87798 235.16993,406.94297 219.03082,421.54503 184.44701,443.83237 225.17905,432.30443 256.68875,416.16532 254.38316,402.3318 244.39228,392.34092 Z"
     id="path4598"
     inkscape:connector-curvature="0" />
  <path
     style="fill:none;stroke:#000000;stroke-width:1px;stroke-linecap:butt;stroke-linejoin:miter;stroke-opacity:1"
     d="M 387.33871,320.09917 Z"
     id="path5143"
     inkscape:connector-curvature="0" />
  <path
     style="fill:#000000;stroke:#000000;stroke-width:1px;stroke-linecap:butt;stroke-linejoin:miter;stroke-opacity:1;fill-opacity:1"
     d="M 177.53024,218.65332 C 194.43789,213.27361 195.20641,215.5792 195.20641,215.5792 V 217.11626 L 192.90083,213.27361"
     id="path5145"
     inkscape:connector-curvature="0" />
</svg>
