<?xml version="1.0" encoding="UTF-8" standalone="no"?>
<!-- Created with Inkscape (http://www.inkscape.org/) -->

<svg
   xmlns:dc="http://purl.org/dc/elements/1.1/"
   xmlns:cc="http://creativecommons.org/ns#"
   xmlns:rdf="http://www.w3.org/1999/02/22-rdf-syntax-ns#"
   xmlns:svg="http://www.w3.org/2000/svg"
   xmlns="http://www.w3.org/2000/svg"
   xmlns:sodipodi="http://sodipodi.sourceforge.net/DTD/sodipodi-0.dtd"
   xmlns:inkscape="http://www.inkscape.org/namespaces/inkscape"
   width="210mm"
   height="297mm"
   viewBox="0 0 210 297"
   version="1.1"
   id="svg5153"
   inkscape:version="0.92.4 (5da689c313, 2019-01-14)"
   sodipodi:docname="U+5C0B.svg">
  <defs
     id="defs5147" />
  <sodipodi:namedview
     id="base"
     pagecolor="#ffffff"
     bordercolor="#666666"
     borderopacity="1.0"
     inkscape:pageopacity="0.0"
     inkscape:pageshadow="2"
     inkscape:zoom="1.2445079"
     inkscape:cx="289.92647"
     inkscape:cy="245.14451"
     inkscape:document-units="mm"
     inkscape:current-layer="layer1"
     showgrid="false"
     inkscape:window-width="1920"
     inkscape:window-height="1017"
     inkscape:window-x="-8"
     inkscape:window-y="-8"
     inkscape:window-maximized="1" />
  <metadata
     id="metadata5150">
    <rdf:RDF>
      <cc:Work
         rdf:about="">
        <dc:format>image/svg+xml</dc:format>
        <dc:type
           rdf:resource="http://purl.org/dc/dcmitype/StillImage" />
        <dc:title></dc:title>
      </cc:Work>
    </rdf:RDF>
  </metadata>
  <g
     inkscape:label="圖層 1"
     inkscape:groupmode="layer"
     id="layer1">
    <path
       style="fill:#000000;stroke:#000000;stroke-width:0.26458332px;stroke-linecap:butt;stroke-linejoin:miter;stroke-opacity:1;fill-opacity:1"
       d="M 92.002839,149.67519 99.519411,149.37452 116.95786,145.76657 119.66382,144.86458 121.76846,147.87121 122.97112,151.47917 120.86648,155.98911 110.34327,178.23816 83.283617,184.25142 79.976325,186.05539 75.767045,180.04214 107.33665,174.63021 112.14725,164.70833 87.192233,171.32292 82.682291,167.71496 86.590909,165.30966 112.44792,161.10038 116.05587,150.57718 98.016098,153.88447 Z"
       id="path5166"
       inkscape:connector-curvature="0" />
    <path
       style="fill:#000000;stroke:#000000;stroke-width:0.26458332px;stroke-linecap:butt;stroke-linejoin:miter;stroke-opacity:1;fill-opacity:1"
       d="M 64.642518,196.27793 C 66.747159,196.27793 72.760416,194.17329 72.760416,194.17329 L 87.793559,190.56534 90.800189,189.06202 92.604166,191.16667 V 195.67661 L 90.198862,199.88589 89.8982,204.09517 101.62405,200.48721 H 103.42803 L 100.72206,205.59848 78.172349,216.42235 C 78.172349,216.42235 72.459754,219.42898 70.054451,219.42898 67.649147,219.42898 64.341856,213.41572 64.341856,213.41572 64.341856,213.41572 65.544506,215.52036 67.047821,214.91903 68.551136,214.31771 88.394885,206.50047 88.394885,206.50047 L 85.087594,195.07528 70.956439,199.58523 H 65.243844 L 62.838541,197.17992 V 195.07528 Z"
       id="path5168"
       inkscape:connector-curvature="0" />
    <path
       style="fill:none;stroke:#000000;stroke-width:0.26458332px;stroke-linecap:butt;stroke-linejoin:miter;stroke-opacity:1"
       d="M 127.1804,186.95738 Z"
       id="path5172"
       inkscape:connector-curvature="0" />
    <path
       style="fill:none;stroke:#000000;stroke-width:0.26458332px;stroke-linecap:butt;stroke-linejoin:miter;stroke-opacity:1"
       d="M 127.1804,186.95738 Z"
       id="path5174"
       inkscape:connector-curvature="0" />
    <path
       style="fill:none;stroke:#000000;stroke-width:0.26458332px;stroke-linecap:butt;stroke-linejoin:miter;stroke-opacity:1"
       d="M 132.89299,177.9375 Z"
       id="path5176"
       inkscape:connector-curvature="0" />
    <path
       style="fill:#000000;stroke:#000000;stroke-width:0.26458332px;stroke-linecap:butt;stroke-linejoin:miter;stroke-opacity:1;fill-opacity:1"
       d="M 102.52604,182.7481 107.63731,184.55208 110.34327,192.36932 110.9446,206.50047 110.64394,214.91903 107.63731,212.51373 107.93797,205.29782 107.33665,192.66998 103.72869,186.05539 Z"
       id="path5178"
       inkscape:connector-curvature="0" />
    <path
       style="fill:#000000;stroke:#000000;stroke-width:0.26458332px;stroke-linecap:butt;stroke-linejoin:miter;stroke-opacity:1;fill-opacity:1"
       d="M 118.20602,211.74709 C 122.03284,214.0857 123.09584,216.42431 123.09584,216.42431 L 122.45804,218.12511 145.41892,215.57391 154.98595,214.7235 161.15137,218.33771 C 161.15137,218.33771 163.27738,221.95193 162.42698,222.37713 161.57658,222.80233 146.90712,222.16453 146.90712,222.16453 L 126.07225,220.46372 122.67064,224.71574 C 122.67064,224.71574 122.45804,247.67662 122.45804,252.14124 122.45804,256.60585 118.84382,261.07047 118.84382,261.07047 L 110.765,250.22783 110.33979,247.25142 113.5288,248.10182 117.35562,247.67662 118.84382,231.51896 Z"
       id="path5180"
       inkscape:connector-curvature="0" />
    <path
       style="fill:#000000;stroke:#000000;stroke-width:0.26458332px;stroke-linecap:butt;stroke-linejoin:miter;stroke-opacity:1;fill-opacity:1"
       d="M 45.709162,230.66856 75.898469,224.29054 115.65481,219.40072 122.45804,218.12511 V 218.12511 L 134.57628,216.63691 154.98595,214.7235 161.15137,218.33771 163.06478,222.80233 126.07225,220.46372 106.72558,222.16453 57.827407,234.28277 51.024181,237.47178 43.157954,232.79457 40.819345,229.60556 Z"
       id="path5182"
       inkscape:connector-curvature="0" />
    <path
       style="fill:#000000;stroke:#000000;stroke-width:0.26458332px;stroke-linecap:butt;stroke-linejoin:miter;stroke-opacity:1;fill-opacity:1"
       d="M 91.630927,231.73156 99.709755,238.53479 103.32397,236.83398 100.34756,231.94416 90.993126,226.84175 Z"
       id="path5184"
       inkscape:connector-curvature="0" />
    <path
       style="fill:#000000;stroke:#000000;stroke-width:0.26458332px;stroke-linecap:butt;stroke-linejoin:miter;stroke-opacity:1;fill-opacity:1"
       d="M 115.65481,188.99881 127.1804,186.95738 V 186.95738 L 126.92265,196.01464 125.43445,201.96746 H 119.05642 L 119.48162,204.94387 122.88324,206.64467 139.2535,204.94387 135.21408,202.18006 129.89906,200.47925 132.45027,189.84922 136.70229,187.298 132.89299,177.9375 C 132.89299,177.9375 135.00148,179.21918 128.62346,182.62079 122.24544,186.0224 119.05642,186.6602 119.05642,186.6602 Z"
       id="path5729"
       inkscape:connector-curvature="0" />
    <path
       style="fill:none;stroke:#000000;stroke-width:0.26458332px;stroke-linecap:butt;stroke-linejoin:miter;stroke-opacity:1"
       d="M 222.38039,241.7238 Z"
       id="path5731"
       inkscape:connector-curvature="0" />
  </g>
</svg>
