<?xml version="1.0" encoding="UTF-8" standalone="no"?>
<!-- Created with Inkscape (http://www.inkscape.org/) -->

<svg
   xmlns:dc="http://purl.org/dc/elements/1.1/"
   xmlns:cc="http://creativecommons.org/ns#"
   xmlns:rdf="http://www.w3.org/1999/02/22-rdf-syntax-ns#"
   xmlns:svg="http://www.w3.org/2000/svg"
   xmlns="http://www.w3.org/2000/svg"
   xmlns:sodipodi="http://sodipodi.sourceforge.net/DTD/sodipodi-0.dtd"
   xmlns:inkscape="http://www.inkscape.org/namespaces/inkscape"
   width="512"
   height="512"
   viewBox="0 0 512 512"
   version="1.1"
   id="svg3222"
   inkscape:version="0.92.4 (5da689c313, 2019-01-14)"
   sodipodi:docname="616E.svg">
  <defs
     id="defs3216">
    <inkscape:path-effect
       effect="bspline"
       id="path-effect3832"
       is_visible="true"
       weight="33.333333"
       steps="2"
       helper_size="0"
       apply_no_weight="true"
       apply_with_weight="true"
       only_selected="false" />
    <inkscape:path-effect
       effect="bspline"
       id="path-effect3824"
       is_visible="true"
       weight="33.333333"
       steps="2"
       helper_size="0"
       apply_no_weight="true"
       apply_with_weight="true"
       only_selected="false" />
    <inkscape:path-effect
       effect="bspline"
       id="path-effect3820"
       is_visible="true"
       weight="33.333333"
       steps="2"
       helper_size="0"
       apply_no_weight="true"
       apply_with_weight="true"
       only_selected="false" />
    <inkscape:path-effect
       effect="bspline"
       id="path-effect3816"
       is_visible="true"
       weight="33.333333"
       steps="2"
       helper_size="0"
       apply_no_weight="true"
       apply_with_weight="true"
       only_selected="false" />
    <inkscape:path-effect
       effect="bspline"
       id="path-effect3812"
       is_visible="true"
       weight="33.333333"
       steps="2"
       helper_size="0"
       apply_no_weight="true"
       apply_with_weight="true"
       only_selected="false" />
    <inkscape:path-effect
       effect="bspline"
       id="path-effect3808"
       is_visible="true"
       weight="33.333333"
       steps="2"
       helper_size="0"
       apply_no_weight="true"
       apply_with_weight="true"
       only_selected="false" />
    <inkscape:path-effect
       effect="bspline"
       id="path-effect3804"
       is_visible="true"
       weight="33.333333"
       steps="2"
       helper_size="0"
       apply_no_weight="true"
       apply_with_weight="true"
       only_selected="false" />
    <inkscape:path-effect
       effect="bspline"
       id="path-effect3800"
       is_visible="true"
       weight="33.333333"
       steps="2"
       helper_size="0"
       apply_no_weight="true"
       apply_with_weight="true"
       only_selected="false" />
    <inkscape:path-effect
       effect="bspline"
       id="path-effect3796"
       is_visible="true"
       weight="33.333333"
       steps="2"
       helper_size="0"
       apply_no_weight="true"
       apply_with_weight="true"
       only_selected="false" />
    <inkscape:path-effect
       effect="bspline"
       id="path-effect3792"
       is_visible="true"
       weight="33.333333"
       steps="2"
       helper_size="0"
       apply_no_weight="true"
       apply_with_weight="true"
       only_selected="false" />
    <inkscape:path-effect
       effect="bspline"
       id="path-effect3788"
       is_visible="true"
       weight="33.333333"
       steps="2"
       helper_size="0"
       apply_no_weight="true"
       apply_with_weight="true"
       only_selected="false" />
    <inkscape:path-effect
       effect="bspline"
       id="path-effect3784"
       is_visible="true"
       weight="33.333333"
       steps="2"
       helper_size="0"
       apply_no_weight="true"
       apply_with_weight="true"
       only_selected="false" />
  </defs>
  <sodipodi:namedview
     id="base"
     pagecolor="#ffffff"
     bordercolor="#666666"
     borderopacity="1.0"
     inkscape:pageopacity="0.0"
     inkscape:pageshadow="2"
     inkscape:zoom="1.08"
     inkscape:cx="187.37163"
     inkscape:cy="236.93196"
     inkscape:document-units="px"
     inkscape:current-layer="layer1"
     showgrid="false"
     units="px"
     inkscape:window-width="1920"
     inkscape:window-height="1001"
     inkscape:window-x="-9"
     inkscape:window-y="-9"
     inkscape:window-maximized="1" />
  <metadata
     id="metadata3219">
    <rdf:RDF>
      <cc:Work
         rdf:about="">
        <dc:format>image/svg+xml</dc:format>
        <dc:type
           rdf:resource="http://purl.org/dc/dcmitype/StillImage" />
        <dc:title></dc:title>
      </cc:Work>
    </rdf:RDF>
  </metadata>
  <g
     inkscape:label="圖層 1"
     inkscape:groupmode="layer"
     id="layer1"
     transform="translate(0,-161.53333)">
    <path
       style="fill:#000000;stroke:#000000;stroke-width:1px;stroke-linecap:butt;stroke-linejoin:miter;stroke-opacity:1;fill-opacity:1"
       d="M 168.51852,206.86666 269.44444,192.05185 C 269.44444,192.05185 280.55556,185.57037 290.74074,194.82963 300.92593,204.08889 262.03704,211.49629 262.03704,211.49629 L 193.51852,228.16296 Z"
       id="path3778"
       inkscape:connector-curvature="0" />
    <path
       style="fill:#000000;stroke:#000000;stroke-width:1px;stroke-linecap:butt;stroke-linejoin:miter;stroke-opacity:1;fill-opacity:1"
       d="M 121.2963,267.05185 358.33333,242.05185 379.62963,233.71852 419.44444,248.53333 430.55556,263.34814 389.81481,306.86666 365.74074,307.79259 357.40741,298.53333 373.14815,288.34814 379.62963,261.49629 C 379.62963,261.49629 362.03704,260.57037 358.33333,259.64444 354.62963,258.71852 258.33333,267.97777 258.33333,267.97777 L 164.81481,282.79259 137.96296,290.2 127.77778,282.79259 Z"
       id="path3780"
       inkscape:connector-curvature="0" />
    <path
       style="fill:#000000;stroke:#000000;stroke-width:1px;stroke-linecap:butt;stroke-linejoin:miter;stroke-opacity:1;fill-opacity:1"
       d="M 79.629507,259.79836 C 84.259188,262.42214 95.370299,275.3851 101.54311,285.56994 107.71592,295.75479 108.95048,303.16215 107.25286,321.52779 105.55523,339.89343 100.92611,369.21121 98.302748,384.79763 95.67939,400.38405 95.06213,402.23583 91.51035,397.13976 87.95857,392.04369 81.481289,380.01445 78.70374,372.14373 75.926192,364.273 76.852145,360.56919 79.783913,357.48345 82.715681,354.39771 87.655522,351.92779 89.661181,342.20746 91.66684,332.48713 90.74069,315.5077 88.425899,302.69952 86.111109,289.89135 82.407202,281.2489 79.629493,273.06998 76.851784,264.89107 74.999826,257.17458 79.629507,259.79836 Z"
       id="path3782"
       inkscape:connector-curvature="0"
       inkscape:path-effect="#path-effect3784"
       inkscape:original-d="M 73.148148,249.45926 C 84.260259,262.42122 95.37137,275.38418 106.48148,288.34814 107.71706,295.7546 108.95162,303.16196 110.18519,310.57037 105.55605,339.89356 100.92693,369.21134 96.296296,398.53333 95.679989,400.38425 95.062728,402.23603 94.444444,404.08889 87.959763,392.04305 81.482481,380.01381 75,367.97777 75.926898,364.27318 76.852852,360.56937 77.777778,356.86666 82.715481,354.39731 87.655321,351.92739 92.592593,349.45926 91.667892,332.48707 90.741741,315.50764 89.814815,298.53333 86.112317,289.89083 82.408407,281.24838 78.703704,272.6074 76.852955,264.89079 75.001,257.1743 73.148148,249.45926 Z" />
    <path
       style="fill:#000000;stroke:#000000;stroke-width:1px;stroke-linecap:butt;stroke-linejoin:miter;stroke-opacity:1;fill-opacity:1"
       d="M 211.72837,248.68671 C 212.65419,260.56955 215.12333,276.31029 216.97526,300.07648 218.82719,323.84267 220.06169,355.63114 222.37663,372.91565 224.69157,390.20017 228.08653,392.97786 231.01874,390.81683 233.95096,388.65581 236.42017,381.55682 236.5744,371.06436 236.72863,360.5719 234.56778,346.68065 234.41352,330.47737 234.25926,314.27408 236.11122,295.75446 238.42602,279.85976 240.74082,263.96505 243.51876,250.69266 240.74144,242.05154 237.96411,233.41042 229.63005,229.39773 223.92009,226.61991 218.21012,223.84209 215.12386,222.29896 213.27181,225.53958 211.41976,228.78021 210.80256,236.80387 211.72837,248.68671 Z"
       id="path3786"
       inkscape:connector-curvature="0"
       inkscape:path-effect="#path-effect3788"
       inkscape:original-d="M 210.18519,244.82963 C 212.65532,260.56937 215.12446,276.31011 217.59259,292.05185 218.82822,323.84263 220.06273,355.6311 221.2963,387.42222 224.69246,390.19908 228.08742,392.97677 231.48148,395.75555 233.95154,388.65601 236.42075,381.55702 238.88889,374.45926 236.72976,360.57172 234.5689,346.68048 232.40741,332.79259 234.26015,314.27417 236.11211,295.75455 237.96296,277.23703 240.74158,263.96521 243.51952,250.69282 246.2963,237.42222 237.96469,233.40922 229.63063,229.39653 221.2963,225.38518 218.21072,223.84089 215.12446,222.29776 212.03704,220.75555 211.42067,228.78028 210.80347,236.80394 210.18519,244.82963 Z" />
    <path
       style="fill:#000000;stroke:#000000;stroke-width:1px;stroke-linecap:butt;stroke-linejoin:miter;stroke-opacity:1;fill-opacity:1"
       d="M 156.17364,316.12543 C 161.1119,315.81743 169.44523,317.36063 177.44374,317.2478 185.44225,317.13497 193.82833,315.19972 210.80173,311.95935 227.77514,308.71898 253.70484,304.08868 269.75407,301.46529 285.80329,298.84189 291.9764,298.22458 295.98796,299.30452 299.99952,300.38446 301.8517,303.16273 300.74109,305.57004 299.63049,307.97735 295.06293,310.26113 273.60693,315.20065 252.15093,320.14018 213.5814,327.85409 191.67571,331.56695 169.77002,335.27981 163.88983,334.95314 159.4137,332.4835 154.93757,330.01386 151.54308,325.38501 150.6176,321.98951 149.69211,318.59401 151.23538,316.43343 156.17364,316.12543 Z"
       id="path3790"
       inkscape:connector-curvature="0"
       inkscape:path-effect="#path-effect3792"
       inkscape:original-d="M 152.77778,314.27407 C 161.11211,315.81628 169.44544,317.35949 177.77778,318.9037 185.4941,317.35964 193.82816,315.199 201.85185,313.34814 227.775,308.71819 253.7047,304.08789 279.62963,299.45926 285.8032,298.841 291.97631,298.22369 298.14815,297.6074 300.00067,300.38369 301.85285,303.16196 303.7037,305.94074 299.69202,308.10041 295.06273,310.26073 290.74074,312.42222 252.15078,320.13941 213.58125,327.85332 175,335.57037 169.75393,335.56937 163.88989,334.95208 158.33333,334.64444 154.9387,330.01303 151.54421,325.38418 148.14815,320.75555 149.6923,318.59414 151.23557,316.43356 152.77778,314.27407 Z" />
    <path
       style="fill:#000000;stroke:#000000;stroke-width:1px;stroke-linecap:butt;stroke-linejoin:miter;stroke-opacity:1;fill-opacity:1"
       d="M 162.65484,364.5826 C 169.44555,361.18751 187.03815,359.02702 208.17937,355.32342 229.32059,351.61983 254.01351,346.37259 270.52563,343.28625 287.03775,340.19991 295.37147,339.27394 302.07588,340.39748 308.7803,341.52101 313.58052,344.52115 312.19231,347.76145 310.8041,351.00175 303.08763,354.397 290.27751,356.71214 277.4674,359.02728 259.56896,360.26165 240.11512,363.46659 220.66128,366.67153 199.07524,371.98983 186.11207,374.61343 173.14889,377.23703 168.51952,377.23703 164.19757,374.92168 159.87561,372.60633 155.86413,367.9777 162.65484,364.5826 Z"
       id="path3794"
       inkscape:connector-curvature="0"
       inkscape:path-effect="#path-effect3796"
       inkscape:original-d="M 151.85185,363.34814 C 169.44544,361.18665 187.03804,359.02616 204.62963,356.86666 229.32043,351.61908 254.01335,346.37184 278.7037,341.12592 287.03765,340.19904 295.37137,339.27307 303.7037,338.34814 308.64233,341.74176 313.58125,344.51998 318.51852,347.6074 310.80389,351.00128 303.08742,354.39653 295.37037,357.79259 277.46734,359.02635 259.5689,360.26073 241.66667,361.49629 220.67877,366.74252 199.07507,371.98912 177.77778,377.23703 173.14889,377.23603 168.51952,377.23603 163.88889,377.23703 159.87668,372.6054 155.8652,367.97677 151.85185,363.34814 Z" />
    <path
       style="fill:#000000;stroke:#000000;stroke-width:1px;stroke-linecap:butt;stroke-linejoin:miter;stroke-opacity:1;fill-opacity:1"
       d="M 137.65463,410.87881 C 136.1109,413.9649 138.88868,421.06366 142.50026,425.72461 146.11185,430.38555 150.30904,432.48415 154.16664,443.59382 158.02424,454.7035 161.41961,474.76709 164.50608,486.95881 167.59254,499.15054 170.37021,503.47135 172.46245,503.10019 174.5547,502.72903 176.2349,496.68029 177.16063,483.87388 178.08637,471.06746 178.39508,451.00145 176.38902,438.96504 174.38297,426.92863 170.06177,422.91609 165.43223,419.36675 160.8027,415.81742 155.86447,412.73103 150.46335,410.72481 145.06223,408.71859 139.19835,407.79272 137.65463,410.87881 Z"
       id="path3798"
       inkscape:connector-curvature="0"
       inkscape:path-effect="#path-effect3800"
       inkscape:original-d="M 133.33333,406.86666 C 136.11211,413.96443 138.88989,421.06319 141.66667,428.16296 145.98898,430.63128 150.30964,432.48295 154.62963,434.64444 158.02538,454.70331 161.42075,474.7669 164.81481,494.82963 167.5937,499.14979 170.37137,503.4706 173.14815,507.79259 175.00111,502.85303 176.23557,496.68048 177.77778,491.12592 178.08735,471.06748 178.39606,451.00147 178.7037,430.94074 174.38393,426.92759 170.06273,422.91505 165.74074,418.9037 160.80343,415.81625 155.8652,412.72986 150.92593,409.64444 145.06241,408.71746 139.19853,407.79159 133.33333,406.86666 Z" />
    <path
       style="fill:#000000;stroke:#000000;stroke-width:1px;stroke-linecap:butt;stroke-linejoin:miter;stroke-opacity:1;fill-opacity:1"
       d="M 200.30924,399.61297 C 223.14924,395.75544 268.51961,391.12581 294.754,389.11972 320.98839,387.11364 328.08733,387.73094 331.01912,393.13093 333.95091,398.53093 332.71618,408.71741 328.395,421.98985 324.07381,435.26229 316.66721,451.61854 312.34596,465.66224 308.02472,479.70594 306.79024,491.43347 304.32148,498.22393 301.85271,505.01438 298.14935,506.86606 292.90091,505.93993 287.65247,505.01381 280.86455,501.3113 270.52507,500.53957 260.1856,499.76783 246.29743,501.92822 226.23467,507.17537 206.17191,512.42252 179.93947,520.75518 164.19813,523.2245 148.4568,525.69383 143.21013,522.29893 139.96913,519.21213 136.72813,516.12533 135.49362,513.34768 137.19146,511.34168 138.8893,509.33569 143.5197,508.10091 154.78281,506.24946 166.04593,504.398 183.95174,501.92824 205.55592,497.29874 227.1601,492.66924 252.47032,485.87869 267.43929,480.47725 282.40826,475.07581 287.03811,471.06327 290.89536,461.18842 294.75261,451.31358 297.83974,435.56922 299.38283,424.45842 300.92593,413.34762 300.92593,406.86566 295.68033,403.62542 290.43472,400.38518 279.93927,400.38518 266.82132,402.39139 253.70338,404.39761 237.96414,408.40957 224.69212,411.49611 211.42009,414.58264 200.61843,416.74298 193.05599,416.28003 185.49356,415.81709 181.17303,412.731 179.16682,409.6439 177.16062,406.5568 177.46925,403.47051 200.30924,399.61297 Z"
       id="path3802"
       inkscape:connector-curvature="0"
       inkscape:path-effect="#path-effect3804"
       inkscape:original-d="M 177.77778,400.38518 C 223.14915,395.75455 268.51952,391.12492 313.88889,386.49629 320.98848,387.11256 328.08742,387.72986 335.18519,388.34814 333.95177,398.53103 332.71705,408.71752 331.48148,418.9037 324.07427,435.2625 316.66767,451.61875 309.25926,467.97777 308.0256,479.70603 306.79112,491.43356 305.55556,503.16296 301.85251,505.01398 298.14915,506.86566 294.44444,508.71852 287.65312,505.01261 280.8652,501.31011 274.07407,497.6074 260.18547,499.76701 246.2973,501.92739 232.40741,504.08889 206.17171,512.4219 179.93927,520.75455 153.7037,529.08889 148.45755,525.69267 143.21088,522.29776 137.96296,518.9037 136.72934,516.12479 135.49483,513.34714 134.25926,510.57037 138.88912,509.33501 143.51952,508.10023 148.14815,506.86666 166.04581,504.39716 183.95162,501.92739 201.85185,499.45926 227.15992,492.66856 252.47014,485.87801 277.77778,479.08889 282.40819,475.07573 287.03804,471.06319 291.66667,467.05185 294.75338,451.31373 297.84051,435.56937 300.92593,419.82963 300.92693,413.34762 300.92693,406.86566 300.92593,400.38518 290.43472,400.38418 279.93927,400.38418 269.44444,400.38518 253.7032,404.39691 237.96396,408.40887 222.22222,412.42222 211.41994,414.58187 200.61828,416.74221 189.81481,418.9037 185.49437,415.81595 181.17384,412.72986 176.85185,409.64444 177.16151,406.55689 177.47014,403.4706 177.77778,400.38518 Z" />
    <path
       style="fill:#000000;stroke:#000000;stroke-width:1px;stroke-linecap:butt;stroke-linejoin:miter;stroke-opacity:1;fill-opacity:1"
       d="M 215.27802,431.71201 C 217.59248,443.28556 220.37026,465.81642 223.14832,477.85401 225.92637,489.8916 228.70404,491.43475 232.40778,489.73691 236.11151,488.03907 240.74171,483.1002 242.90174,472.29949 245.06177,461.49879 244.75307,444.82865 244.59875,435.41512 244.44444,426.00159 244.44444,423.84097 242.14523,421.94974 239.84601,420.0585 233.95119,417.97798 228.08691,417.51488 222.22263,417.05179 215.74186,417.97761 213.42695,418.74945 211.11203,419.52129 212.96356,420.13847 215.27802,431.71201 Z"
       id="path3806"
       inkscape:connector-curvature="0"
       inkscape:path-effect="#path-effect3808"
       inkscape:original-d="M 214.81481,420.75555 C 217.59359,443.28542 220.37137,465.81628 223.14815,488.34814 225.92703,489.89041 228.7047,491.43356 231.48148,492.97777 236.11155,488.03911 240.74174,483.10023 245.37037,478.16296 245.06279,461.49877 244.75409,444.82863 244.44444,428.16296 244.44544,426.00159 244.44544,423.84097 244.44444,421.68148 239.81796,420.13798 233.95162,417.97677 228.7037,416.12592 222.22251,417.05095 215.74174,417.97677 209.25926,418.9037 211.11243,419.52009 212.96396,420.13727 214.81481,420.75555 Z" />
    <path
       style="fill:#000000;stroke:#000000;stroke-width:1px;stroke-linecap:butt;stroke-linejoin:miter;stroke-opacity:1;fill-opacity:1"
       d="M 193.21035,457.63765 C 193.51967,455.63133 195.37152,454.39676 207.71011,449.61557 220.0487,444.83438 242.90244,436.49585 257.25384,433.25538 271.60525,430.01491 277.46976,431.86686 279.63024,434.95235 281.79072,438.03784 280.24734,442.35929 275.15389,445.13776 270.06044,447.91623 261.42087,449.15045 249.8459,452.08274 238.27093,455.01503 223.76663,459.64406 214.19847,462.11336 204.63031,464.58267 200.00106,464.89129 197.06819,463.6562 194.13531,462.42112 192.90103,459.64397 193.21035,457.63765 Z"
       id="path3810"
       inkscape:connector-curvature="0"
       inkscape:path-effect="#path-effect3812"
       inkscape:original-d="M 191.66667,456.86666 C 193.51952,455.6311 195.37137,454.39653 197.22222,453.16296 220.0485,444.83382 242.90223,436.49529 265.74074,428.16296 271.60563,430.01371 277.47014,431.86566 283.33333,433.71852 281.79129,438.03804 280.24791,442.35949 278.7037,446.68148 270.06032,447.91539 261.42075,449.14961 252.77778,450.38518 238.27073,455.01441 223.76643,459.64344 209.25926,464.27407 204.63025,464.58174 200.001,464.89035 195.37037,465.2 194.13652,462.42058 192.90223,459.64344 191.66667,456.86666 Z" />
    <path
       style="fill:#000000;stroke:#000000;stroke-width:1px;stroke-linecap:butt;stroke-linejoin:miter;stroke-opacity:1;fill-opacity:1"
       d="M 114.19743,572.60672 C 111.11111,567.35949 111.11111,568.59406 108.02245,576.31576 104.9338,584.03745 98.765957,598.22348 96.296529,608.1005 93.827101,617.97751 95.061563,623.53259 96.450785,626.77385 97.840008,630.01511 99.383012,630.94091 103.85799,628.0089 108.33296,625.07688 115.74178,618.28546 120.52543,613.193 125.30908,608.10054 127.46988,604.705 125.4643,597.14569 123.45871,589.58637 117.28376,577.85395 114.19743,572.60672 Z"
       id="path3814"
       inkscape:connector-curvature="0"
       inkscape:path-effect="#path-effect3816"
       inkscape:original-d="M 111.11111,566.12592 C 111.11211,567.35949 111.11211,568.59406 111.11111,569.82963 104.93427,584.03766 98.766432,598.22369 92.592593,612.42222 93.828265,617.97725 95.062728,623.53233 96.296296,629.08889 97.840712,630.01394 99.383716,630.93974 100.92593,631.86666 108.33292,625.07683 115.74174,618.28542 123.14815,611.49629 125.30934,608.10071 127.47014,604.70517 129.62963,601.31111 123.45991,589.58574 117.28495,577.85332 111.11111,566.12592 Z" />
    <path
       style="fill:#000000;stroke:#000000;stroke-width:1px;stroke-linecap:butt;stroke-linejoin:miter;stroke-opacity:1;fill-opacity:1"
       d="M 173.14805,561.49557 C 171.2963,558.10023 171.2963,559.3348 177.9375,565.976 184.5787,572.6172 197.83956,584.64449 219.90776,593.59515 241.97597,602.5458 272.84029,608.41002 295.33155,610.42124 317.82282,612.43245 332.09988,610.57022 336.57474,604.08903 341.04959,597.60784 335.80227,586.49586 330.65822,575.00948 325.51418,563.52311 320.06152,550.69333 323.76511,550.07611 327.46871,549.45888 340.12353,560.57043 356.01852,575.23086 371.91351,589.89128 391.04941,608.10125 395.37094,617.8234 399.69247,627.54555 389.19863,628.78011 370.68027,630.34538 352.1619,631.91065 326.85292,633.71844 300.15462,630.78631 273.45633,627.85419 245.98832,620.13846 226.23479,611.03333 206.48126,601.9282 194.44451,591.43462 186.574,582.17509 178.70348,572.91555 174.9998,564.89091 173.14805,561.49557 Z"
       id="path3818"
       inkscape:connector-curvature="0"
       inkscape:path-effect="#path-effect3820"
       inkscape:original-d="M 171.2963,556.86666 C 171.2973,558.10023 171.2973,559.3348 171.2963,560.57037 184.57965,572.61615 197.84051,584.64344 211.11111,596.68148 241.97619,602.54465 272.84051,608.40887 303.7037,614.27407 317.90187,613.03853 332.09977,610.56937 346.2963,608.71852 341.05079,597.60727 335.80347,586.49529 330.55556,575.38518 325.92711,563.34761 320.06273,550.69282 314.81481,538.34814 327.46964,549.45782 340.12446,560.56937 352.77778,571.68148 371.91448,589.89026 391.05038,608.10023 410.18519,626.31111 399.69237,627.54467 389.19853,628.77924 378.7037,630.01481 352.1587,631.86586 326.85285,633.71752 300.92593,635.57037 273.45666,627.853 245.98865,620.13727 218.51852,612.42222 206.48219,601.92714 194.44544,591.43356 182.40741,580.94074 178.70468,572.915 175.001,564.89035 171.2963,556.86666 Z" />
    <path
       style="fill:#000000;stroke:#000000;stroke-width:1px;stroke-linecap:butt;stroke-linejoin:miter;stroke-opacity:1;fill-opacity:1"
       d="M 360.49424,494.98394 C 369.44535,493.90378 390.74165,495.75563 405.15317,499.69258 419.56469,503.62952 427.46926,509.95318 430.55577,516.27965 433.64228,522.60613 432.09905,529.08772 425.46231,530.01391 418.82556,530.94011 407.09929,526.31132 395.12174,521.09268 383.14419,515.87404 370.67944,509.95329 362.80875,505.0148 354.93807,500.07631 351.54313,496.0641 360.49424,494.98394 Z"
       id="path3822"
       inkscape:connector-curvature="0"
       inkscape:path-effect="#path-effect3824"
       inkscape:original-d="M 348.14815,492.05185 C 369.44544,493.9027 390.74174,495.75455 412.03704,497.6074 419.44513,503.77898 427.47014,509.95208 435.18519,516.12592 433.643,522.6063 432.09977,529.08789 430.55556,535.57037 418.82604,530.9389 407.09977,526.31011 395.37037,521.68148 383.02514,516.12467 370.68001,509.95208 358.33333,504.08889 354.93915,500.0754 351.54421,496.06319 348.14815,492.05185 Z" />
    <path
       style="fill:#000000;stroke:#000000;stroke-width:1px;stroke-linecap:butt;stroke-linejoin:miter;stroke-opacity:1;fill-opacity:1"
       d="M 248.61122,515.66272 C 251.54361,513.65699 259.5683,517.66933 267.599,519.82996 275.62969,521.9906 283.64294,522.2988 286.42059,526.00146 289.19825,529.70412 286.72882,536.80373 284.25945,544.21179 281.79009,551.61986 279.32137,559.3346 274.84544,560.72376 270.36951,562.11292 263.88904,557.17542 259.41353,551.61948 254.93801,546.06353 252.46893,539.89083 250.15422,532.79233 247.8395,525.69382 245.67883,517.66845 248.61122,515.66272 Z"
       id="path3830"
       inkscape:connector-curvature="0"
       inkscape:path-effect="#path-effect3832"
       inkscape:original-d="M 243.51852,509.64444 C 251.54421,513.65579 259.5689,517.66813 267.59259,521.68148 275.61788,522.29773 283.64298,522.29776 291.66667,522.6074 289.19883,529.70432 286.7294,536.80393 284.25926,543.9037 281.79071,551.62006 279.32199,559.3348 276.85185,567.05185 270.37036,562.11181 263.88989,557.17431 257.40741,552.23703 254.93921,546.06305 252.47014,539.89035 250,533.71852 247.84069,525.6935 245.68001,517.66813 243.51852,509.64444 Z" />
  </g>
</svg>
