<?xml version="1.0" encoding="UTF-8" standalone="no"?>
<!-- Created with Inkscape (http://www.inkscape.org/) -->

<svg
   xmlns:dc="http://purl.org/dc/elements/1.1/"
   xmlns:cc="http://creativecommons.org/ns#"
   xmlns:rdf="http://www.w3.org/1999/02/22-rdf-syntax-ns#"
   xmlns:svg="http://www.w3.org/2000/svg"
   xmlns="http://www.w3.org/2000/svg"
   xmlns:sodipodi="http://sodipodi.sourceforge.net/DTD/sodipodi-0.dtd"
   xmlns:inkscape="http://www.inkscape.org/namespaces/inkscape"
   width="513"
   height="513"
   viewBox="0 0 513 513"
   version="1.1"
   id="svg4442"
   inkscape:version="0.92.4 (5da689c313, 2019-01-14)"
   sodipodi:docname="U+6563.svg">
  <defs
     id="defs4436">
    <inkscape:path-effect
       effect="bspline"
       id="path-effect5030"
       is_visible="true"
       weight="33.333333"
       steps="2"
       helper_size="0"
       apply_no_weight="true"
       apply_with_weight="true"
       only_selected="false" />
    <inkscape:path-effect
       effect="bspline"
       id="path-effect5026"
       is_visible="true"
       weight="33.333333"
       steps="2"
       helper_size="0"
       apply_no_weight="true"
       apply_with_weight="true"
       only_selected="false" />
    <inkscape:path-effect
       effect="bspline"
       id="path-effect5022"
       is_visible="true"
       weight="33.333333"
       steps="2"
       helper_size="0"
       apply_no_weight="true"
       apply_with_weight="true"
       only_selected="false" />
    <inkscape:path-effect
       effect="bspline"
       id="path-effect5018"
       is_visible="true"
       weight="33.333333"
       steps="2"
       helper_size="0"
       apply_no_weight="true"
       apply_with_weight="true"
       only_selected="false" />
    <inkscape:path-effect
       effect="bspline"
       id="path-effect5014"
       is_visible="true"
       weight="33.333333"
       steps="2"
       helper_size="0"
       apply_no_weight="true"
       apply_with_weight="true"
       only_selected="false" />
    <inkscape:path-effect
       effect="bspline"
       id="path-effect5010"
       is_visible="true"
       weight="33.333333"
       steps="2"
       helper_size="0"
       apply_no_weight="true"
       apply_with_weight="true"
       only_selected="false" />
  </defs>
  <sodipodi:namedview
     id="base"
     pagecolor="#ffffff"
     bordercolor="#666666"
     borderopacity="1.0"
     inkscape:pageopacity="0.0"
     inkscape:pageshadow="2"
     inkscape:zoom="0.66468037"
     inkscape:cx="655.32925"
     inkscape:cy="508.24885"
     inkscape:document-units="px"
     inkscape:current-layer="layer1"
     showgrid="false"
     units="px"
     inkscape:window-width="1920"
     inkscape:window-height="1001"
     inkscape:window-x="-9"
     inkscape:window-y="-9"
     inkscape:window-maximized="1" />
  <metadata
     id="metadata4439">
    <rdf:RDF>
      <cc:Work
         rdf:about="">
        <dc:format>image/svg+xml</dc:format>
        <dc:type
           rdf:resource="http://purl.org/dc/dcmitype/StillImage" />
        <dc:title></dc:title>
      </cc:Work>
    </rdf:RDF>
  </metadata>
  <g
     inkscape:label="圖層 1"
     inkscape:groupmode="layer"
     id="layer1"
     transform="translate(0,-161.26874)">
    <path
       style="fill:#000000;stroke:#000000;stroke-width:1px;stroke-linecap:butt;stroke-linejoin:miter;stroke-opacity:1;fill-opacity:1"
       d="M 118.51852,240.00948 C 118.51852,240.00948 143.51852,237.69467 154.62963,245.56504 165.74074,253.43541 172.68519,254.82429 175,277.04652 177.31481,299.26874 178.24074,322.87985 179.16667,329.8243 180.09259,336.76874 181.48148,344.63911 179.62963,348.80578 177.77778,352.97244 173.61111,358.528 169.44444,349.7317 165.27778,340.93541 161.57407,327.04652 160.64815,318.25022 159.72222,309.45392 151.85185,288.62059 151.85185,286.30578 151.85185,283.99096 147.22222,265.00948 137.03704,257.60207 126.85185,250.19467 113.42593,244.63911 118.51852,240.00948 Z"
       id="path4998"
       inkscape:connector-curvature="0" />
    <path
       style="fill:#000000;stroke:#000000;stroke-width:1px;stroke-linecap:butt;stroke-linejoin:miter;stroke-opacity:1;fill-opacity:1"
       d="M 98.148148,288.15763 C 98.148148,288.15763 96.759259,297.41689 112.96296,297.41689 129.16667,297.41689 133.7963,296.95392 137.5,296.028 141.2037,295.10207 144.90741,295.10207 149.53704,296.49096 154.16667,297.87985 156.48148,300.19467 146.2963,305.28726 136.11111,310.37985 128.7037,315.47244 127.31481,317.3243 125.92593,319.17615 118.98148,325.65763 111.57407,319.17615 104.16667,312.69467 99.537037,303.89837 98.148148,299.26874 96.759259,294.63911 96.296296,290.93541 98.148148,288.15763 Z"
       id="path5000"
       inkscape:connector-curvature="0" />
    <path
       style="fill:#000000;stroke:#000000;stroke-width:1px;stroke-linecap:butt;stroke-linejoin:miter;stroke-opacity:1;fill-opacity:1"
       d="M 212.96296,205.75022 C 212.96296,205.75022 240.74074,208.528 245.83333,210.84281 250.92593,213.15763 255.55556,219.63911 260.18519,224.7317 264.81481,229.82429 266.66667,233.06504 265.74074,240.93541 264.81481,248.80578 262.03704,253.43541 259.72222,257.60207 257.40741,261.76874 250.92593,270.56504 250.46296,273.34281 250,276.12059 243.51852,282.13911 243.05556,285.37985 242.59259,288.62059 237.96296,291.86133 253.24074,287.69467 268.51852,283.528 276.38889,277.04652 281.01852,277.04652 285.64815,277.04652 296.2963,275.65763 301.85185,277.97244 307.40741,280.28726 309.72222,286.30578 304.16667,288.62059 298.61111,290.93541 290.74074,295.56504 283.7963,296.49096 276.85185,297.41689 265.74074,302.50948 262.03704,302.50948 258.33333,302.50948 243.05556,303.43541 237.03704,307.60207 231.01852,311.76874 225.46296,314.54652 219.44444,324.7317 213.42593,334.91689 208.33333,340.00948 203.24074,343.25022 198.14815,346.49096 190.74074,345.10207 202.31481,329.36133 213.88889,313.62059 214.35185,304.8243 216.2037,302.04652 218.05556,299.26874 231.48148,257.60207 233.33333,252.50948 235.18519,247.41689 235.64815,240.93541 235.18519,235.84281 234.72222,230.75022 233.33333,227.50948 229.16667,221.95392 225,216.39837 205.55556,208.528 212.96296,205.75022 Z"
       id="path5002"
       inkscape:connector-curvature="0" />
    <path
       style="fill:#000000;stroke:#000000;stroke-width:1px;stroke-linecap:butt;stroke-linejoin:miter;stroke-opacity:1;fill-opacity:1"
       d="M 10.648148,375.65763 C 10.648148,375.65763 21.296296,386.30578 39.814815,379.36133 58.333333,372.41689 68.055556,373.34281 80.555556,371.028 93.055556,368.71318 115.74074,364.54652 118.51852,363.62059 121.2963,362.69467 152.77778,357.13911 164.81481,354.8243 176.85185,352.50948 199.53704,352.04652 206.94444,350.19467 214.35185,348.34281 240.74074,348.34281 249.53704,346.49096 258.33333,344.63911 278.7037,338.15763 287.5,339.54652 296.2963,340.93541 305.09259,349.26874 308.33333,352.04652 311.57407,354.8243 305.55556,359.45393 294.44444,359.91689 283.33333,360.37985 260.18519,361.30578 254.16667,361.76874 248.14815,362.2317 204.62963,362.2317 176.85185,366.86133 149.07407,371.49096 103.24074,381.21318 90.277778,385.37985 77.314815,389.54652 65.740741,391.39837 52.777778,397.41689 39.814815,403.43541 42.592593,404.8243 30.092593,397.87985 17.592593,390.93541 0.46296296,378.89837 10.648148,375.65763 Z"
       id="path5004"
       inkscape:connector-curvature="0" />
    <path
       style="fill:#000000;stroke:#000000;stroke-width:1px;stroke-linecap:butt;stroke-linejoin:miter;stroke-opacity:1;fill-opacity:1"
       d="M 150,386.76874 C 150,386.76874 156.01852,393.25022 178.7037,391.86133 201.38889,390.47244 222.22222,394.17615 226.38889,393.71318 230.55556,393.25022 232.40741,393.25022 238.88889,401.12059 245.37037,408.99096 244.44444,409.91689 240.74074,420.56504 237.03704,431.21318 235.64815,444.63911 235.18519,451.58355 234.72222,458.528 231.94444,525.65763 231.94444,530.28726 231.94444,534.91689 232.40741,568.25022 231.94444,573.34281 231.48148,578.43541 224.53704,596.49096 222.22222,599.7317 219.90741,602.97244 213.42593,596.028 209.25926,580.28726 205.09259,564.54652 197.68519,555.28726 197.68519,551.58355 197.68519,547.87985 197.22222,547.87985 209.72222,550.19467 222.22222,552.50948 218.51852,546.49096 218.51852,542.3243 218.51852,538.15763 219.90741,512.2317 218.98148,508.06504 218.05556,503.89837 217.59259,495.56504 201.38889,503.43541 185.18519,511.30578 173.14815,521.49096 168.05556,521.49096 162.96296,521.49096 157.40741,523.80578 155.55556,520.56504 153.7037,517.3243 151.38889,521.49096 150.92593,536.30578 150.46296,551.12059 146.2963,562.2317 143.05556,566.86133 139.81481,571.49096 137.96296,576.58355 132.87037,571.49096 127.77778,566.39837 121.2963,561.30578 121.75926,555.28726 122.22222,549.26874 124.53704,550.19467 127.77778,538.62059 131.01852,527.04652 134.25926,504.8243 135.64815,498.80578 137.03704,492.78726 135.64815,476.12059 136.57407,471.028 137.5,465.93541 138.88889,446.028 139.81481,439.54652 140.74074,433.06504 136.57407,422.41689 134.25926,419.63911 131.94444,416.86133 120.37037,403.43541 129.16667,406.21318 137.96296,408.99096 153.24074,416.86133 156.48148,424.26874 159.72222,431.67615 158.33333,440.47244 158.33333,445.10207 158.33333,449.7317 155.55556,452.97244 159.25926,452.97244 162.96296,452.97244 173.14815,448.80578 180.55556,445.56504 187.96296,442.3243 187.03704,439.08355 195.83333,441.39837 204.62963,443.71318 213.42593,446.49096 200.46296,453.89837 187.5,461.30578 183.33333,464.54652 178.24074,464.54652 173.14815,464.54652 169.90741,467.3243 164.35185,463.62059 158.7963,459.91689 155.55556,457.13911 155.09259,469.63911 154.62963,482.13911 151.85185,504.36133 153.7037,506.21318 155.55556,508.06504 151.85185,513.15763 165.27778,506.21318 178.7037,499.26874 201.85185,485.84281 206.48148,486.30578 211.11111,486.76874 219.44444,490.47244 218.98148,481.67615 218.51852,472.87985 218.98148,445.56504 218.98148,442.3243 218.98148,439.08355 218.05556,420.10207 218.51852,416.39837 218.98148,412.69467 221.75926,405.75022 208.33333,408.06504 194.90741,410.37985 181.01852,414.54652 172.68519,414.54652 164.35185,414.54652 164.81481,408.99096 158.33333,404.36133 151.85185,399.7317 143.51852,388.62059 150,386.76874 Z"
       id="path5006"
       inkscape:connector-curvature="0" />
    <path
       style="fill:#000000;stroke:#000000;stroke-width:1px;stroke-linecap:butt;stroke-linejoin:miter;stroke-opacity:1;fill-opacity:1"
       d="M 347.69558,259.46328 C 351.24159,259.19802 356.73804,261.6803 361.52488,264.96017 366.31172,268.24003 370.39007,272.31839 373.62998,276.24452 376.86988,280.17065 379.43246,284.19756 376.41848,291.99893 373.40451,299.8003 364.89444,311.50165 356.82681,320.72193 348.75919,329.94222 341.13581,336.67916 335.19585,341.37802 329.2559,346.07689 325.00117,348.7361 324.64674,346.25254 324.29231,343.76899 327.83744,336.14697 332.71286,326.13022 337.58827,316.11347 343.79493,303.70016 346.72015,294.30344 349.64537,284.90672 349.29073,278.52312 347.78392,274.26847 346.27711,270.01383 343.61714,267.88586 343.08552,265.31422 342.5539,262.74259 344.14957,259.72853 347.69558,259.46328 Z"
       id="path5008"
       inkscape:connector-curvature="0"
       inkscape:path-effect="#path-effect5010"
       inkscape:original-d="M 345.74468,256.71555 C 351.24213,259.19682 356.73859,261.67909 362.23404,264.16236 366.31272,268.23903 370.39107,272.31739 374.46809,276.3964 376.95135,280.1188 379.43362,284.19682 381.91489,288.09853 373.40469,299.80043 364.89462,311.50178 356.38298,323.20491 348.75913,329.94215 341.13575,336.67909 333.51064,343.41768 329.25573,346.07662 325.001,348.73583 320.74468,351.3964 324.29275,343.76919 327.83788,336.14717 331.38298,328.52406 337.58867,316.11367 343.79533,303.70036 350,291.29002 349.64642,284.90666 349.29178,278.52306 348.93617,272.14108 346.27799,270.01273 343.61802,267.88476 340.95745,265.7581 342.55426,262.74278 344.14994,259.72873 345.74468,256.71555 Z" />
    <path
       style="fill:#000000;stroke:#000000;stroke-width:1px;stroke-linecap:butt;stroke-linejoin:miter;stroke-opacity:1;fill-opacity:1"
       d="M 423.49368,296.60927 C 428.72395,298.20511 437.23459,301.3966 437.50094,308.39914 437.7673,315.40167 429.78807,326.21797 422.6957,333.75382 415.60334,341.28967 409.3983,345.54455 406.02883,345.89881 402.65935,346.25307 402.12753,342.70763 403.72314,336.14828 405.31875,329.58892 409.04302,320.01221 411.17047,312.65444 413.29792,305.29667 413.8299,300.15417 415.07127,297.58379 416.31264,295.01342 418.26341,295.01342 423.49368,296.60927 Z"
       id="path5012"
       inkscape:connector-curvature="0"
       inkscape:path-effect="#path-effect5014"
       inkscape:original-d="M 420.21277,295.01342 C 428.7244,298.20391 437.23504,301.3954 445.74468,304.58789 437.76747,315.4018 429.78823,326.21809 421.80851,337.0347 415.60319,341.28946 409.39816,345.54434 403.19149,349.80065 402.66048,346.2529 402.12866,342.70746 401.59574,339.16236 405.31928,329.58913 409.04355,320.01242 412.76596,310.43895 413.29881,305.29676 413.83079,300.15426 414.3617,295.01342 416.31264,295.01242 418.26341,295.01242 420.21277,295.01342 Z" />
    <path
       style="fill:#000000;stroke:#000000;stroke-width:1px;stroke-linecap:butt;stroke-linejoin:miter;stroke-opacity:1;fill-opacity:1"
       d="M 364.0963,358.57671 C 364.71731,356.71555 365.60384,356.71555 372.06858,357.68969 378.53332,358.66384 390.60366,360.61639 397.34069,363.71872 404.07771,366.82104 405.49625,371.07665 402.21619,373.55922 398.93613,376.04179 390.95853,376.75091 383.59959,375.50971 376.24065,374.26851 369.50398,371.07745 366.31234,367.61924 363.1207,364.16103 363.47528,360.43786 364.0963,358.57671 Z"
       id="path5016"
       inkscape:connector-curvature="0"
       inkscape:path-effect="#path-effect5018"
       inkscape:original-d="M 363.82979,356.71555 C 364.71731,356.71455 365.60384,356.71455 366.48936,356.71555 378.5335,358.6627 390.60384,360.61526 402.65957,362.56661 404.07892,366.82064 405.49745,371.07625 406.91489,375.33257 398.93605,376.04089 390.95845,376.75001 382.97872,377.46023 376.24122,374.26731 369.50455,371.07625 362.76596,367.88576 363.12159,364.16112 363.47618,360.43795 363.82979,356.71555 Z" />
    <path
       style="fill:#000000;stroke:#000000;stroke-width:1px;stroke-linecap:butt;stroke-linejoin:miter;stroke-opacity:1;fill-opacity:1"
       d="M 337.50043,366.11261 C 339.89462,364.16236 347.34143,364.16236 352.39384,366.73274 357.44625,369.30313 360.10618,374.44566 360.37246,379.14399 360.63874,383.84232 358.51124,388.09733 353.80761,394.21171 349.10397,400.3261 341.49031,408.66486 338.38705,413.45267 335.28378,418.24048 336.52476,419.65874 344.85911,418.06274 353.19345,416.46673 368.61821,411.85703 387.94355,406.62679 407.26889,401.39655 430.49763,395.54504 444.41563,393.50624 458.33364,391.46744 462.9438,393.24058 466.66693,394.92487 470.39007,396.60917 473.22728,398.20509 457.53821,402.72571 441.84914,407.24634 407.62527,414.69402 377.21704,423.64799 346.80882,432.60195 320.21398,443.06259 303.63531,445.98833 287.05664,448.91406 280.49665,444.30434 276.77305,440.13718 273.04945,435.97003 272.16295,432.24674 274.29058,430.91729 276.4182,429.58784 281.56104,430.65188 288.29823,430.03124 295.03542,429.4106 303.36998,427.10529 310.63891,422.40685 317.90785,417.7084 324.11441,410.61519 328.91158,402.43121 333.70876,394.24723 337.05718,385.08313 337.41167,378.5236 337.76616,371.96407 335.10624,368.06285 337.50043,366.11261 Z"
       id="path5020"
       inkscape:connector-curvature="0"
       inkscape:path-effect="#path-effect5022"
       inkscape:original-d="M 332.44681,364.16236 C 339.89462,364.16136 347.34143,364.16136 354.78723,364.16236 357.44745,369.30251 360.10738,374.44504 362.76596,379.58789 360.63914,383.84252 358.51164,388.09753 356.38298,392.35385 349.11243,400.33382 341.49036,408.6649 334.04255,416.82193 335.28485,418.23955 336.52582,419.65781 337.76596,421.07725 353.19326,416.46609 368.61802,411.85639 384.04255,407.24746 407.26871,401.39585 430.49745,395.54434 453.7234,389.69427 458.3341,391.46623 462.94426,393.23937 467.55319,395.01342 470.39074,396.60798 473.22795,398.20391 476.06383,399.80065 441.84898,407.24559 407.62511,414.69327 373.40426,422.14108 346.80861,432.60143 320.21377,443.06207 293.61702,453.52406 287.05744,448.91292 280.49745,444.3032 273.93617,439.69427 273.05062,435.96975 272.16412,432.24646 271.2766,428.52406 276.41844,429.58668 281.56128,430.65072 286.70213,431.71555 295.03523,429.40992 303.36979,427.10462 311.70213,424.80065 317.90792,417.70847 324.11448,410.61526 330.31915,403.52406 333.86572,394.30458 337.05774,385.08334 340.42553,375.86448 337.76731,371.96329 335.10738,368.06207 332.44681,364.16236 Z" />
    <path
       style="fill:#000000;stroke:#000000;stroke-width:1px;stroke-linecap:butt;stroke-linejoin:miter;stroke-opacity:1;fill-opacity:1"
       d="M 285.99342,490.22633 C 293.79512,492.17669 307.27029,494.65895 322.87243,500.15519 338.47456,505.65142 356.20609,514.16256 374.82286,523.5596 393.43962,532.95664 412.94363,543.24057 431.20579,554.41064 449.46796,565.5807 466.48955,577.63767 478.81221,586.32558 491.13487,595.0135 498.75907,600.33271 503.72389,603.16958 508.68871,606.00645 510.99374,606.36107 511.61402,602.7272 512.2343,599.09333 511.17009,591.46648 505.94018,583.04543 500.71027,574.62438 491.31207,565.4035 476.86186,555.20855 462.41165,545.01359 442.90812,533.84339 419.50376,523.20502 396.09939,512.56665 368.79488,502.46044 348.93667,495.81146 329.07846,489.16247 316.66737,485.97105 305.40841,484.81845 294.14945,483.66586 284.04363,484.55233 280.05396,485.70501 276.06429,486.8577 278.19172,488.27598 285.99342,490.22633 Z"
       id="path5024"
       inkscape:connector-curvature="0"
       inkscape:path-effect="#path-effect5026"
       inkscape:original-d="M 280.31915,489.69427 C 293.79533,492.17554 307.2705,494.65781 320.74468,497.14108 338.47514,505.65022 356.20667,514.16136 373.93617,522.673 393.44025,532.95544 412.94426,543.23937 432.44681,553.52406 449.46876,565.57957 466.49036,577.63653 483.51064,589.69427 491.13566,595.01236 498.75987,600.33157 506.38298,605.65172 508.68888,606.00532 510.99391,606.35994 513.29787,606.71555 512.23542,599.09317 511.17121,591.46632 510.10638,583.84321 500.71126,574.62337 491.31306,565.40249 481.91489,556.18363 462.41233,545.01241 442.9088,533.84221 423.40426,522.673 396.09984,512.56545 368.79533,502.45923 341.48936,492.35385 329.07876,489.16129 316.66767,485.96987 304.25532,482.77938 294.14937,483.66495 284.04355,484.55143 273.93617,485.43895 276.06506,486.85654 278.19249,488.27483 280.31915,489.69427 Z" />
    <path
       style="fill:#000000;stroke:#000000;stroke-width:1px;stroke-linecap:butt;stroke-linejoin:miter;stroke-opacity:1;fill-opacity:1"
       d="M 241.57884,546.96325 C 243.6179,545.19082 245.21365,545.36813 250.08709,547.22891 254.96052,549.08969 263.12104,552.63774 271.63179,552.90348 280.14253,553.16921 289.00829,550.15486 299.46846,545.19065 309.92863,540.22644 321.987,533.31061 333.33388,524.00249 344.68076,514.69437 355.3201,502.9911 363.74167,491.644 372.16324,480.2969 378.36946,469.30302 382.8018,459.55169 387.23413,449.80037 389.89399,441.28882 391.84429,435.34934 393.7946,429.40986 395.03591,426.04059 397.51735,425.86339 399.99878,425.6862 403.72351,428.70145 405.93972,434.55188 408.15593,440.40231 408.86518,449.09053 407.18089,457.69012 405.49661,466.28971 401.41902,474.79945 393.26227,486.94601 385.10551,499.09256 372.8732,514.87047 361.34812,526.92763 349.82304,538.98479 339.0082,547.31753 328.72406,553.43494 318.43992,559.55235 308.68915,563.45266 297.25206,565.3146 285.81497,567.17653 272.69603,566.99925 261.96851,565.13751 251.241,563.27577 242.90829,559.72994 239.98297,556.0944 237.05765,552.45886 239.53978,548.73567 241.57884,546.96325 Z"
       id="path5028"
       inkscape:connector-curvature="0"
       inkscape:path-effect="#path-effect5030"
       inkscape:original-d="M 242.02128,545.01342 C 243.61802,545.18973 245.21377,545.36703 246.80851,545.54534 254.96105,549.08848 263.12157,552.63653 271.2766,556.18363 280.14233,553.16862 289.00809,550.15426 297.87234,547.14108 309.92844,540.22612 321.98682,533.31029 334.04255,526.3964 344.68081,514.69442 355.32015,502.99114 365.95745,491.29002 372.16357,480.29709 378.36979,469.3032 384.57447,458.31129 387.23476,449.80057 389.89462,441.28902 392.55319,432.77938 393.79515,429.41006 395.03646,426.04079 396.2766,422.673 399.99967,425.6851 403.7244,428.70036 407.44681,431.71555 408.15701,440.40222 408.86625,449.09044 409.57447,457.77938 405.49703,466.28991 401.41944,474.79965 397.34043,483.31129 385.10565,499.09267 372.87334,514.87058 360.6383,530.65172 349.82293,538.98464 339.00809,547.31739 328.19149,555.65172 318.43971,559.55183 308.68894,563.45214 298.93617,567.35385 285.81498,567.17552 272.69604,566.99824 259.57447,566.82193 251.24151,563.27457 242.9088,559.72873 234.57447,556.18363 237.05788,552.45901 239.54001,548.73583 242.02128,545.01342 Z" />
  </g>
</svg>
