<?xml version="1.0" encoding="UTF-8" standalone="no"?>
<!-- Created with Inkscape (http://www.inkscape.org/) -->

<svg
   xmlns:dc="http://purl.org/dc/elements/1.1/"
   xmlns:cc="http://creativecommons.org/ns#"
   xmlns:rdf="http://www.w3.org/1999/02/22-rdf-syntax-ns#"
   xmlns:svg="http://www.w3.org/2000/svg"
   xmlns="http://www.w3.org/2000/svg"
   xmlns:sodipodi="http://sodipodi.sourceforge.net/DTD/sodipodi-0.dtd"
   xmlns:inkscape="http://www.inkscape.org/namespaces/inkscape"
   width="210mm"
   height="297mm"
   viewBox="0 0 210 297"
   version="1.1"
   id="svg5739"
   inkscape:version="0.92.4 (5da689c313, 2019-01-14)"
   sodipodi:docname="U+6B23.svg">
  <defs
     id="defs5733" />
  <sodipodi:namedview
     id="base"
     pagecolor="#ffffff"
     bordercolor="#666666"
     borderopacity="1.0"
     inkscape:pageopacity="0.0"
     inkscape:pageshadow="2"
     inkscape:zoom="1.01"
     inkscape:cx="239.10891"
     inkscape:cy="560"
     inkscape:document-units="mm"
     inkscape:current-layer="layer1"
     showgrid="false"
     inkscape:window-width="1920"
     inkscape:window-height="1017"
     inkscape:window-x="-8"
     inkscape:window-y="-8"
     inkscape:window-maximized="1" />
  <metadata
     id="metadata5736">
    <rdf:RDF>
      <cc:Work
         rdf:about="">
        <dc:format>image/svg+xml</dc:format>
        <dc:type
           rdf:resource="http://purl.org/dc/dcmitype/StillImage" />
        <dc:title></dc:title>
      </cc:Work>
    </rdf:RDF>
  </metadata>
  <g
     inkscape:label="圖層 1"
     inkscape:groupmode="layer"
     id="layer1">
    <path
       style="fill:#000000;stroke:#000000;stroke-width:0.26458332px;stroke-linecap:butt;stroke-linejoin:miter;stroke-opacity:1;fill-opacity:1"
       d="M 71.254124,107.33828 C 71.778052,108.91007 69.682343,115.19719 69.682343,115.19719 L 61.561469,126.46163 57.893976,130.91501 69.158415,123.842 75.707506,115.45916 73.349833,107.86221 69.944307,105.50454 Z"
       id="path5752"
       inkscape:connector-curvature="0" />
    <path
       style="fill:#000000;stroke:#000000;stroke-width:0.26458332px;stroke-linecap:butt;stroke-linejoin:miter;stroke-opacity:1;fill-opacity:1"
       d="M 45.581683,121.22236 C 45.581683,121.22236 55.274339,127.77145 55.274339,135.89232 55.274339,144.0132 56.322195,145.58498 55.536303,151.34818 54.750411,157.11138 47.415428,169.16171 47.415428,169.16171 L 40.342409,176.4967 32.221535,181.99794 C 32.221535,181.99794 31.697607,186.18935 33.007427,185.92739 34.317244,185.66543 36.936881,184.87954 39.556518,184.35561 42.176154,183.83168 50.297029,171.25742 50.297029,171.25742 L 56.584159,157.37335 57.893976,144.0132 57.632012,136.15429 51.86881,120.1745 47.153464,118.86469 Z"
       id="path5754"
       inkscape:connector-curvature="0" />
    <path
       style="fill:#000000;stroke:#000000;stroke-width:0.26458332px;stroke-linecap:butt;stroke-linejoin:miter;stroke-opacity:1;fill-opacity:1"
       d="M 50.035065,141.91749 81.470708,135.63036 86.971946,138.51196 C 86.971946,138.51196 66.538778,144.0132 65.490923,144.53713 64.443069,145.06105 52.130774,146.10891 52.130774,146.10891 Z"
       id="path5756"
       inkscape:connector-curvature="0" />
    <path
       style="fill:#000000;stroke:#000000;stroke-width:0.26458332px;stroke-linecap:butt;stroke-linejoin:miter;stroke-opacity:1;fill-opacity:1"
       d="M 63.395214,148.99051 C 63.395214,148.99051 68.896451,151.08622 68.896451,153.70586 68.896451,156.32549 68.896451,160.77888 68.634487,163.13655 68.372523,165.49422 66.276814,175.44884 66.276814,175.44884 66.276814,175.44884 69.944307,185.40346 70.99216,183.04579 72.040016,180.68812 73.873761,172.04332 73.873761,172.04332 L 72.040016,149.25247 66.538778,146.10891 63.395214,146.63284 Z"
       id="path5758"
       inkscape:connector-curvature="0" />
    <path
       style="fill:#000000;stroke:#000000;stroke-width:0.26458332px;stroke-linecap:butt;stroke-linejoin:miter;stroke-opacity:1;fill-opacity:1"
       d="M 98.498349,107.86221 C 98.498349,107.86221 103.47566,112.05363 102.68977,114.93523 101.90388,117.81683 98.760313,127.50949 98.760313,127.50949 L 88.281766,146.8948 82.518564,155.01567 C 82.518564,155.01567 86.186054,155.80157 87.23391,154.49175 88.281766,153.18193 95.09282,142.44142 95.09282,142.44142 L 102.95173,127.24752 108.45297,116.24505 105.57137,111.5297 101.90388,109.17203 Z"
       id="path5760"
       inkscape:connector-curvature="0" />
    <path
       style="fill:#000000;stroke:#000000;stroke-width:0.26458332px;stroke-linecap:butt;stroke-linejoin:miter;stroke-opacity:1;fill-opacity:1"
       d="M 108.45297,129.86716 112.90635,132.74876 124.95668,130.65305 133.86345,129.86716 127.31436,136.94018 113.16831,145.06105 119.45544,144.79909 136.48308,136.67822 144.86592,132.4868 145.65181,130.39109 137.7929,124.62789 132.55363,126.19967 Z"
       id="path5762"
       inkscape:connector-curvature="0" />
    <path
       style="fill:#000000;stroke:#000000;stroke-width:0.26458332px;stroke-linecap:butt;stroke-linejoin:miter;stroke-opacity:1;fill-opacity:1"
       d="M 102.16584,141.91749 C 102.16584,141.91749 113.16831,142.70338 109.23886,150.82426 105.3094,158.94513 101.37995,167.85189 101.37995,167.85189 L 92.473184,179.90223 84.876237,181.47401 H 82.518564 L 84.352309,186.97524 90.115511,187.76114 C 90.115511,187.76114 102.16584,180.42615 103.47566,174.92492 104.78548,169.42368 110.02475,160.25495 110.02475,160.25495 L 112.90635,151.34818 C 112.90635,151.34818 112.90635,142.17945 108.45297,140.60767 103.99959,139.03589 102.16584,139.03589 102.16584,139.03589 Z"
       id="path5764"
       inkscape:connector-curvature="0" />
    <path
       style="fill:#000000;stroke:#000000;stroke-width:0.26458332px;stroke-linecap:butt;stroke-linejoin:miter;stroke-opacity:1;fill-opacity:1"
       d="M 113.16831,165.75619 C 116.04992,168.63779 120.5033,171.51939 122.86097,172.56724 125.21865,173.6151 143.81807,186.71328 143.81807,186.71328 L 149.31931,190.38077 152.9868,187.23721 143.29414,178.33044 132.81559,172.8292 Z"
       id="path5766"
       inkscape:connector-curvature="0" />
  </g>
</svg>
