<?xml version="1.0" encoding="UTF-8" standalone="no"?>
<!-- Created with Inkscape (http://www.inkscape.org/) -->

<svg
   xmlns:dc="http://purl.org/dc/elements/1.1/"
   xmlns:cc="http://creativecommons.org/ns#"
   xmlns:rdf="http://www.w3.org/1999/02/22-rdf-syntax-ns#"
   xmlns:svg="http://www.w3.org/2000/svg"
   xmlns="http://www.w3.org/2000/svg"
   xmlns:sodipodi="http://sodipodi.sourceforge.net/DTD/sodipodi-0.dtd"
   xmlns:inkscape="http://www.inkscape.org/namespaces/inkscape"
   width="210mm"
   height="297mm"
   viewBox="0 0 210 297"
   version="1.1"
   id="svg6906"
   inkscape:version="0.92.4 (5da689c313, 2019-01-14)"
   sodipodi:docname="U+6C88.svg">
  <defs
     id="defs6900" />
  <sodipodi:namedview
     id="base"
     pagecolor="#ffffff"
     bordercolor="#666666"
     borderopacity="1.0"
     inkscape:pageopacity="0.0"
     inkscape:pageshadow="2"
     inkscape:zoom="0.94"
     inkscape:cx="227.12766"
     inkscape:cy="560"
     inkscape:document-units="mm"
     inkscape:current-layer="layer1"
     showgrid="false"
     inkscape:window-width="1920"
     inkscape:window-height="1017"
     inkscape:window-x="-8"
     inkscape:window-y="-8"
     inkscape:window-maximized="1" />
  <metadata
     id="metadata6903">
    <rdf:RDF>
      <cc:Work
         rdf:about="">
        <dc:format>image/svg+xml</dc:format>
        <dc:type
           rdf:resource="http://purl.org/dc/dcmitype/StillImage" />
        <dc:title></dc:title>
      </cc:Work>
    </rdf:RDF>
  </metadata>
  <g
     inkscape:label="圖層 1"
     inkscape:groupmode="layer"
     id="layer1">
    <path
       style="fill:#000000;stroke:#000000;stroke-width:0.26458332px;stroke-linecap:butt;stroke-linejoin:miter;stroke-opacity:1;fill-opacity:1"
       d="M 55.449911,115.73227 59.390515,122.20612 64.457002,123.89495 65.864361,121.08023 61.642286,116.57668 56.294326,112.63608 Z"
       id="path6919"
       inkscape:connector-curvature="0" />
    <path
       style="fill:#000000;stroke:#000000;stroke-width:0.26458332px;stroke-linecap:butt;stroke-linejoin:miter;stroke-opacity:1;fill-opacity:1"
       d="M 45.316933,140.78324 C 45.316933,140.78324 49.820477,145.00532 49.820477,149.50886 49.820477,154.01241 49.820477,158.51596 49.820477,158.51596 L 54.042553,153.44947 55.168439,150.63475 54.042553,147.53856 50.383421,143.59796 Z"
       id="path6921"
       inkscape:connector-curvature="0" />
    <path
       style="fill:#000000;stroke:#000000;stroke-width:0.26458332px;stroke-linecap:butt;stroke-linejoin:miter;stroke-opacity:1;fill-opacity:1"
       d="M 64.175531,158.51596 52.916666,177.09308 C 52.916666,177.09308 51.227836,181.8781 46.724289,178.50044 42.220745,175.12278 42.783688,183.28546 42.783688,183.28546 L 43.06516,187.22606 50.101949,190.32225 53.761081,197.07757 57.138741,198.48493 58.264628,190.60372 59.109043,177.37456 62.768172,168.36746 Z"
       id="path6923"
       inkscape:connector-curvature="0" />
    <path
       style="fill:#000000;stroke:#000000;stroke-width:0.26458332px;stroke-linecap:butt;stroke-linejoin:miter;stroke-opacity:1;fill-opacity:1"
       d="M 87.256204,118.26551 C 87.256204,118.26551 90.915335,126.70966 89.226505,133.18351 87.537675,139.65736 86.130317,146.1312 86.130317,146.1312 L 83.034131,145.56826 83.597074,150.07181 85.848848,149.22739 92.885637,135.71675 95.700354,127.2726 90.915335,119.10993 Z"
       id="path6925"
       inkscape:connector-curvature="0" />
    <path
       style="fill:#000000;stroke:#000000;stroke-width:0.26458332px;stroke-linecap:butt;stroke-linejoin:miter;stroke-opacity:1;fill-opacity:1"
       d="M 99.922427,132.33909 133.13608,125.86525 C 133.13608,125.86525 135.10638,117.98404 141.8617,125.02083 148.61702,132.05762 129.75842,141.06471 129.75842,141.06471 L 132.85461,133.18351 130.03989,128.96143 101.04831,137.12411 Z"
       id="path6927"
       inkscape:connector-curvature="0" />
    <path
       style="fill:#000000;stroke:#000000;stroke-width:0.26458332px;stroke-linecap:butt;stroke-linejoin:miter;stroke-opacity:1;fill-opacity:1"
       d="M 108.08511,117.13963 C 108.08511,117.13963 108.64805,124.45789 110.33688,125.86525 112.02571,127.2726 114.27748,136.84264 114.27748,136.84264 L 101.89273,160.48626 85.285904,181.31516 74.871452,186.66312 H 79.937942 C 79.937942,186.66312 94.855939,178.78191 95.700354,176.81161 96.544769,174.84131 108.64805,155.98271 108.64805,155.98271 L 119.90691,134.59087 113.15159,124.45789 110.61835,114.32491 Z"
       id="path6929"
       inkscape:connector-curvature="0" />
    <path
       style="fill:#000000;stroke:#000000;stroke-width:0.26458332px;stroke-linecap:butt;stroke-linejoin:miter;stroke-opacity:1;fill-opacity:1"
       d="M 118.78103,149.22739 C 118.78103,149.22739 109.21099,164.42686 112.02571,177.09308 114.84042,189.75931 127.22517,192.01108 127.22517,192.01108 L 168.32003,190.04078 171.41622,186.66312 164.37943,173.43395 159.03147,183.28546 125.81782,187.22606 C 125.81782,187.22606 114.27748,187.22606 115.40337,169.77482 116.52925,152.32358 123.56605,155.98271 123.56605,155.98271 L 122.15869,150.63475 Z"
       id="path6931"
       inkscape:connector-curvature="0" />
  </g>
</svg>
