<?xml version="1.0" encoding="UTF-8" standalone="no"?>
<!-- Created with Inkscape (http://www.inkscape.org/) -->

<svg
   xmlns:dc="http://purl.org/dc/elements/1.1/"
   xmlns:cc="http://creativecommons.org/ns#"
   xmlns:rdf="http://www.w3.org/1999/02/22-rdf-syntax-ns#"
   xmlns:svg="http://www.w3.org/2000/svg"
   xmlns="http://www.w3.org/2000/svg"
   xmlns:sodipodi="http://sodipodi.sourceforge.net/DTD/sodipodi-0.dtd"
   xmlns:inkscape="http://www.inkscape.org/namespaces/inkscape"
   width="210mm"
   height="297mm"
   viewBox="0 0 210 297"
   version="1.1"
   id="svg6328"
   inkscape:version="0.92.4 (5da689c313, 2019-01-14)"
   sodipodi:docname="U+6C42.svg">
  <defs
     id="defs6322" />
  <sodipodi:namedview
     id="base"
     pagecolor="#ffffff"
     bordercolor="#666666"
     borderopacity="1.0"
     inkscape:pageopacity="0.0"
     inkscape:pageshadow="2"
     inkscape:zoom="1.08"
     inkscape:cx="249.53704"
     inkscape:cy="560"
     inkscape:document-units="mm"
     inkscape:current-layer="layer1"
     showgrid="false"
     inkscape:window-width="1920"
     inkscape:window-height="1017"
     inkscape:window-x="-8"
     inkscape:window-y="-8"
     inkscape:window-maximized="1" />
  <metadata
     id="metadata6325">
    <rdf:RDF>
      <cc:Work
         rdf:about="">
        <dc:format>image/svg+xml</dc:format>
        <dc:type
           rdf:resource="http://purl.org/dc/dcmitype/StillImage" />
        <dc:title></dc:title>
      </cc:Work>
    </rdf:RDF>
  </metadata>
  <g
     inkscape:label="圖層 1"
     inkscape:groupmode="layer"
     id="layer1">
    <path
       style="fill:#000000;stroke:#000000;stroke-width:0.26458332px;stroke-linecap:butt;stroke-linejoin:miter;stroke-opacity:1;fill-opacity:1"
       d="M 94.319057,114.97646 93.584103,135.80015 94.074074,157.11381 94.564043,179.89737 93.584103,197.29128 81.824845,198.27122 85.989582,202.43595 91.869211,212.48032 98.238811,210.27546 96.523917,164.70833 97.258872,129.92052 98.973763,116.20139 101.91358,112.28164 94.564043,106.64699 92.114197,106.402 90.889274,108.1169 91.624228,110.56674 93.094134,111.54668 Z"
       id="path6341"
       inkscape:connector-curvature="0" />
    <path
       style="fill:#000000;stroke:#000000;stroke-width:0.26458332px;stroke-linecap:butt;stroke-linejoin:miter;stroke-opacity:1;fill-opacity:1"
       d="M 125.4321,122.326 140.13117,132.61535 142.826,130.90046 C 142.826,130.90046 140.86613,125.5108 135.96643,123.55092 131.06674,121.59105 129.10686,121.10108 129.10686,121.10108 Z"
       id="path6343"
       inkscape:connector-curvature="0" />
    <path
       style="fill:#000000;stroke:#000000;stroke-width:0.26458332px;stroke-linecap:butt;stroke-linejoin:miter;stroke-opacity:1;fill-opacity:1"
       d="M 74.475307,144.37461 79.374999,147.8044 84.519674,147.55941 111.95795,137.51505 122.00231,135.80015 120.28742,133.35031 114.16281,130.90046 109.75308,134.08526 Z"
       id="path6345"
       inkscape:connector-curvature="0" />
    <path
       style="fill:#000000;stroke:#000000;stroke-width:0.26458332px;stroke-linecap:butt;stroke-linejoin:miter;stroke-opacity:1;fill-opacity:1"
       d="M 66.145832,161.76852 C 66.145832,161.76852 69.820601,166.66821 73.740353,167.40316 77.660107,168.13812 82.314813,164.21836 82.314813,164.21836 L 79.619985,160.78858 Z"
       id="path6347"
       inkscape:connector-curvature="0" />
    <path
       style="fill:#000000;stroke:#000000;stroke-width:0.26458332px;stroke-linecap:butt;stroke-linejoin:miter;stroke-opacity:1;fill-opacity:1"
       d="M 120.28742,149.76427 C 120.28742,149.76427 119.55247,153.68403 117.10262,156.13387 114.65278,158.58372 104.60841,166.66821 104.60841,166.66821 L 93.094134,172.05787 88.439428,172.79282 83.784722,171.81288 85.254628,175.48765 90.399305,176.46759 98.483794,174.26273 106.81327,168.62808 121.51234,155.88889 124.94213,153.92901 123.96219,150.49923 121.26736,149.51929 Z"
       id="path6349"
       inkscape:connector-curvature="0" />
    <path
       style="fill:none;stroke:#000000;stroke-width:0.26458332px;stroke-linecap:butt;stroke-linejoin:miter;stroke-opacity:1"
       d="M 93.094134,172.05787 Z"
       id="path6351"
       inkscape:connector-curvature="0" />
    <path
       style="fill:#000000;stroke:#000000;stroke-width:0.26458332px;stroke-linecap:butt;stroke-linejoin:miter;stroke-opacity:1;fill-opacity:1"
       d="M 88.439428,167.40316 111.46798,174.26273 C 111.46798,174.26273 126.902,181.61227 128.37191,182.34722 129.84182,183.08217 142.33603,192.39159 142.33603,192.39159 L 153.11535,197.29128 154.83025,195.82137 152.3804,192.88156 C 152.3804,192.88156 144.05092,184.06211 142.826,184.06211 141.60108,184.06211 120.28742,174.26273 120.28742,174.26273 L 98.483794,166.66821 Z"
       id="path6353"
       inkscape:connector-curvature="0" />
    <path
       style="fill:#000000;stroke:#000000;stroke-width:0.26458332px;stroke-linecap:butt;stroke-linejoin:miter;stroke-opacity:1;fill-opacity:1"
       d="M 59.531249,187.00193 C 61.001158,187.00193 62.471064,187.00193 62.471064,187.00193 L 69.575616,183.57214 79.864968,178.42747 C 79.864968,178.42747 88.194442,173.52778 80.354936,182.59221 72.51543,191.65663 68.350693,194.35146 68.350693,194.35146 68.350693,194.35146 68.595678,195.3314 66.390818,194.84143 64.185955,194.35146 59.286264,190.18673 59.286264,190.18673 Z"
       id="path6355"
       inkscape:connector-curvature="0" />
  </g>
</svg>
