<?xml version="1.0" encoding="UTF-8" standalone="no"?>
<!-- Created with Inkscape (http://www.inkscape.org/) -->

<svg
   xmlns:dc="http://purl.org/dc/elements/1.1/"
   xmlns:cc="http://creativecommons.org/ns#"
   xmlns:rdf="http://www.w3.org/1999/02/22-rdf-syntax-ns#"
   xmlns:svg="http://www.w3.org/2000/svg"
   xmlns="http://www.w3.org/2000/svg"
   xmlns:sodipodi="http://sodipodi.sourceforge.net/DTD/sodipodi-0.dtd"
   xmlns:inkscape="http://www.inkscape.org/namespaces/inkscape"
   width="210mm"
   height="297mm"
   viewBox="0 0 210 297"
   version="1.1"
   id="svg7490"
   inkscape:version="0.92.4 (5da689c313, 2019-01-14)"
   sodipodi:docname="U+7D2F.svg">
  <defs
     id="defs7484" />
  <sodipodi:namedview
     id="base"
     pagecolor="#ffffff"
     bordercolor="#666666"
     borderopacity="1.0"
     inkscape:pageopacity="0.0"
     inkscape:pageshadow="2"
     inkscape:zoom="1.0074671"
     inkscape:cx="238.7044"
     inkscape:cy="560"
     inkscape:document-units="mm"
     inkscape:current-layer="layer1"
     showgrid="false"
     inkscape:window-width="1920"
     inkscape:window-height="1017"
     inkscape:window-x="-8"
     inkscape:window-y="-8"
     inkscape:window-maximized="1" />
  <metadata
     id="metadata7487">
    <rdf:RDF>
      <cc:Work
         rdf:about="">
        <dc:format>image/svg+xml</dc:format>
        <dc:type
           rdf:resource="http://purl.org/dc/dcmitype/StillImage" />
        <dc:title></dc:title>
      </cc:Work>
    </rdf:RDF>
  </metadata>
  <g
     inkscape:label="圖層 1"
     inkscape:groupmode="layer"
     id="layer1">
    <path
       style="fill:#000000;stroke:#000000;stroke-width:0.26458332px;stroke-linecap:butt;stroke-linejoin:miter;stroke-opacity:1;fill-opacity:1"
       d="M 61.453622,91.366722 64.867712,99.508015 67.493935,100.03326 70.645403,106.86144 75.109982,120.25518 76.16047,125.77025 80.099807,124.45714 C 80.099807,124.45714 75.89785,115.00273 75.89785,112.37651 75.89785,109.75029 72.746382,100.5585 72.746382,100.5585 L 69.332292,97.144415 63.029356,91.629345 Z"
       id="path7503"
       inkscape:connector-curvature="0" />
    <path
       style="fill:#000000;stroke:#000000;stroke-width:0.26458332px;stroke-linecap:butt;stroke-linejoin:miter;stroke-opacity:1;fill-opacity:1"
       d="M 71.433268,89.790991 C 72.483759,89.790991 98.220746,86.3769 98.220746,86.3769 L 121.33151,85.589032 127.1092,89.265746 127.63445,92.154591 120.80626,97.407038 C 120.80626,97.407038 116.34168,103.44735 115.81644,108.17455 115.2912,112.90175 114.50333,122.35616 114.50333,122.35616 L 112.40235,124.19451 108.46302,120.78042 103.47319,117.62895 69.069669,126.29549 65.655578,123.14402 75.109982,120.25518 99.271234,115.00273 108.72564,116.31584 118.96791,90.053611 C 118.96791,90.053611 115.2912,88.7405 112.92759,89.003123 110.56399,89.265746 77.473584,94.51819 77.473584,94.51819 L 74.322116,93.205079 72.746382,90.578857 Z"
       id="path7505"
       inkscape:connector-curvature="0" />
    <path
       style="fill:#000000;stroke:#000000;stroke-width:0.26458332px;stroke-linecap:butt;stroke-linejoin:miter;stroke-opacity:1;fill-opacity:1"
       d="M 88.241099,93.205079 C 88.241099,94.51819 91.129944,115.26535 91.129944,115.26535 L 92.968298,116.31584 98.220746,96.61917 Z"
       id="path7507"
       inkscape:connector-curvature="0" />
    <path
       style="fill:#000000;stroke:#000000;stroke-width:0.26458332px;stroke-linecap:butt;stroke-linejoin:miter;stroke-opacity:1;fill-opacity:1"
       d="M 79.574561,105.02309 C 83.251274,105.02309 103.21057,100.29588 103.21057,100.29588 L 106.62466,101.34637 102.4227,104.23522 81.67554,108.43717 Z"
       id="path7509"
       inkscape:connector-curvature="0" />
    <path
       style="fill:#000000;stroke:#000000;stroke-width:0.26458332px;stroke-linecap:butt;stroke-linejoin:miter;stroke-opacity:1;fill-opacity:1"
       d="M 85.877497,122.61878 78.26145,136.27514 92.705678,125.245 Z"
       id="path7511"
       inkscape:connector-curvature="0" />
    <path
       style="fill:#000000;stroke:#000000;stroke-width:0.26458332px;stroke-linecap:butt;stroke-linejoin:miter;stroke-opacity:1;fill-opacity:1"
       d="M 66.443446,138.90136 C 66.180824,140.4771 65.392955,142.57807 66.706069,142.8407 68.01918,143.10332 77.473584,141.79021 77.473584,141.79021 L 90.604699,138.63874 77.998827,147.5679 82.463406,148.61839 108.46302,130.49745 106.36204,126.82074 103.73581,125.77025 97.170257,133.91154 C 97.170257,133.91154 78.26145,136.27514 78.26145,136.27514 Z"
       id="path7513"
       inkscape:connector-curvature="0" />
    <path
       style="fill:#000000;stroke:#000000;stroke-width:0.26458332px;stroke-linecap:butt;stroke-linejoin:miter;stroke-opacity:1;fill-opacity:1"
       d="M 62.50411,150.98199 C 62.50411,150.98199 63.291978,157.54755 65.918201,157.54755 68.544423,157.54755 90.867321,152.2951 92.968298,152.03248 95.069278,151.76986 111.35186,147.83052 111.35186,147.83052 L 116.07906,150.19412 120.80626,149.66888 116.86693,144.15381 105.83679,139.16398 101.10959,137.85087 107.67515,145.2043 68.807046,150.98199 Z"
       id="path7515"
       inkscape:connector-curvature="0" />
    <path
       style="fill:#000000;stroke:#000000;stroke-width:0.26458332px;stroke-linecap:butt;stroke-linejoin:miter;stroke-opacity:1;fill-opacity:1"
       d="M 68.281803,164.37573 61.453622,174.35537 64.342467,178.29471 69.594914,178.03209 Z"
       id="path7517"
       inkscape:connector-curvature="0" />
    <path
       style="fill:#000000;stroke:#000000;stroke-width:0.26458332px;stroke-linecap:butt;stroke-linejoin:miter;stroke-opacity:1;fill-opacity:1"
       d="M 89.55421,153.87084 C 89.55421,153.87084 91.655187,159.12328 91.655187,162.53737 91.655187,165.95146 91.129944,181.7088 91.129944,181.7088 L 93.493544,188.01174 95.331901,186.17338 96.645012,159.91115 95.594523,155.44657 Z"
       id="path7519"
       inkscape:connector-curvature="0" />
    <path
       style="fill:#000000;stroke:#000000;stroke-width:0.26458332px;stroke-linecap:butt;stroke-linejoin:miter;stroke-opacity:1;fill-opacity:1"
       d="M 111.61448,157.54755 117.12955,164.37573 124.22035,175.66849 128.68493,174.88062 129.21018,168.84031 123.16987,161.74951 Z"
       id="path7521"
       inkscape:connector-curvature="0" />
    <path
       style="fill:none;stroke:#000000;stroke-width:0.26458332px;stroke-linecap:butt;stroke-linejoin:miter;stroke-opacity:1"
       d="M 325.65168,41.99373 C 322.23757,44.619952 244.23875,73.508406 244.23875,73.508406"
       id="path8066"
       inkscape:connector-curvature="0" />
  </g>
</svg>
