<?xml version="1.0" encoding="UTF-8" standalone="no"?>
<!-- Created with Inkscape (http://www.inkscape.org/) -->

<svg
   xmlns:dc="http://purl.org/dc/elements/1.1/"
   xmlns:cc="http://creativecommons.org/ns#"
   xmlns:rdf="http://www.w3.org/1999/02/22-rdf-syntax-ns#"
   xmlns:svg="http://www.w3.org/2000/svg"
   xmlns="http://www.w3.org/2000/svg"
   xmlns:sodipodi="http://sodipodi.sourceforge.net/DTD/sodipodi-0.dtd"
   xmlns:inkscape="http://www.inkscape.org/namespaces/inkscape"
   width="513"
   height="513"
   viewBox="0 0 513 513"
   version="1.1"
   id="svg5038"
   inkscape:version="0.92.4 (5da689c313, 2019-01-14)"
   sodipodi:docname="U+8655.svg">
  <defs
     id="defs5032">
    <inkscape:path-effect
       effect="bspline"
       id="path-effect5628"
       is_visible="true"
       weight="33.333333"
       steps="2"
       helper_size="0"
       apply_no_weight="true"
       apply_with_weight="true"
       only_selected="false" />
    <inkscape:path-effect
       effect="bspline"
       id="path-effect5624"
       is_visible="true"
       weight="33.333333"
       steps="2"
       helper_size="0"
       apply_no_weight="true"
       apply_with_weight="true"
       only_selected="false" />
    <inkscape:path-effect
       effect="bspline"
       id="path-effect5620"
       is_visible="true"
       weight="33.333333"
       steps="2"
       helper_size="0"
       apply_no_weight="true"
       apply_with_weight="true"
       only_selected="false" />
    <inkscape:path-effect
       effect="bspline"
       id="path-effect5616"
       is_visible="true"
       weight="33.333333"
       steps="2"
       helper_size="0"
       apply_no_weight="true"
       apply_with_weight="true"
       only_selected="false" />
    <inkscape:path-effect
       effect="bspline"
       id="path-effect5612"
       is_visible="true"
       weight="33.333333"
       steps="2"
       helper_size="0"
       apply_no_weight="true"
       apply_with_weight="true"
       only_selected="false" />
    <inkscape:path-effect
       effect="bspline"
       id="path-effect5608"
       is_visible="true"
       weight="33.333333"
       steps="2"
       helper_size="0"
       apply_no_weight="true"
       apply_with_weight="true"
       only_selected="false" />
    <inkscape:path-effect
       effect="bspline"
       id="path-effect5604"
       is_visible="true"
       weight="33.333333"
       steps="2"
       helper_size="0"
       apply_no_weight="true"
       apply_with_weight="true"
       only_selected="false" />
    <inkscape:path-effect
       effect="bspline"
       id="path-effect5600"
       is_visible="true"
       weight="33.333333"
       steps="2"
       helper_size="0"
       apply_no_weight="true"
       apply_with_weight="true"
       only_selected="false" />
    <inkscape:path-effect
       effect="bspline"
       id="path-effect5596"
       is_visible="true"
       weight="33.333333"
       steps="2"
       helper_size="0"
       apply_no_weight="true"
       apply_with_weight="true"
       only_selected="false" />
  </defs>
  <sodipodi:namedview
     id="base"
     pagecolor="#ffffff"
     bordercolor="#666666"
     borderopacity="1.0"
     inkscape:pageopacity="0.0"
     inkscape:pageshadow="2"
     inkscape:zoom="1.0823183"
     inkscape:cx="232.92049"
     inkscape:cy="256.5"
     inkscape:document-units="px"
     inkscape:current-layer="layer1"
     showgrid="false"
     units="px"
     inkscape:window-width="1920"
     inkscape:window-height="1001"
     inkscape:window-x="-9"
     inkscape:window-y="-9"
     inkscape:window-maximized="1" />
  <metadata
     id="metadata5035">
    <rdf:RDF>
      <cc:Work
         rdf:about="">
        <dc:format>image/svg+xml</dc:format>
        <dc:type
           rdf:resource="http://purl.org/dc/dcmitype/StillImage" />
        <dc:title></dc:title>
      </cc:Work>
    </rdf:RDF>
  </metadata>
  <g
     inkscape:label="圖層 1"
     inkscape:groupmode="layer"
     id="layer1"
     transform="translate(0,-161.26874)">
    <path
       style="fill:#000000;stroke:#000000;stroke-width:1px;stroke-linecap:butt;stroke-linejoin:miter;stroke-opacity:1;fill-opacity:1"
       d="M 202.4759,190.93474 C 216.50279,186.14972 243.89553,181.19923 263.86228,177.40388 283.82902,173.60854 296.3708,170.96817 303.30076,170.803 310.23071,170.63784 311.55097,172.94829 308.39141,175.69511 305.23185,178.44194 297.03091,181.859 277.55659,187.96537 258.08227,194.07174 227.0639,202.98127 210.06661,206.28178 193.06933,209.58229 190.09915,207.27215 188.94406,203.80608 187.78897,200.34001 188.449,195.71976 202.4759,190.93474 Z"
       id="path5594"
       inkscape:connector-curvature="0"
       inkscape:path-effect="#path-effect5596"
       inkscape:original-d="M 189.10891,191.10042 C 216.50265,186.14893 243.89539,181.19843 271.28713,176.24894 283.82886,173.60778 296.37064,170.96741 308.91089,168.32815 310.2319,170.63716 311.55216,172.94761 312.87129,175.25884 305.28047,178.55863 297.0307,181.8585 289.10891,185.15983 258.08208,194.07108 227.06371,202.98061 196.0396,211.8925 193.07019,209.58118 190.10001,207.27104 187.12871,204.96181 187.78981,200.34013 188.44984,195.71988 189.10891,191.10042 Z" />
    <path
       style="fill:#000000;stroke:#000000;stroke-width:1px;stroke-linecap:butt;stroke-linejoin:miter;stroke-opacity:1;fill-opacity:1"
       d="M 105.2805,217.50226 C 107.26053,218.8227 110.56085,226.74349 114.35678,231.36434 118.15271,235.98519 122.44287,237.30524 126.07265,239.78007 129.70244,242.25489 132.67318,245.88579 134.32338,255.62157 135.97358,265.35734 136.30361,281.19845 135.47857,294.8951 134.65354,308.59175 132.67346,320.14219 130.3635,327.2381 128.05355,334.334 125.41354,336.97401 123.10233,335.8182 120.79112,334.66238 118.81167,329.71376 118.64686,324.59819 118.48205,319.48261 120.13239,314.20154 122.11224,304.96213 124.09209,295.72273 126.40284,282.51843 124.91773,271.46312 123.43262,260.40782 118.15164,251.49616 113.69627,244.40058 109.2409,237.30501 105.61042,232.02431 104.1254,226.74343 102.64038,221.46256 103.30047,216.18182 105.2805,217.50226 Z"
       id="path5598"
       inkscape:connector-curvature="0"
       inkscape:path-effect="#path-effect5600"
       inkscape:original-d="M 103.9604,210.9024 C 107.26173,218.8222 110.56206,226.74299 113.86139,234.66478 118.15308,235.98399 122.44324,237.30404 126.73267,238.62518 129.70353,242.254 132.67427,245.8849 135.64356,249.51626 135.97461,265.35732 136.30463,281.19843 136.63366,297.04102 134.65434,308.59189 132.67427,320.14233 130.69307,331.69448 128.05355,334.33401 125.41354,336.97401 122.77228,339.61527 120.79233,334.6619 118.81288,329.71328 116.83168,324.76379 118.48268,319.48281 120.13301,314.20173 121.78218,308.92221 124.09289,295.72287 126.40364,282.51857 128.71287,269.31824 123.4338,260.40712 118.15282,251.49546 112.87129,242.58557 109.24205,237.30422 105.61156,232.02352 101.9802,226.74399 102.64124,221.46267 103.30133,216.18193 103.9604,210.9024 Z" />
    <path
       style="fill:#000000;stroke:#000000;stroke-width:1px;stroke-linecap:butt;stroke-linejoin:miter;stroke-opacity:1;fill-opacity:1"
       d="M 163.5321,253.64097 C 187.12986,246.2157 232.67443,236.97478 273.103,229.87917 313.53158,222.78356 348.846,217.83294 369.80303,213.70736 390.76007,209.58178 397.36094,206.28134 403.63043,207.60123 409.89992,208.92113 415.84158,214.86279 421.62626,220.96017 427.41093,227.05755 433.66332,234.00466 435.23148,238.70717 436.79965,243.40968 433.66436,246.54496 428.38258,248.19566 423.10079,249.84636 415.51259,250.17628 409.57166,252.65135 403.63073,255.12642 399.34089,259.74625 394.88505,263.04706 390.42922,266.34787 385.80978,268.32763 385.97515,264.53066 386.14052,260.73369 391.08973,251.16523 393.23462,243.57499 395.37952,235.98474 394.71937,230.37348 389.60522,228.39349 384.49107,226.41351 374.91863,228.06393 341.58189,232.8499 308.24515,237.63587 251.15624,245.55571 215.34756,252.15628 179.53887,258.75685 165.0177,264.03728 155.44653,267.17273 145.87536,270.30817 141.25529,271.29819 139.76994,268.98678 138.28459,266.67538 139.93434,261.06623 163.5321,253.64097 Z"
       id="path5602"
       inkscape:connector-curvature="0"
       inkscape:path-effect="#path-effect5604"
       inkscape:original-d="M 141.58416,255.45686 C 187.12971,246.21494 232.67427,236.97401 278.21782,227.73409 313.53146,222.78272 348.84588,217.8321 384.15842,212.8826 390.75987,209.58138 397.36074,206.28094 403.9604,202.98161 409.90091,208.92013 415.84258,214.8618 421.78218,220.80339 427.39374,227.07302 433.66437,234.00371 439.60396,240.60537 436.96467,243.5747 433.66437,246.54497 430.69307,249.51626 423.10075,249.84541 415.51255,250.17533 407.92079,250.50636 403.63077,255.12646 399.34093,259.74629 395.0495,264.36775 390.42901,266.34739 385.80958,268.32715 381.18812,270.30834 386.14091,260.73389 391.09011,251.16543 396.0396,241.59547 395.38062,235.98461 394.72047,230.37335 394.05941,224.76379 384.49093,226.4127 374.91849,228.06312 365.34653,229.71429 308.24503,237.63502 251.15612,245.55487 194.05941,253.47666 179.53867,258.75629 165.0175,264.03672 150.49505,269.31824 145.8752,270.30743 141.25513,271.29744 136.63366,272.28854 138.28524,266.67557 139.93499,261.06642 141.58416,255.45686 Z" />
    <path
       style="fill:#000000;stroke:#000000;stroke-width:1px;stroke-linecap:butt;stroke-linejoin:miter;stroke-opacity:1;fill-opacity:1"
       d="M 178.87848,301.00085 C 180.19902,299.02122 182.17922,299.02122 201.64191,295.39258 221.10459,291.76393 258.08696,284.49954 279.53874,281.85946 300.99051,279.21937 306.93129,281.19963 306.76689,283.50938 306.6025,285.81912 300.33124,288.45965 283.99203,292.25565 267.65283,296.05166 241.25528,301.0012 223.59835,305.45657 205.94142,309.91194 197.03091,313.87217 190.59455,314.69745 184.15819,315.52274 180.19833,313.21282 178.54813,310.07669 176.89793,306.94056 177.55794,302.98047 178.87848,301.00085 Z"
       id="path5606"
       inkscape:connector-curvature="0"
       inkscape:path-effect="#path-effect5608"
       inkscape:original-d="M 178.21782,299.02122 C 180.19902,299.02022 182.17922,299.02022 184.15842,299.02122 221.10444,291.76316 258.08681,284.49876 295.0495,277.23904 300.99091,279.21817 306.93169,281.19843 312.87129,283.17963 306.60229,285.81863 300.33103,288.45916 294.05941,291.10042 267.65268,296.05087 241.25513,301.00041 214.85149,305.95191 205.94121,309.91148 197.0307,313.8717 188.11881,317.8331 184.15888,315.52155 180.19902,313.21163 176.23762,310.9024 176.89874,306.9407 177.55876,302.98061 178.21782,299.02122 Z" />
    <path
       style="fill:#000000;stroke:#000000;stroke-width:1px;stroke-linecap:butt;stroke-linejoin:miter;stroke-opacity:1;fill-opacity:1"
       d="M 144.88505,366.84287 C 143.89554,363.70745 147.19587,363.04739 172.44538,356.6536 197.69488,350.25982 245.54573,337.96481 271.94831,330.37391 298.35089,322.783 303.63155,319.81263 309.0759,320.80253 314.52026,321.79244 320.13208,326.74405 320.46254,332.35399 320.793,337.96393 315.84245,344.23464 310.56149,347.3705 305.28054,350.50636 299.67097,350.50636 270.29333,373.94241 240.91568,397.37847 187.78984,444.2348 169.14308,459.08607 150.49632,473.93733 166.33759,456.77595 187.21187,433.76588 208.08614,410.75581 234.32437,381.52842 246.37019,366.18248 258.41601,350.83654 256.43574,349.18631 250.00038,350.83629 243.56503,352.48626 232.67447,357.43651 216.33663,363.04752 199.99878,368.65853 178.21901,374.92846 164.6869,375.2585 151.1548,375.58854 145.87456,369.97828 144.88505,366.84287 Z"
       id="path5610"
       inkscape:connector-curvature="0"
       inkscape:path-effect="#path-effect5612"
       inkscape:original-d="M 140.59406,364.36775 C 143.89539,363.70668 147.19572,363.04662 150.49505,362.38755 197.67427,350.1796 245.54555,337.96411 293.06931,325.75389 298.3507,322.78267 303.63136,319.81229 308.91089,316.843 314.52119,321.79138 320.13301,326.74299 325.74257,331.69448 320.79314,337.96404 315.84258,344.23474 310.89109,350.50636 305.28054,350.50536 299.67097,350.50536 294.05941,350.50636 240.91562,397.3784 187.78978,444.23474 134.65347,491.10042 150.49636,473.93737 166.33763,456.77599 182.17822,439.61527 208.25025,410.90314 234.32443,381.52847 260.39604,352.48656 258.41691,350.83546 256.43664,349.18523 254.45545,347.53607 243.56482,352.48581 232.67427,357.43606 221.78218,362.38755 199.99859,368.65787 178.21882,374.92781 156.43564,381.19943 151.15583,375.58757 145.87559,369.97731 140.59406,364.36775 Z" />
    <path
       style="fill:#000000;stroke:#000000;stroke-width:1px;stroke-linecap:butt;stroke-linejoin:miter;stroke-opacity:1;fill-opacity:1"
       d="M 157.42662,419.48278 C 163.69721,418.16325 172.93813,419.48338 184.3235,422.78351 195.70887,426.08365 209.24145,431.36465 221.61728,438.29513 233.99311,445.22561 245.21467,453.80681 270.62703,469.48326 296.0394,485.15971 335.64388,507.93229 375.24792,522.78372 414.85196,537.63516 454.45625,544.56591 470.58046,549.20126 486.70467,553.83661 479.53915,556.11655 460.72474,560.24253 441.91033,564.36851 411.55231,570.30812 388.94429,567.99787 366.33626,565.68762 351.48534,555.12697 326.73264,537.30502 301.97993,519.48307 267.32691,494.40088 245.22009,477.39823 223.11328,460.39558 212.87133,450.83643 200.99039,443.90581 189.10946,436.97519 175.24812,432.35475 165.51225,430.20941 155.77639,428.06408 150.16608,428.39409 149.0112,426.57803 147.85632,424.76196 151.15602,420.80231 157.42662,419.48278 Z"
       id="path5614"
       inkscape:connector-curvature="0"
       inkscape:path-effect="#path-effect5616"
       inkscape:original-d="M 154.45545,416.843 C 163.69737,418.16213 172.93829,419.48226 182.17822,420.80339 195.70934,426.08244 209.24192,431.36345 222.77228,436.64498 233.99396,445.2245 245.21552,453.80569 256.43564,462.38755 296.04008,485.15853 335.64456,507.93111 375.24752,530.70438 414.85216,537.63402 454.45645,544.56477 494.05941,551.49646 486.79983,554.13567 479.53895,556.11592 472.27723,558.42716 441.91018,564.36773 411.55216,570.30734 381.18812,576.24894 366.33707,565.68648 351.48615,555.12583 336.63366,544.56577 301.98075,519.48194 267.32773,494.39975 232.67327,469.31824 223.10326,460.40631 212.87229,450.8354 202.9703,441.59547 189.10986,436.97399 175.24852,432.35355 161.38614,427.73409 155.77633,428.06313 150.16602,428.39315 144.55446,428.72419 147.85641,424.76204 151.15612,420.80239 154.45545,416.843 Z" />
    <path
       style="fill:#000000;stroke:#000000;stroke-width:1px;stroke-linecap:butt;stroke-linejoin:miter;stroke-opacity:1;fill-opacity:1"
       d="M 267.82219,407.10688 C 266.33763,402.98161 268.31783,402.98161 277.22473,402.81667 286.13163,402.65172 301.98122,402.32152 315.01728,400.67129 328.05334,399.02106 338.28502,396.05057 346.86521,395.55567 355.4454,395.06078 362.3769,397.04121 365.51197,401.00068 368.64705,404.96014 367.98692,410.9013 363.69628,416.34749 359.40565,421.79368 351.48632,426.74326 333.99231,453.9744 316.49831,481.20555 289.4396,530.70319 268.48259,559.25143 247.52559,587.79966 232.67447,595.39024 223.4327,595.88516 214.19094,596.38008 210.56086,589.77995 208.74578,579.21894 206.93069,568.65794 206.93069,553.47566 207.75599,544.23476 208.58129,534.99385 210.23157,531.36325 212.54093,533.01262 214.85029,534.662 217.82157,541.59499 225.08326,545.5557 232.34495,549.51641 243.8953,550.50644 254.12597,545.7208 264.35664,540.93516 273.26824,530.37327 286.63354,509.41772 299.99885,488.46217 317.82246,457.10584 326.73301,440.93433 335.64356,424.76283 335.64356,423.77269 333.96706,422.5161 332.29056,421.2595 328.38329,419.48347 320.29699,418.82331 312.21069,418.16315 299.671,418.49314 294.22494,424.43379 288.77889,430.37445 290.42892,441.92467 273.59655,463.21288 256.76417,484.50109 221.45321,515.52193 198.68081,534.66402 175.90842,553.80611 165.67771,561.06661 156.27108,563.70726 146.86446,566.3479 138.28456,564.36792 141.09068,559.74676 143.8968,555.12559 158.08701,547.86548 173.9278,537.30489 189.7686,526.74429 207.26183,512.88173 223.26789,497.86565 239.27396,482.84957 253.79632,466.67693 262.87193,454.79591 271.94753,442.9149 275.57813,435.32365 274.91808,427.40396 274.25803,419.48428 269.30676,411.23214 267.82219,407.10688 Z"
       id="path5618"
       inkscape:connector-curvature="0"
       inkscape:path-effect="#path-effect5620"
       inkscape:original-d="M 264.35644,402.98161 C 266.33763,402.98061 268.31783,402.98061 270.29703,402.98161 286.13161,402.65074 301.9812,402.32055 317.82178,401.99151 328.05315,399.02041 338.28483,396.04992 348.51485,393.08062 355.44574,395.05959 362.37724,397.04002 369.30693,399.02122 368.64793,404.96024 367.9878,410.9014 367.32673,416.843 359.40548,421.79341 351.48615,426.74299 343.56436,431.69448 316.49866,481.20574 289.43994,530.70338 262.37624,580.20933 247.52539,587.79928 232.67427,595.38985 217.82178,602.98161 214.19213,596.37942 210.56206,589.77929 206.93069,583.17963 206.93169,568.65794 206.93169,553.47566 206.93069,538.62518 208.58175,534.99406 210.23202,531.36345 211.88119,527.73409 214.8515,534.66148 217.82278,541.59447 220.79208,548.52617 232.34504,549.51533 243.89539,550.50536 255.44554,551.49646 264.35674,540.93524 273.26833,530.37335 282.17822,519.81329 299.99918,488.46236 317.82278,457.10602 335.64356,425.75389 335.31454,424.76283 335.64456,423.77269 335.64356,422.78359 332.34757,421.13409 328.38384,419.48226 324.75248,417.8331 312.21066,418.16217 299.67097,418.49216 287.12871,418.8232 288.78001,430.37429 290.43004,441.92451 292.07921,453.47666 256.76411,484.50102 221.45315,515.52187 186.13861,546.54597 175.90828,553.80591 165.67757,561.06642 155.44554,568.32815 146.86473,566.34673 138.28483,564.36675 129.70297,562.38755 143.8966,555.12521 158.08681,547.8651 172.27723,540.60537 189.7685,526.74416 207.26173,512.8816 224.75248,499.02122 239.27401,482.84962 253.79638,466.67698 268.31683,450.50636 271.94796,442.9151 275.57856,435.32385 279.20792,427.73409 274.25921,419.48357 269.30793,411.23144 264.35644,402.98161 Z" />
    <path
       style="fill:#000000;stroke:#000000;stroke-width:1px;stroke-linecap:butt;stroke-linejoin:miter;stroke-opacity:1;fill-opacity:1"
       d="M 238.11952,425.25767 C 233.99414,431.69331 223.43308,448.525 210.89153,461.89187 198.34998,475.25874 183.82953,485.15905 181.35466,489.11964 178.8798,493.08023 188.45,491.10019 202.31026,482.84992 216.17052,474.59965 234.32453,460.07645 245.21536,450.17548 256.10618,440.27452 259.73676,434.99367 258.7468,428.06436 257.75684,421.13504 252.14506,412.55232 247.85498,412.05669 243.56491,411.56105 240.59453,419.15202 240.26479,420.9669 239.93505,422.78178 242.24491,418.82202 238.11952,425.25767 Z"
       id="path5622"
       inkscape:connector-curvature="0"
       inkscape:path-effect="#path-effect5624"
       inkscape:original-d="M 244.55446,414.8628 C 233.9944,431.69348 223.43334,448.52517 212.87129,465.35785 198.34983,475.25853 183.82938,485.15883 169.30693,495.06082 178.87964,493.07946 188.44984,491.09942 198.0198,489.12023 216.17042,474.59953 234.32443,460.07632 252.47525,445.55587 256.10639,440.27466 259.73697,434.99381 263.36634,429.71428 257.75799,421.13429 252.14621,412.55157 246.53465,403.97171 243.56544,411.56126 240.59506,419.15223 237.62376,426.74399 239.93536,422.78196 242.24522,418.8222 244.55446,414.8628 Z" />
    <path
       style="fill:#000000;stroke:#000000;stroke-width:1px;stroke-linecap:butt;stroke-linejoin:miter;stroke-opacity:1;fill-opacity:1"
       d="M 227.72298,222.94832 C 230.69363,214.53297 240.59462,218.16333 247.52494,221.79351 254.45527,225.42369 258.41589,229.05426 258.41596,246.21522 258.41603,263.37619 254.45559,294.06961 251.65035,312.88158 248.8451,331.69356 247.195,338.62401 245.04932,339.28397 242.90364,339.94393 240.26382,334.33432 238.11873,322.12359 235.97364,309.91285 234.32335,291.09951 231.51813,271.46311 228.71291,251.8267 224.75233,231.36367 227.72298,222.94832 Z"
       id="path5626"
       inkscape:connector-curvature="0"
       inkscape:path-effect="#path-effect5628"
       inkscape:original-d="M 220.79208,210.9024 C 230.69407,214.53177 240.59506,218.16213 250.49505,221.79349 254.45622,225.42265 258.41684,229.05322 262.37624,232.68458 258.41689,263.3763 254.45645,294.06972 250.49505,324.76379 248.84582,331.69373 247.19572,338.62418 245.54455,345.55587 242.90484,339.94336 240.26503,334.33375 237.62376,328.72419 235.97472,309.91276 234.32443,291.09942 232.67327,272.28854 228.71406,251.82648 224.75348,231.36345 220.79208,210.9024 Z" />
  </g>
</svg>
