<?xml version="1.0" encoding="UTF-8" standalone="no"?>
<!-- Created with Inkscape (http://www.inkscape.org/) -->

<svg
   xmlns:dc="http://purl.org/dc/elements/1.1/"
   xmlns:cc="http://creativecommons.org/ns#"
   xmlns:rdf="http://www.w3.org/1999/02/22-rdf-syntax-ns#"
   xmlns:svg="http://www.w3.org/2000/svg"
   xmlns="http://www.w3.org/2000/svg"
   xmlns:sodipodi="http://sodipodi.sourceforge.net/DTD/sodipodi-0.dtd"
   xmlns:inkscape="http://www.inkscape.org/namespaces/inkscape"
   width="512"
   height="512"
   viewBox="0 0 512 512"
   version="1.1"
   id="svg8"
   inkscape:version="0.92.4 (5da689c313, 2019-01-14)"
   sodipodi:docname="U+8AD6.svg">
  <defs
     id="defs2">
    <inkscape:path-effect
       effect="bspline"
       id="path-effect856"
       is_visible="true"
       weight="33.333333"
       steps="2"
       helper_size="0"
       apply_no_weight="true"
       apply_with_weight="true"
       only_selected="false" />
    <inkscape:path-effect
       effect="bspline"
       id="path-effect852"
       is_visible="true"
       weight="33.333333"
       steps="2"
       helper_size="0"
       apply_no_weight="true"
       apply_with_weight="true"
       only_selected="false" />
    <inkscape:path-effect
       effect="bspline"
       id="path-effect848"
       is_visible="true"
       weight="33.333333"
       steps="2"
       helper_size="0"
       apply_no_weight="true"
       apply_with_weight="true"
       only_selected="false" />
    <inkscape:path-effect
       effect="bspline"
       id="path-effect844"
       is_visible="true"
       weight="33.333333"
       steps="2"
       helper_size="0"
       apply_no_weight="true"
       apply_with_weight="true"
       only_selected="false" />
    <inkscape:path-effect
       effect="bspline"
       id="path-effect840"
       is_visible="true"
       weight="33.333333"
       steps="2"
       helper_size="0"
       apply_no_weight="true"
       apply_with_weight="true"
       only_selected="false" />
    <inkscape:path-effect
       effect="bspline"
       id="path-effect836"
       is_visible="true"
       weight="33.333333"
       steps="2"
       helper_size="0"
       apply_no_weight="true"
       apply_with_weight="true"
       only_selected="false" />
    <inkscape:path-effect
       effect="bspline"
       id="path-effect832"
       is_visible="true"
       weight="33.333333"
       steps="2"
       helper_size="0"
       apply_no_weight="true"
       apply_with_weight="true"
       only_selected="false" />
    <inkscape:path-effect
       effect="bspline"
       id="path-effect828"
       is_visible="true"
       weight="33.333333"
       steps="2"
       helper_size="0"
       apply_no_weight="true"
       apply_with_weight="true"
       only_selected="false" />
  </defs>
  <sodipodi:namedview
     id="base"
     pagecolor="#ffffff"
     bordercolor="#666666"
     borderopacity="1.0"
     inkscape:pageopacity="0.0"
     inkscape:pageshadow="2"
     inkscape:zoom="0.82"
     inkscape:cx="152.30657"
     inkscape:cy="236.6832"
     inkscape:document-units="px"
     inkscape:current-layer="layer1"
     showgrid="false"
     units="px"
     inkscape:window-width="1920"
     inkscape:window-height="1001"
     inkscape:window-x="-9"
     inkscape:window-y="-9"
     inkscape:window-maximized="1" />
  <metadata
     id="metadata5">
    <rdf:RDF>
      <cc:Work
         rdf:about="">
        <dc:format>image/svg+xml</dc:format>
        <dc:type
           rdf:resource="http://purl.org/dc/dcmitype/StillImage" />
        <dc:title></dc:title>
      </cc:Work>
    </rdf:RDF>
  </metadata>
  <g
     inkscape:label="圖層 1"
     inkscape:groupmode="layer"
     id="layer1"
     transform="translate(0,-161.53331)">
    <path
       style="fill:#000000;stroke:#000000;stroke-width:1px;stroke-linecap:butt;stroke-linejoin:miter;stroke-opacity:1;fill-opacity:1"
       d="M 140.44781,278.00465 C 142.27652,284.509 154.06515,294.2651 162.19555,299.54968 170.32595,304.83426 174.79754,305.64727 178.0495,305.03713 181.30145,304.42698 183.33433,302.3941 184.35009,297.3148 185.36585,292.2355 185.36585,284.10142 180.28546,278.20793 175.20507,272.31445 165.04122,268.65546 155.89497,268.45196 146.74872,268.24845 138.61909,271.5003 140.44781,278.00465 Z"
       id="path826"
       inkscape:connector-curvature="0"
       inkscape:path-effect="#path-effect828"
       inkscape:original-d="M 130.4878,274.75282 C 142.27742,284.50792 154.06604,294.26402 165.85366,304.02111 170.32616,304.83312 174.79775,305.64613 179.26829,306.46014 181.30145,304.42698 183.33433,302.3941 185.36585,300.36258 185.36685,292.2355 185.36685,284.10142 185.36585,275.97233 175.2055,272.31325 165.04165,268.65426 154.87805,264.99672 146.74851,268.24794 138.61889,271.49979 130.4878,274.75282 Z" />
    <path
       style="fill:#000000;stroke:#000000;stroke-width:1px;stroke-linecap:butt;stroke-linejoin:miter;stroke-opacity:1;fill-opacity:1"
       d="M 59.14728,363.57391 C 91.058081,358.08589 146.74914,345.07776 179.47258,337.96401 212.19603,330.85027 221.95233,329.63073 226.42328,327.19162 230.89424,324.7525 230.08114,321.09355 221.34362,320.28064 212.60611,319.46772 195.93607,321.50065 175.61009,324.7528 155.28411,328.00494 131.30196,332.47618 104.87851,337.76087 78.455064,343.04555 49.594655,349.14282 33.5376,353.81731 17.480544,358.49179 14.228642,361.74369 16.66877,364.38687 19.108897,367.03004 27.236479,369.06194 59.14728,363.57391 Z"
       id="path830"
       inkscape:connector-curvature="0"
       inkscape:path-effect="#path-effect832"
       inkscape:original-d="M 35.365854,371.09429 C 91.057911,358.08516 146.74897,345.07703 202.43902,332.0699 212.19592,330.84941 221.95222,329.62987 231.70732,328.41136 230.8954,324.75224 230.0823,321.09329 229.26829,317.43575 212.606,319.46686 195.93596,321.49979 179.26829,323.53331 155.28396,328.00415 131.30181,332.4754 107.31707,336.94794 78.454906,343.0448 49.594496,349.14207 20.731707,355.24063 17.480544,358.49179 14.228642,361.74369 10.97561,364.99672 19.109191,367.02887 27.236772,369.06077 35.365854,371.09429 Z" />
    <path
       style="fill:#000000;stroke:#000000;stroke-width:1px;stroke-linecap:butt;stroke-linejoin:miter;stroke-opacity:1;fill-opacity:1"
       d="M 113.21191,398.93945 C 105.6909,405.2404 108.94294,410.11845 115.65113,411.74445 122.35933,413.37045 132.52146,411.74451 145.12228,407.47642 157.72311,403.20833 172.76544,396.29699 181.8255,391.52168 190.88557,386.74638 193.497,384.50801 188.41805,382.4763 183.33909,380.4446 170.32606,378.81797 154.67522,381.8667 139.02439,384.91543 120.73292,392.63849 113.21191,398.93945 Z"
       id="path834"
       inkscape:connector-curvature="0"
       inkscape:path-effect="#path-effect836"
       inkscape:original-d="M 102.43902,400.36258 C 105.69206,405.23963 108.94409,410.11768 112.19512,414.99672 122.3592,413.36963 132.52133,411.74369 142.68293,410.11868 157.7229,403.20788 172.76523,396.29654 187.80488,389.38697 191.05765,386.94714 193.49693,384.50792 196.34146,382.0699 183.33923,380.44349 170.3262,378.81686 157.31707,377.19185 139.02418,384.91494 120.73271,392.638 102.43902,400.36258 Z" />
    <path
       style="fill:#000000;stroke:#000000;stroke-width:1px;stroke-linecap:butt;stroke-linejoin:miter;stroke-opacity:1;fill-opacity:1"
       d="M 91.667172,458.6956 C 78.048604,466.21595 81.707141,472.31351 87.602118,476.17556 93.497095,480.03761 101.62679,481.66355 119.30864,475.36302 136.99049,469.06249 164.22884,454.8335 177.84612,446.29679 191.46341,437.76008 191.46341,434.91442 187.40032,433.69531 183.33724,432.47621 175.2043,432.88285 155.69018,437.55808 136.17607,442.23331 105.28574,451.17525 91.667172,458.6956 Z"
       id="path838"
       inkscape:connector-curvature="0"
       inkscape:path-effect="#path-effect840"
       inkscape:original-d="M 74.390244,460.11868 C 78.04978,466.21524 81.708317,472.3128 85.365854,478.41136 93.497327,480.03645 101.62702,481.66239 109.7561,483.28941 136.99029,469.06211 164.22864,454.83312 191.46341,440.60648 191.46441,437.76008 191.46441,434.91442 191.46341,432.0699 183.33719,432.47526 175.20425,432.8819 167.07317,433.28941 136.17588,442.23265 105.28555,451.17459 74.390244,460.11868 Z" />
    <path
       style="fill:#000000;stroke:#000000;stroke-width:1px;stroke-linecap:butt;stroke-linejoin:miter;stroke-opacity:1;fill-opacity:1"
       d="M 67.480209,531.25681 C 70.325174,538.57393 83.333304,552.39507 94.30886,566.01287 105.28442,579.63067 114.22749,593.04528 119.51225,595.68702 124.79701,598.32877 126.42299,590.19883 123.78099,578.00519 121.13898,565.81155 114.22743,549.54908 106.09786,539.59014 97.968286,529.63119 88.618412,525.97254 80.285158,524.54964 71.951904,523.12673 64.635244,523.93969 67.480209,531.25681 Z"
       id="path842"
       inkscape:connector-curvature="0"
       inkscape:path-effect="#path-effect844"
       inkscape:original-d="M 57.317073,524.75282 C 70.326203,538.57296 83.334333,552.3941 96.341463,566.21624 105.28557,579.6299 114.22864,593.04451 123.17073,606.46014 124.79778,598.32892 126.42376,590.19898 128.04878,582.0699 121.14019,565.81104 114.22864,549.54857 107.31707,533.28941 97.968759,529.62998 88.618886,525.97133 79.268293,522.3138 71.951806,523.12585 64.635146,523.93881 57.317073,524.75282 Z" />
    <path
       style="fill:#000000;stroke:#000000;stroke-width:1px;stroke-linecap:butt;stroke-linejoin:miter;stroke-opacity:1;fill-opacity:1"
       d="M 127.43954,515.40288 C 117.073,523.93955 121.95105,531.66313 130.33028,532.35698 138.70951,533.05084 151.2207,526.3782 157.31767,528.81649 163.41463,531.25477 163.41463,542.638 157.11387,551.17506 150.81311,559.71213 138.21259,565.40269 133.74065,569.87468 129.2687,574.34668 132.92689,577.5984 142.48018,576.37869 152.03346,575.15898 167.48087,569.46783 179.67531,556.46011 191.86975,543.45239 200.81354,523.1256 201.82984,510.52479 202.84614,497.92398 195.93516,493.04565 179.67514,495.28126 163.41511,497.51688 137.80609,506.86621 127.43954,515.40288 Z"
       id="path846"
       inkscape:connector-curvature="0"
       inkscape:path-effect="#path-effect848"
       inkscape:original-d="M 112.19512,516.21624 C 117.07417,523.93881 121.95222,531.66239 126.82927,539.38697 138.61929,532.88168 151.22051,526.37784 163.41463,519.87477 163.41563,531.25477 163.41563,542.638 163.41463,554.02111 150.8129,559.71167 138.21238,565.40223 125.60976,571.09429 129.26964,574.34563 132.92783,577.59735 136.58537,580.85038 152.03326,575.15842 167.48067,569.46727 182.92683,563.77721 191.87022,543.4526 200.81401,523.12581 209.7561,502.8016 202.84694,497.92284 195.93596,493.04451 189.02439,488.16746 163.41491,497.51632 137.80588,506.86564 112.19512,516.21624 Z" />
    <path
       style="fill:#000000;stroke:#000000;stroke-width:1px;stroke-linecap:butt;stroke-linejoin:miter;stroke-opacity:1;fill-opacity:1"
       d="M 270.52878,270.48457 C 267.88611,273.12672 274.79668,281.2568 277.0173,289.64332 279.23793,298.02983 276.82961,306.45895 264.63321,325.36346 252.43681,344.26797 230.48864,373.53219 214.60201,390.32756 198.71538,407.12293 188.21259,411.74416 185.77359,414.7934 183.33459,417.84264 188.61852,419.46847 198.57727,416.2165 208.53602,412.96452 223.17192,404.83346 240.51548,386.64899 257.85903,368.46452 277.64309,340.60534 288.41536,326.78485 299.18764,312.96436 300.81372,313.37088 305.08034,315.40262 309.34696,317.43435 316.26053,321.09448 342.68194,341.82513 369.10335,362.55578 415.04076,400.36267 447.76485,416.8259 480.48894,433.28913 500.00118,428.41107 508.7404,424.34613 517.47963,420.2812 515.44698,417.02897 491.66866,403.81878 467.89034,390.6086 422.35811,367.43595 389.83763,349.34644 357.31714,331.25693 337.80511,318.24892 325.03584,312.67187 312.26656,307.09482 307.72477,308.49229 304.066,309.91503 300.40722,311.33776 298.37516,312.55699 297.56169,306.45539 296.74823,300.35378 297.1545,286.94691 291.26101,278.81754 285.36752,270.68817 273.17146,267.84242 270.52878,270.48457 Z"
       id="path850"
       inkscape:connector-curvature="0"
       inkscape:path-effect="#path-effect852"
       inkscape:original-d="M 260.97561,264.99672 C 267.88718,273.12581 274.79775,281.25589 281.70732,289.38697 278.86276,297.92264 276.83027,306.45914 274.39024,314.99672 252.43697,344.26809 230.4888,373.53231 208.53659,402.8016 198.78111,407.27232 188.21238,411.74369 178.04878,416.21624 183.33496,417.84145 188.61889,419.46727 193.90244,421.09429 208.53583,412.96418 223.17173,404.83312 237.80488,396.70404 258.12943,368.65654 277.64328,340.60548 297.56098,312.5577 299.18793,312.96319 300.81401,313.36971 302.43902,313.77721 309.34759,317.43316 316.26116,321.09329 323.17073,324.75282 369.10425,362.55469 415.04165,400.36158 460.97561,438.16746 480.48876,433.28842 500.001,428.41036 519.5122,423.53331 517.4808,420.28047 515.44815,417.02824 513.41463,413.77721 467.89095,390.6074 422.35872,367.43475 376.82927,344.26502 357.31791,331.25578 337.80588,318.24776 318.29268,305.24063 312.19605,306.86566 307.72458,308.49166 302.43902,310.11868 300.40704,311.33746 298.37498,312.5567 296.34146,313.77721 296.7492,300.35381 297.15547,286.94694 297.56098,273.53331 285.36779,270.687 273.17173,267.84125 260.97561,264.99672 Z" />
    <path
       style="fill:#000000;stroke:#000000;stroke-width:1px;stroke-linecap:butt;stroke-linejoin:miter;stroke-opacity:1;fill-opacity:1"
       d="M 265.04128,409.30558 C 251.21961,416.21632 258.53669,422.31388 279.8227,420.09463 301.10871,417.87537 336.58656,407.27279 352.84642,401.37878 369.10627,395.48478 366.26064,394.26523 362.39845,392.63904 358.53626,391.01285 353.65904,388.98067 333.73889,391.82636 313.81874,394.67205 278.86295,402.39484 265.04128,409.30558 Z"
       id="path854"
       inkscape:connector-curvature="0"
       inkscape:path-effect="#path-effect856"
       inkscape:original-d="M 243.90244,410.11868 C 251.22051,416.21524 258.53759,422.3128 265.85366,428.41136 301.22004,418.24789 336.58637,407.27215 371.95122,396.70404 369.10679,395.48357 366.26116,394.26402 363.41463,393.04551 358.53676,391.01164 353.65954,388.97946 348.78049,386.94794 313.81858,394.67131 278.86279,402.3941 243.90244,410.11868 Z" />
    <path
       style="fill:#000000;stroke:#000000;stroke-width:1px;stroke-linecap:butt;stroke-linejoin:miter;stroke-opacity:1;fill-opacity:1"
       d="M 223.17073,477.19185 C 228.04878,491.82599 235.36585,528.41136 235.36585,528.41136 L 229.26829,572.3138 242.68293,577.19185 246.34146,555.24063 245.12195,478.41136 229.26829,467.43575 Z"
       id="path858"
       inkscape:connector-curvature="0" />
    <path
       style="fill:#000000;stroke:#000000;stroke-width:1px;stroke-linecap:butt;stroke-linejoin:miter;stroke-opacity:1;fill-opacity:1"
       d="M 256.09756,456.46014 385.36585,435.72843 C 385.36585,435.72843 396.34146,433.28941 406.09756,445.48453 415.85366,457.67965 413.41463,468.65526 409.7561,474.75282 406.09756,480.85038 387.80488,584.50892 387.80488,584.50892 H 373.17073 L 356.09756,546.70404 373.17073,544.26502 380.4878,449.14307 274.39024,474.75282 Z"
       id="path860"
       inkscape:connector-curvature="0" />
    <path
       style="fill:#000000;stroke:#000000;stroke-width:1px;stroke-linecap:butt;stroke-linejoin:miter;stroke-opacity:1;fill-opacity:1"
       d="M 359.7561,490.60648 C 359.7561,490.60648 326.82927,490.60648 321.95122,493.04551 317.07317,495.48453 271.95122,512.5577 271.95122,512.5577 L 235.36585,528.41136 290.2439,522.3138 362.19512,508.89916 370.73171,496.70404 Z"
       id="path862"
       inkscape:connector-curvature="0" />
    <path
       style="fill:#000000;stroke:#000000;stroke-width:1px;stroke-linecap:butt;stroke-linejoin:miter;stroke-opacity:1;fill-opacity:1"
       d="M 274.39024,474.75282 275.60976,552.8016 289.02439,549.14307 292.68293,491.82599 Z"
       id="path864"
       inkscape:connector-curvature="0" />
    <path
       style="fill:#000000;stroke:#000000;stroke-width:1px;stroke-linecap:butt;stroke-linejoin:miter;stroke-opacity:1;fill-opacity:1"
       d="M 314.63415,471.09429 308.53659,584.50892 321.95122,593.04551 329.26829,582.0699 340.2439,471.09429 321.95122,462.5577 Z"
       id="path866"
       inkscape:connector-curvature="0" />
  </g>
</svg>
