<?xml version="1.0" encoding="UTF-8" standalone="no"?>
<!-- Created with Inkscape (http://www.inkscape.org/) -->

<svg
   xmlns:dc="http://purl.org/dc/elements/1.1/"
   xmlns:cc="http://creativecommons.org/ns#"
   xmlns:rdf="http://www.w3.org/1999/02/22-rdf-syntax-ns#"
   xmlns:svg="http://www.w3.org/2000/svg"
   xmlns="http://www.w3.org/2000/svg"
   xmlns:sodipodi="http://sodipodi.sourceforge.net/DTD/sodipodi-0.dtd"
   xmlns:inkscape="http://www.inkscape.org/namespaces/inkscape"
   width="513"
   height="513"
   viewBox="0 0 513 513"
   version="1.1"
   id="svg3840"
   inkscape:version="0.92.4 (5da689c313, 2019-01-14)"
   sodipodi:docname="900D.svg">
  <defs
     id="defs3834">
    <inkscape:path-effect
       effect="bspline"
       id="path-effect4434"
       is_visible="true"
       weight="33.333333"
       steps="2"
       helper_size="0"
       apply_no_weight="true"
       apply_with_weight="true"
       only_selected="false" />
    <inkscape:path-effect
       effect="bspline"
       id="path-effect4430"
       is_visible="true"
       weight="33.333333"
       steps="2"
       helper_size="0"
       apply_no_weight="true"
       apply_with_weight="true"
       only_selected="false" />
    <inkscape:path-effect
       effect="bspline"
       id="path-effect4426"
       is_visible="true"
       weight="33.333333"
       steps="2"
       helper_size="0"
       apply_no_weight="true"
       apply_with_weight="true"
       only_selected="false" />
    <inkscape:path-effect
       effect="bspline"
       id="path-effect4422"
       is_visible="true"
       weight="33.333333"
       steps="2"
       helper_size="0"
       apply_no_weight="true"
       apply_with_weight="true"
       only_selected="false" />
    <inkscape:path-effect
       effect="bspline"
       id="path-effect4418"
       is_visible="true"
       weight="33.333333"
       steps="2"
       helper_size="0"
       apply_no_weight="true"
       apply_with_weight="true"
       only_selected="false" />
    <inkscape:path-effect
       effect="bspline"
       id="path-effect4414"
       is_visible="true"
       weight="33.333333"
       steps="2"
       helper_size="0"
       apply_no_weight="true"
       apply_with_weight="true"
       only_selected="false" />
    <inkscape:path-effect
       effect="bspline"
       id="path-effect4410"
       is_visible="true"
       weight="33.333333"
       steps="2"
       helper_size="0"
       apply_no_weight="true"
       apply_with_weight="true"
       only_selected="false" />
    <inkscape:path-effect
       effect="bspline"
       id="path-effect4406"
       is_visible="true"
       weight="33.333333"
       steps="2"
       helper_size="0"
       apply_no_weight="true"
       apply_with_weight="true"
       only_selected="false" />
    <inkscape:path-effect
       effect="bspline"
       id="path-effect4402"
       is_visible="true"
       weight="33.333333"
       steps="2"
       helper_size="0"
       apply_no_weight="true"
       apply_with_weight="true"
       only_selected="false" />
    <inkscape:path-effect
       effect="bspline"
       id="path-effect4398"
       is_visible="true"
       weight="33.333333"
       steps="2"
       helper_size="0"
       apply_no_weight="true"
       apply_with_weight="true"
       only_selected="false" />
  </defs>
  <sodipodi:namedview
     id="base"
     pagecolor="#ffffff"
     bordercolor="#666666"
     borderopacity="1.0"
     inkscape:pageopacity="0.0"
     inkscape:pageshadow="2"
     inkscape:zoom="1.0824912"
     inkscape:cx="165.413"
     inkscape:cy="207.7398"
     inkscape:document-units="px"
     inkscape:current-layer="layer1"
     showgrid="false"
     units="px"
     inkscape:window-width="1920"
     inkscape:window-height="1001"
     inkscape:window-x="-9"
     inkscape:window-y="-9"
     inkscape:window-maximized="1" />
  <metadata
     id="metadata3837">
    <rdf:RDF>
      <cc:Work
         rdf:about="">
        <dc:format>image/svg+xml</dc:format>
        <dc:type
           rdf:resource="http://purl.org/dc/dcmitype/StillImage" />
        <dc:title></dc:title>
      </cc:Work>
    </rdf:RDF>
  </metadata>
  <g
     inkscape:label="圖層 1"
     inkscape:groupmode="layer"
     id="layer1"
     transform="translate(0,-161.26874)">
    <path
       style="fill:#000000;stroke:#000000;stroke-width:1px;stroke-linecap:butt;stroke-linejoin:miter;stroke-opacity:1;fill-opacity:1"
       d="M 56.967766,278.73018 C 64.358721,276.11308 80.6791,276.11308 92.072375,276.11308 103.46565,276.11308 109.93261,276.11308 111.7802,279.03737 113.62779,281.96167 110.85598,287.81328 102.5407,292.58704 94.225426,297.3608 80.371352,301.05522 71.132631,300.74728 61.89391,300.43934 57.275332,296.12867 54.195893,291.35537 51.116455,286.58206 49.57681,281.34727 56.967766,278.73018 Z"
       id="path4396"
       inkscape:connector-curvature="0"
       inkscape:path-effect="#path-effect4398"
       inkscape:original-d="M 48.037342,276.11308 C 64.358721,276.11208 80.6791,276.11208 96.998479,276.11308 103.46565,276.11208 109.93261,276.11208 116.39818,276.11308 113.62822,281.96187 110.8564,287.81348 108.08402,293.66518 94.225243,297.36012 80.371169,301.05454 66.513243,304.75072 61.894874,300.43831 57.276293,296.12764 52.656317,291.81759 51.117647,286.58171 49.578001,281.34692 48.037342,276.11308 Z" />
    <path
       style="fill:#000000;stroke:#000000;stroke-width:1px;stroke-linecap:butt;stroke-linejoin:miter;stroke-opacity:1;fill-opacity:1"
       d="M 32.48747,398.51522 C 39.10849,394.35858 51.425756,391.58719 61.895035,387.73807 72.364313,383.88895 80.987215,378.96158 88.334512,377.40952 95.681809,375.85746 101.92603,377.73072 105.89491,382.51059 109.86379,387.29045 111.77903,395.58984 108.54606,400.97893 105.31308,406.36803 96.99968,409.13916 90.532372,417.7619 84.065064,426.38463 79.446755,440.85533 81.140885,449.01628 82.835014,457.17723 90.840576,459.02467 98.538178,463.48928 106.23578,467.95389 113.62681,475.03696 117.48206,482.42015 121.33732,489.80334 121.63298,496.89913 118.86165,504.59786 116.09031,512.29658 110.24037,520.30177 108.08462,519.2233 105.92888,518.14482 107.46832,507.9845 105.5168,498.97347 103.56527,489.96244 97.922128,481.81123 91.609796,475.34491 85.297464,468.87858 78.214849,463.95155 74.211572,457.48436 70.208295,451.01717 69.284528,443.01118 69.900446,433.9276 70.516365,424.84403 72.672123,414.68117 69.593748,412.0637 66.515372,409.44623 58.200268,414.3737 51.108364,417.57107 44.01646,420.76843 37.56884,422.38033 33.330161,421.55699 29.091482,420.73365 26.481996,417.14561 25.712302,412.68027 24.942607,408.21492 25.86645,402.67186 32.48747,398.51522 Z"
       id="path4400"
       inkscape:connector-curvature="0"
       inkscape:path-effect="#path-effect4402"
       inkscape:original-d="M 26.790056,397.13023 C 39.108323,394.35784 51.425591,391.58646 63.741858,388.81607 72.364129,383.88863 80.987032,378.96126 89.608119,374.03535 95.766906,375.5738 101.92639,377.72953 108.08402,379.57812 109.93242,387.27461 111.7802,395.58957 113.62679,403.59679 105.31288,406.36743 96.999479,409.13856 88.684324,411.91095 84.065682,426.38483 79.447374,440.85553 74.827398,455.32932 82.835284,457.17606 90.840846,459.0235 98.846069,460.87209 106.23676,467.95287 113.62779,475.03594 121.01715,482.11937 121.01815,489.81664 121.63401,496.89909 121.94095,504.29045 116.09049,512.29671 110.24054,520.3019 104.38884,528.30912 105.92972,518.14495 107.46916,507.98463 109.00781,497.82389 103.77456,489.81755 97.923274,481.81044 92.379504,473.80522 85.29826,468.87744 78.215647,463.9504 71.132218,459.0245 70.209396,451.01704 69.285628,443.01105 68.360833,435.00582 70.51712,424.84419 72.672877,414.68133 74.827398,404.52059 66.515192,409.44593 58.200088,414.3734 49.884932,419.30131 44.034401,420.84019 37.568665,422.37963 31.409031,423.92028 28.946107,420.83938 26.483125,417.14479 24.018671,413.75854 24.943417,408.21506 25.867261,402.672 26.790056,397.13023 Z" />
    <path
       style="fill:#000000;stroke:#000000;stroke-width:1px;stroke-linecap:butt;stroke-linejoin:miter;stroke-opacity:1;fill-opacity:1"
       d="M 247.73177,191.89346 C 248.19326,196.05102 255.27569,200.05413 259.8944,210.83081 264.51311,221.60749 266.66873,239.16042 268.51637,257.32882 270.36402,275.49723 271.9036,294.28014 274.52113,305.67414 277.13865,317.06815 280.83365,321.07106 284.06724,319.99268 287.30083,318.91431 290.07218,312.75574 293.13571,292.89597 296.19924,273.03619 299.61763,238.85225 298.07807,219.1453 296.5385,199.43834 290.07172,193.89539 282.8355,189.58439 275.59929,185.2734 267.59316,182.19412 260.51083,182.80963 253.4285,183.42513 247.27028,187.73589 247.73177,191.89346 Z"
       id="path4404"
       inkscape:connector-curvature="0"
       inkscape:path-effect="#path-effect4406"
       inkscape:original-d="M 241.11051,192.04773 C 248.19393,196.04984 255.27636,200.05295 262.35779,204.05706 264.51421,221.60735 266.66984,239.16028 268.82436,256.71338 270.36509,275.49714 271.90467,294.28005 273.44333,313.06488 277.13969,317.06719 280.83469,321.0701 284.52887,325.07421 287.30129,318.91452 290.07264,312.75595 292.84303,306.59831 296.23061,273.03933 299.61853,238.85234 303.00477,204.98086 296.53942,199.43727 290.07264,193.89432 283.60508,188.35255 275.59975,185.27219 267.59363,182.19291 259.58641,179.1146 253.42836,183.42493 247.27014,187.73569 241.11051,192.04773 Z" />
    <path
       style="fill:#000000;stroke:#000000;stroke-width:1px;stroke-linecap:butt;stroke-linejoin:miter;stroke-opacity:1;fill-opacity:1"
       d="M 205.85239,243.77941 C 209.39333,243.77976 213.70438,253.94151 221.24922,262.25615 228.79405,270.5708 239.57114,277.03705 241.31988,282.24187 243.06861,287.44669 235.56893,291.50901 227.40781,292.58703 219.24668,293.66504 210.3181,291.81775 205.08274,286.58207 199.84739,281.34638 198.30786,272.72503 198.92383,263.33339 199.5398,253.94175 202.31144,243.77907 205.85239,243.77941 Z"
       id="path4408"
       inkscape:connector-curvature="0"
       inkscape:path-effect="#path-effect4410"
       inkscape:original-d="M 205.0825,233.61851 C 209.39454,243.77925 213.70559,253.941 218.01563,264.10374 228.79476,270.56962 239.57185,277.03587 250.34846,283.50344 243.26722,287.81336 235.56874,291.50866 228.17738,295.51277 219.24692,293.66389 210.31834,291.81659 201.38732,289.97 199.84853,281.34618 198.309,272.72483 196.76834,264.10374 199.54047,253.94193 202.31211,243.77925 205.0825,233.61851 Z" />
    <path
       style="fill:#000000;stroke:#000000;stroke-width:1px;stroke-linecap:butt;stroke-linejoin:miter;stroke-opacity:1;fill-opacity:1"
       d="M 356.58506,195.28062 C 353.19762,200.3609 353.50555,214.21783 349.19459,227.61323 344.88364,241.00863 335.95425,253.94085 326.71598,265.33482 317.4777,276.72879 307.93267,286.58174 306.85539,290.43111 305.77811,294.28048 313.16771,292.12518 323.02047,285.81314 332.87324,279.5011 345.19248,269.02974 356.43152,258.86839 367.67055,248.70703 377.83319,238.85236 382.45163,231.15443 387.07008,223.4565 386.14619,217.91318 383.83698,212.67903 381.52777,207.44487 377.83205,202.51725 372.44361,198.20644 367.05517,193.89563 359.97251,190.20033 356.58506,195.28062 Z"
       id="path4412"
       inkscape:connector-curvature="0"
       inkscape:path-effect="#path-effect4414"
       inkscape:original-d="M 352.88971,186.50496 C 353.19864,200.36088 353.50657,214.21781 353.8135,228.07573 344.88385,241.00878 335.95446,253.941 327.02344,266.87513 317.47772,276.72881 307.93268,286.58175 298.3858,296.43657 305.77792,294.27982 313.16752,292.12452 320.55688,289.97 332.87316,279.50101 345.19241,269.02965 357.50868,258.56097 367.67054,248.70702 377.83317,238.85234 387.99392,228.99953 387.07121,223.45631 386.14733,217.91299 385.22253,212.37122 381.52889,207.44403 377.83317,202.51641 374.13699,197.5905 367.05579,193.89444 359.97313,190.19914 352.88971,186.50496 Z" />
    <path
       style="fill:#000000;stroke:#000000;stroke-width:1px;stroke-linecap:butt;stroke-linejoin:miter;stroke-opacity:1;fill-opacity:1"
       d="M 214.93649,370.49377 C 217.39971,398.36101 220.47903,453.17285 222.01872,485.19779 223.5584,517.22274 223.5584,526.46053 225.09825,532.46587 226.63811,538.47122 229.71709,541.2423 232.72019,541.01815 235.72329,540.794 238.95593,537.2381 239.57154,529.69569 240.18715,522.15328 238.33899,510.44827 236.95338,490.58759 235.56777,470.7269 234.64391,442.70315 236.33766,421.76392 238.03141,400.8247 242.34261,386.96729 242.18865,377.73013 242.0347,368.49298 237.41533,363.87361 231.1028,358.48486 224.79028,353.09611 216.78404,346.93747 213.70487,344.32011 210.6257,341.70274 212.47326,342.62652 214.93649,370.49377 Z"
       id="path4416"
       inkscape:connector-curvature="0"
       inkscape:path-effect="#path-effect4418"
       inkscape:original-d="M 214.32045,343.55012 C 217.40077,398.36095 220.48008,453.17279 223.5584,507.98563 223.5594,517.22274 223.5594,526.46053 223.5584,535.69948 226.63905,538.47017 229.71803,541.24125 232.79635,544.01364 235.87661,540.93338 238.95598,537.23814 242.0343,533.85189 240.18828,522.1531 238.34012,510.44809 236.49153,498.74768 235.5688,470.72687 234.64494,442.70312 233.72015,414.68233 238.03204,400.82489 242.34323,386.96748 246.65328,373.11156 242.0357,368.49198 237.41633,363.87261 232.79635,359.25463 224.79113,353.095 216.7849,346.93636 208.77768,340.77873 210.6263,341.70154 212.47386,342.62532 214.32045,343.55012 Z" />
    <path
       style="fill:#000000;stroke:#000000;stroke-width:1px;stroke-linecap:butt;stroke-linejoin:miter;stroke-opacity:1;fill-opacity:1"
       d="M 253.73644,338.31453 C 267.90174,333.38805 295.61559,325.99769 312.92661,324.34408 330.23764,322.69046 336.87756,326.61405 341.34228,332.15626 345.80699,337.69846 347.96261,344.7812 347.50077,356.94503 347.03893,369.10885 343.95989,386.35148 341.65026,423.61317 339.34064,460.87485 337.80108,518.14635 335.95387,546.6306 334.10667,575.11485 331.95119,574.80693 328.25459,572.1885 324.55798,569.57008 319.32518,564.64509 315.47592,557.87023 311.62666,551.09536 309.16322,542.47332 306.39195,532.77389 303.62068,523.07445 300.54113,512.29602 300.54104,509.37071 300.54096,506.4454 303.62047,511.37261 307.376,515.60883 311.13153,519.84505 315.93802,523.69025 318.40143,519.84069 320.86483,515.99113 321.17277,504.59735 320.7109,476.11576 320.24903,447.63416 319.01719,402.05616 318.40134,376.65184 317.78549,351.24752 317.78549,345.39671 312.55219,344.01111 307.31889,342.62551 296.84732,345.39739 287.30095,349.4006 277.75457,353.40381 269.13346,358.63806 261.12624,358.63812 253.11902,358.63819 245.72967,353.40407 242.34248,349.55423 238.95529,345.70439 239.57114,343.241 253.73644,338.31453 Z"
       id="path4420"
       inkscape:connector-curvature="0"
       inkscape:path-effect="#path-effect4422"
       inkscape:original-d="M 240.18671,340.77873 C 267.90156,333.38737 295.61541,325.99701 323.32826,318.60765 330.10347,322.91751 336.87826,326.61287 343.65176,330.61698 345.80818,337.6981 347.9638,344.78084 350.11832,351.86427 347.03973,369.10899 343.96069,386.35162 340.88037,403.59679 339.34161,460.87488 337.80205,518.14638 336.26139,575.42267 334.10683,575.11373 331.95135,574.80581 329.79483,574.49888 324.55895,569.56905 319.32615,564.64406 314.09031,559.71815 311.62785,551.09502 309.16441,542.47298 306.69995,533.85189 303.62187,523.07411 300.54232,512.29568 297.462,501.51907 300.54213,506.44467 303.62164,511.37188 306.69995,516.29979 311.01223,519.99417 315.9389,523.68915 320.55688,527.38533 320.8658,515.99116 321.17374,504.59738 321.48067,493.20491 320.25006,447.63413 319.01822,402.05613 317.78549,356.48325 317.78649,351.24752 317.78649,345.39671 317.78549,339.85494 307.31871,342.62482 296.84714,345.39671 286.37646,348.16909 277.7544,353.40352 269.13329,358.63777 260.5102,363.87361 253.11983,358.63705 245.73048,353.40293 238.33912,348.16909 238.956,345.70457 239.57185,343.24118 240.18671,340.77873 Z" />
    <path
       style="fill:#000000;stroke:#000000;stroke-width:1px;stroke-linecap:butt;stroke-linejoin:miter;stroke-opacity:1;fill-opacity:1"
       d="M 252.35069,409.13922 C 257.12407,403.59595 269.44134,394.358 277.60111,390.35535 285.76087,386.3527 289.76434,387.58454 289.76464,392.20218 289.76494,396.81983 285.7612,404.82732 278.98626,409.75485 272.21132,414.68239 262.66687,416.5297 256.50761,416.52977 250.34835,416.52985 247.5773,414.68248 252.35069,409.13922 Z"
       id="path4424"
       inkscape:connector-curvature="0"
       inkscape:path-effect="#path-effect4426"
       inkscape:original-d="M 244.80569,412.83474 C 257.12395,403.59579 269.44122,394.35784 281.75749,385.12089 285.76124,386.35151 289.76471,387.58335 293.76682,388.81607 289.76534,396.82003 285.7616,404.82752 281.75749,412.83474 272.21117,414.68161 262.66672,416.52892 253.11984,418.37751 250.34912,416.5287 247.57807,414.68133 244.80569,412.83474 Z" />
    <path
       style="fill:#000000;stroke:#000000;stroke-width:1px;stroke-linecap:butt;stroke-linejoin:miter;stroke-opacity:1;fill-opacity:1"
       d="M 249.11761,472.11088 C 258.97169,467.64635 275.90794,464.25911 287.91664,464.41316 299.92534,464.56721 307.00826,468.26265 306.70094,472.26521 306.39362,476.26778 298.69492,480.57905 288.06831,483.48789 277.44169,486.39673 263.28269,487.96995 253.73648,488.43194 244.19028,488.89392 238.95585,488.27811 237.72422,485.19768 236.49259,482.11725 239.26352,476.5754 249.11761,472.11088 Z"
       id="path4428"
       inkscape:connector-curvature="0"
       inkscape:path-effect="#path-effect4430"
       inkscape:original-d="M 242.0343,471.03383 C 258.97154,467.64558 275.90779,464.25833 292.84303,460.87209 299.92597,464.56601 307.00889,468.26145 314.09031,471.95763 306.39343,476.26744 298.69473,480.57871 290.99544,484.89076 277.44535,486.42965 263.28259,487.96907 249.42466,489.50973 244.19041,488.89282 238.95598,488.27701 233.72015,487.66214 236.49299,482.11745 239.26392,476.5756 242.0343,471.03383 Z" />
    <path
       style="fill:#000000;stroke:#000000;stroke-width:1px;stroke-linecap:butt;stroke-linejoin:miter;stroke-opacity:1;fill-opacity:1"
       d="M 85.451551,538.16243 C 95.459789,535.39158 115.16742,536.00745 133.33477,539.39463 151.50212,542.78181 168.13125,548.94075 195.69062,555.40717 223.24999,561.87359 261.74273,568.64831 311.3192,571.72756 360.89568,574.80681 421.55948,574.19093 449.11945,576.19201 476.67941,578.19308 471.13655,582.81213 459.27944,586.50795 447.42232,590.20376 429.25789,592.9746 413.70696,598.20942 398.15604,603.44423 385.22371,611.14205 371.3658,612.22001 357.50789,613.29797 342.72851,607.75571 318.24745,602.52073 293.7664,597.28576 259.58725,592.35904 232.33494,586.81623 205.08264,581.27342 184.75965,575.11494 159.66283,569.41809 134.56601,563.72125 104.69757,558.48657 89.91648,552.78916 75.13539,547.09174 75.443314,540.93327 85.451551,538.16243 Z"
       id="path4432"
       inkscape:connector-curvature="0"
       inkscape:path-effect="#path-effect4434"
       inkscape:original-d="M 75.751193,534.77569 C 95.459821,535.39055 115.16745,536.00642 134.87408,536.62328 151.50257,542.78061 168.1317,548.93955 184.75901,555.09918 223.25019,561.87245 261.74293,568.64717 300.23339,575.42267 360.89567,574.80582 421.55947,574.18994 482.22101,573.57508 476.67933,578.19298 471.13647,582.81203 465.5927,587.43201 447.42219,590.20293 429.25776,592.97378 411.08879,595.74616 398.15586,603.44393 385.22353,611.14175 372.2894,618.84104 357.50834,613.29676 342.72896,607.7545 327.94724,602.21273 293.76656,597.28464 259.58741,592.35791 225.40599,587.43201 205.083,581.27222 184.76001,575.11374 164.43552,568.95611 134.56621,563.7201 104.69777,558.48543 74.827398,553.25159 75.136338,547.09179 75.444262,540.93332 75.751193,534.77569 Z" />
  </g>
</svg>
