<?xml version="1.0" encoding="UTF-8" standalone="no"?>
<!-- Created with Inkscape (http://www.inkscape.org/) -->

<svg
   xmlns:dc="http://purl.org/dc/elements/1.1/"
   xmlns:cc="http://creativecommons.org/ns#"
   xmlns:rdf="http://www.w3.org/1999/02/22-rdf-syntax-ns#"
   xmlns:svg="http://www.w3.org/2000/svg"
   xmlns="http://www.w3.org/2000/svg"
   xmlns:sodipodi="http://sodipodi.sourceforge.net/DTD/sodipodi-0.dtd"
   xmlns:inkscape="http://www.inkscape.org/namespaces/inkscape"
   width="513"
   height="513"
   viewBox="0 0 513 513"
   version="1.1"
   id="svg6250"
   inkscape:version="0.92.4 (5da689c313, 2019-01-14)"
   sodipodi:docname="U+9603.svg">
  <defs
     id="defs6244">
    <inkscape:path-effect
       effect="bspline"
       id="path-effect6834"
       is_visible="true"
       weight="33.333333"
       steps="2"
       helper_size="0"
       apply_no_weight="true"
       apply_with_weight="true"
       only_selected="false" />
    <inkscape:path-effect
       effect="bspline"
       id="path-effect6830"
       is_visible="true"
       weight="33.333333"
       steps="2"
       helper_size="0"
       apply_no_weight="true"
       apply_with_weight="true"
       only_selected="false" />
    <inkscape:path-effect
       effect="bspline"
       id="path-effect6826"
       is_visible="true"
       weight="33.333333"
       steps="2"
       helper_size="0"
       apply_no_weight="true"
       apply_with_weight="true"
       only_selected="false" />
    <inkscape:path-effect
       effect="bspline"
       id="path-effect6822"
       is_visible="true"
       weight="33.333333"
       steps="2"
       helper_size="0"
       apply_no_weight="true"
       apply_with_weight="true"
       only_selected="false" />
    <inkscape:path-effect
       effect="bspline"
       id="path-effect6818"
       is_visible="true"
       weight="33.333333"
       steps="2"
       helper_size="0"
       apply_no_weight="true"
       apply_with_weight="true"
       only_selected="false" />
    <inkscape:path-effect
       effect="bspline"
       id="path-effect6814"
       is_visible="true"
       weight="33.333333"
       steps="2"
       helper_size="0"
       apply_no_weight="true"
       apply_with_weight="true"
       only_selected="false" />
  </defs>
  <sodipodi:namedview
     id="base"
     pagecolor="#ffffff"
     bordercolor="#666666"
     borderopacity="1.0"
     inkscape:pageopacity="0.0"
     inkscape:pageshadow="2"
     inkscape:zoom="0.94"
     inkscape:cx="198.98379"
     inkscape:cy="190.24127"
     inkscape:document-units="px"
     inkscape:current-layer="layer1"
     showgrid="false"
     units="px"
     inkscape:window-width="1920"
     inkscape:window-height="1001"
     inkscape:window-x="-9"
     inkscape:window-y="-9"
     inkscape:window-maximized="1" />
  <metadata
     id="metadata6247">
    <rdf:RDF>
      <cc:Work
         rdf:about="">
        <dc:format>image/svg+xml</dc:format>
        <dc:type
           rdf:resource="http://purl.org/dc/dcmitype/StillImage" />
        <dc:title></dc:title>
      </cc:Work>
    </rdf:RDF>
  </metadata>
  <g
     inkscape:label="圖層 1"
     inkscape:groupmode="layer"
     id="layer1"
     transform="translate(0,-161.26874)">
    <path
       style="fill:#000000;fill-opacity:1;stroke:none;stroke-opacity:1"
       id="path6806"
       d="M 91.102696,299.84612 C 95.441853,300.40858 99.823202,300.52411 104.19257,300.62438 107.88146,300.70036 111.57127,300.68732 115.26063,300.66903 118.91818,300.78124 120.7712,302.34562 122.95589,305.11527 124.6012,307.38714 125.04117,310.07816 125.28884,312.80048 125.4854,315.12133 124.4071,316.72347 122.76726,318.20808 117.31356,322.93973 110.73336,327.43523 103.53065,328.71508 99.249523,329.1647 94.95331,328.82851 90.755886,327.93926 86.780443,327.17046 83.147289,325.54684 79.497915,323.87638 76.660194,322.52185 74.377159,321.20417 73.22384,318.1533 73.147128,317.47004 72.925414,315.96087 73.707264,315.47999 84.276836,308.97918 82.484978,308.08608 89.110014,307.6153 91.753992,307.50419 94.402585,307.55029 97.048387,307.55944 99.416568,307.56653 101.78472,307.57246 104.15286,307.58849 107.77511,307.64522 111.39819,307.61988 115.02075,307.60785 116.72889,307.73332 119.98066,306.86814 120.74144,309.066 120.85448,309.39257 120.81814,309.75289 120.85648,310.09634 118.53871,314.99362 107.32615,318.80059 106.43774,319.35425 102.59506,321.749 122.16958,310.38125 118.21332,312.5833 103.72229,320.649 109.82939,318.87702 103.8033,320.53659 101.58589,321.52554 99.16716,321.80107 96.774252,322.01424 93.888179,322.18323 90.984213,322.23136 88.104438,321.9712 83.928881,321.34901 79.780775,320.67724 75.754826,319.38519 72.421951,318.00784 69.102462,316.59832 65.804029,315.14079 63.035139,313.61242 60.009128,312.65715 56.944784,311.93129 54.432357,311.49336 51.952169,311.39475 49.620135,310.28422 49.433092,310.13302 49.210207,310.01767 49.059004,309.83064 48.925641,309.66567 48.291643,308.40152 48.586562,308.2125 59.615683,301.14367 57.240798,300.90973 63.694927,300.68085 66.039271,300.62789 68.384827,300.63888 70.7297,300.63965 73.247247,300.69533 75.769019,300.51835 78.27081,300.83204 81.329047,301.23281 84.397195,301.31698 87.392135,302.08632 89.90873,302.86399 92.481536,303.31383 95.101646,303.51549 97.46284,303.65224 99.829403,303.64559 102.19365,303.64255 105.10551,304.15544 108.06778,304.22321 110.98719,304.65599 114.13044,304.93802 116.73814,305.46079 119.33928,307.30033 121.67493,308.66494 122.5009,311.03494 123.02641,313.53941 123.09408,314.74613 123.21363,315.11044 122.88695,316.29367 122.77268,316.70759 122.18282,318.11805 121.74462,318.38921 108.51523,326.57568 113.19951,326.00829 106.27838,326.45977 104.53002,326.35739 101.29999,326.23421 100.86317,323.94617 100.80056,323.61823 100.87994,323.27865 100.88832,322.94489 104.44159,317.27638 111.81315,314.15253 118.43474,313.59166 118.43474,313.59166 106.6629,322.37003 106.6629,322.37003 V 322.37003 C 105.90544,322.49684 105.4861,322.53975 104.75285,322.76999 104.45583,322.86326 103.61245,323.26112 103.87962,323.10131 122.47348,311.97944 119.1443,314.92436 114.28973,316.78154 112.02633,317.37577 117.76057,318.14584 117.91863,317.69291 123.63481,316.00193 120.40166,316.81545 108.20057,324.03581 107.90779,324.20908 108.77345,323.66083 109.01679,323.42307 109.8691,322.59031 110.19711,321.61649 110.09901,320.43956 109.71314,318.22316 109.08631,316.35557 106.99967,315.19992 104.59372,313.69951 101.86838,313.37435 99.08701,313.07368 96.175067,312.76413 93.256614,312.47902 90.338041,312.25316 87.948038,312.24219 85.553687,312.24437 83.172354,312.01108 80.529586,311.71329 77.957679,311.1151 75.398156,310.39558 72.420969,309.80496 69.378768,309.68094 66.367435,309.32403 63.870165,309.20804 61.368566,309.27364 58.869062,309.25541 56.537797,309.2523 54.201994,309.22895 51.876006,309.41008 51.563675,309.44851 51.248551,309.46869 50.939011,309.52538 50.676847,309.57339 49.937245,309.86297 50.164378,309.72352 54.158541,307.27134 58.367863,305.16731 62.268876,302.5695 62.539751,302.38912 61.247477,301.76857 61.527828,301.93385 61.641513,302.00087 61.751375,302.07417 61.863148,302.14433 64.133128,303.05227 66.625956,302.95818 68.961555,303.65075 72.062177,304.49607 75.103321,305.53001 77.936829,307.07159 81.187456,308.49321 84.430243,309.93981 87.742547,311.21283 91.715202,312.39034 95.823612,313.04394 99.939063,313.49109 102.80455,313.60729 105.67958,313.55614 108.53525,313.27336 110.88983,312.96991 113.18544,312.45924 115.36518,311.48729 115.66676,311.34142 116.55886,310.88017 116.26991,311.04967 112.35929,313.34365 100.5457,320.0843 104.49762,317.86222 148.74685,292.98177 95.616391,322.33439 107.47499,316.34218 107.64768,316.37021 108.16463,316.4537 107.99565,316.40843 106.44244,315.99227 104.80978,316.26401 103.22517,316.17775 99.587183,316.16524 95.948794,316.14029 92.311002,316.18848 89.942683,316.19487 87.574565,316.18012 85.206366,316.15487 82.589113,316.13985 79.957644,316.08082 77.354574,316.39805 77.013093,316.467 76.663972,316.50534 76.330131,316.6049 76.03435,316.69312 75.21042,317.11865 75.474456,316.95879 79.410745,314.57568 83.395111,312.2729 87.355438,309.92995 86.984408,310.04657 86.493835,310.11717 86.252114,310.48934 86.140894,310.66058 86.14511,310.88345 86.091608,311.0805 86.739856,313.68426 89.472844,314.69942 91.648605,315.83171 95.178473,317.4969 98.772722,318.95128 102.63946,319.6502 106.77317,320.38431 111.02646,320.7002 115.17223,319.84282 116.25178,319.52745 116.50066,319.49653 117.51645,319.03844 117.90164,318.86474 119.01231,318.25326 118.64879,318.46865 98.473177,330.42258 105.05418,326.66959 109.21011,323.8506 110.41781,322.43095 112.29067,321.72045 112.28507,319.55186 112.13505,317.10795 111.87549,314.66509 110.41522,312.60652 108.28044,309.95278 106.85647,309.26628 103.42091,309.26773 99.777837,309.23577 96.13514,309.17184 92.493154,309.07645 88.026593,308.9382 83.555948,308.80612 79.109062,308.33416 79.109062,308.33416 91.102696,299.84612 91.102696,299.84612 Z"
       inkscape:connector-curvature="0" />
    <path
       style="fill:#000000;stroke:#000000;stroke-width:1px;stroke-linecap:butt;stroke-linejoin:miter;stroke-opacity:1;fill-opacity:1"
       d="M 43.069833,393.41025 C 41.91539,390.43976 43.235524,389.77969 50.655121,386.64698 58.074718,383.51426 71.61837,377.8986 82.839073,374.10343 94.059776,370.30826 102.97146,368.32789 107.89211,369.20104 112.81275,370.07419 113.86121,374.26803 110.89091,379.38398 107.92061,384.49993 100.99115,390.76944 90.42908,395.55551 79.867011,400.34158 65.677737,403.64141 56.766038,402.65112 47.854338,401.66083 44.224276,396.38074 43.069833,393.41025 Z"
       id="path6812"
       inkscape:connector-curvature="0"
       inkscape:path-effect="#path-effect6814"
       inkscape:original-d="M 40.594059,391.10042 C 41.915191,390.43936 43.235323,389.77929 44.554455,389.12023 58.074509,383.51376 71.618162,377.8981 85.148515,372.28854 94.059611,370.30752 102.9713,368.32715 111.88119,366.34795 113.20215,369.97684 113.86239,374.26774 114.85149,378.22914 107.92056,384.49988 100.9911,390.76939 94.059406,397.04102 79.866842,400.34085 65.677568,403.64068 51.485149,406.94201 47.855486,401.66004 44.225422,396.37995 40.594059,391.10042 Z" />
    <path
       style="fill:#000000;stroke:#000000;stroke-width:1px;stroke-linecap:butt;stroke-linejoin:miter;stroke-opacity:1;fill-opacity:1"
       d="M 69.472371,430.53932 C 70.958056,427.07406 79.538914,427.40409 88.17661,429.17937 96.814305,430.95464 105.94114,434.33495 110.23134,439.28462 114.52153,444.23428 114.19148,450.83535 114.35648,458.75694 114.52149,466.67853 115.18145,475.91799 118.15221,482.0243 121.12297,488.13061 126.40297,491.10061 130.69304,495.39062 134.98311,499.68062 138.28365,505.29153 137.95398,511.06685 137.62432,516.84217 133.66414,522.78244 129.3728,522.45224 125.08146,522.12204 120.4619,515.52267 114.85141,505.29174 109.24092,495.06082 102.64006,481.199 96.534608,471.13328 90.42916,461.06755 84.818426,454.79673 79.207864,448.03105 73.597302,441.26537 67.986686,434.00457 69.472371,430.53932 Z"
       id="path6816"
       inkscape:connector-curvature="0"
       inkscape:path-effect="#path-effect6818"
       inkscape:original-d="M 62.376238,426.74399 C 70.958096,427.07302 79.538954,427.40305 88.118812,427.73409 97.029706,430.37306 105.94159,434.33375 114.85149,437.63508 114.52247,444.23433 114.19242,450.8354 113.86139,457.43706 114.52256,466.67845 115.18252,475.91791 115.84158,485.15983 121.12364,488.12942 126.40364,491.09942 131.68317,494.07072 134.98429,499.67993 138.28483,505.29084 141.58416,510.9024 137.62455,516.84232 133.66437,522.78259 129.70297,528.72419 125.08261,522.12124 120.46305,515.52187 115.84158,508.92221 109.24213,495.06024 102.64126,481.19843 96.039604,467.33805 90.430216,461.06661 84.819482,454.79579 79.207921,448.52617 73.598412,441.26451 67.987799,434.00371 62.376238,426.74399 Z" />
    <path
       style="fill:#000000;stroke:#000000;stroke-width:1px;stroke-linecap:butt;stroke-linejoin:miter;stroke-opacity:1;fill-opacity:1"
       d="M 231.84869,183.01436 C 233.00314,187.4698 238.28367,195.72063 240.759,206.44652 243.23434,217.17242 242.90432,230.37333 243.39939,253.97204 243.89446,277.57075 245.21448,311.56151 244.71958,327.8987 244.22468,344.23589 241.91451,342.91579 236.13871,343.41076 230.36292,343.90573 221.12329,346.21564 204.29002,348.85618 187.45675,351.49671 163.03741,354.46663 154.95129,359.25237 146.86518,364.03812 155.11563,370.63848 170.29753,370.14323 185.47942,369.64798 207.59196,362.05711 235.14873,357.93191 262.7055,353.80671 295.71059,353.14661 329.04341,352.15652 362.37624,351.16643 396.04064,349.84626 413.20191,347.0405 430.36319,344.23474 431.02328,339.94418 426.56932,336.31487 422.11536,332.68556 412.54188,329.71448 401.83377,328.88727 391.12565,328.06006 379.20902,329.38413 358.41555,331.19944 337.62209,333.01474 307.92186,335.32476 289.60487,336.47992 271.28788,337.63508 264.35744,337.63508 262.21194,315.84923 260.06645,294.06338 262.70633,250.5053 264.35653,226.24791 266.00673,201.99052 266.66681,197.03991 264.35721,192.75051 262.04761,188.46112 256.76589,184.82994 251.65051,182.35469 246.53514,179.87943 241.58484,178.55935 237.62448,178.22914 233.66413,177.89893 230.69423,178.55891 231.84869,183.01436 Z"
       id="path6820"
       inkscape:connector-curvature="0"
       inkscape:path-effect="#path-effect6822"
       inkscape:original-d="M 227.72277,179.21923 C 233.0043,187.46906 238.28483,195.71988 243.56436,203.97171 243.23531,217.17244 242.90529,230.37335 242.57426,243.57567 243.89549,277.57071 245.21552,311.56147 246.53465,345.55587 244.22536,344.2347 241.91519,342.9146 239.60396,341.59547 230.36274,343.90503 221.12311,346.21493 211.88119,348.52617 187.45664,351.49584 163.0373,354.46576 138.61386,357.43706 146.86606,364.03702 155.11651,370.63738 163.36634,377.23904 185.47922,369.64739 207.59176,362.05652 229.70297,354.46676 262.70548,353.80573 295.71057,353.14563 328.71287,352.48656 362.3762,351.16547 396.0406,349.8453 429.70297,348.52617 430.36402,344.23487 431.0241,339.94431 431.68317,335.65488 422.11573,332.68436 412.54225,329.71328 402.9703,326.74399 391.08933,327.73315 379.20892,329.38325 367.32673,330.70438 337.62202,333.01383 307.92179,335.32385 278.21782,337.63508 271.28788,337.63408 264.35744,337.63408 257.42574,337.63508 260.06739,294.06344 262.70727,250.50536 265.34653,206.94201 266.00758,201.99063 266.66767,197.04002 267.32673,192.09052 262.04839,188.45998 256.76668,184.8288 251.48515,181.19943 246.53545,179.87825 241.58516,178.55817 236.63366,177.23904 233.66396,177.89819 230.69407,178.55817 227.72277,179.21923 Z" />
    <path
       style="fill:#000000;stroke:#000000;stroke-width:1px;stroke-linecap:butt;stroke-linejoin:miter;stroke-opacity:1;fill-opacity:1"
       d="M 201.3204,250.3413 C 200.33074,247.86628 201.65087,248.19631 208.08344,249.68075 214.51601,251.16519 226.07334,253.80686 240.75947,252.65166 255.4456,251.49645 273.26852,246.54564 286.30455,242.25523 299.34059,237.96482 307.59196,234.33421 314.85181,234.16932 322.11166,234.00442 328.38321,237.30524 327.72367,242.91496 327.06414,248.52468 319.47293,256.44594 313.86186,265.52241 308.25079,274.59889 304.62089,284.8286 306.76685,289.94471 308.91282,295.06082 316.83268,295.06082 321.45248,297.86538 326.07227,300.66994 327.39257,306.28122 322.60461,309.55384 317.81664,312.82646 305.61164,313.87261 285.97341,316.51303 266.33518,319.15346 238.61499,323.44349 222.27773,323.44352 205.94046,323.44355 200.99017,319.1533 196.20452,311.0671 191.41886,302.9809 186.79847,291.09989 184.02939,283.17075 181.2603,275.2416 180.19785,270.63765 182.34287,269.97779 184.48788,269.31793 189.76931,272.28873 194.71939,278.22876 199.66948,284.16879 204.29023,293.08024 206.93054,299.35074 209.57084,305.62124 210.23088,309.25145 215.18299,310.73688 220.1351,312.22231 229.37401,311.56239 242.24439,309.25229 255.11478,306.94218 271.61833,302.98133 280.69366,294.07052 289.76899,285.15971 291.41928,271.29734 288.59979,264.03588 285.78031,256.77442 278.54875,256.11701 267.32683,257.93225 256.10491,259.74749 240.92528,264.03738 230.52875,265.35771 220.13222,266.67804 214.5221,265.02801 210.06605,261.56212 205.61001,258.09624 202.31006,252.81632 201.3204,250.3413 Z"
       id="path6824"
       inkscape:connector-curvature="0"
       inkscape:path-effect="#path-effect6826"
       inkscape:original-d="M 199.0099,247.53607 C 200.33103,247.8651 201.65117,248.19513 202.9703,248.52617 214.51628,251.16402 226.07361,253.80569 237.62376,256.44696 255.44541,251.49578 273.26833,246.54497 291.08911,241.59547 299.34038,237.96435 307.59176,234.33375 315.84158,230.70438 322.11229,234.00323 328.38384,237.30404 334.65347,240.60537 327.06416,248.5247 319.47295,256.44596 311.88119,264.36775 308.25136,274.59909 304.62146,284.8288 300.9901,295.06082 308.91282,295.05982 316.83268,295.05982 324.75248,295.06082 326.07344,300.66967 327.39374,306.28094 328.71287,311.8925 317.82138,312.88173 305.61156,313.8717 294.05941,314.8628 266.33505,319.15263 238.61486,323.44266 210.89109,327.73409 205.94139,323.44248 200.9911,319.15223 196.0396,314.8628 191.42007,302.98043 186.79968,291.09942 182.17822,279.21924 181.18916,275.25802 180.19902,270.63738 179.20792,266.34795 184.48855,269.31674 189.76998,272.28754 195.0495,275.25884 199.67068,284.16817 204.29143,293.07962 208.91089,301.99151 209.57199,305.62103 210.23202,309.25124 210.89109,312.8826 220.13503,312.22139 229.37394,311.56147 238.61386,310.9024 255.11461,306.94146 271.61816,302.98061 288.11881,299.02122 289.76986,285.15981 291.42014,271.29744 293.06931,257.43706 285.81016,256.44604 278.54885,256.11592 271.28713,255.45686 256.10472,259.74682 240.92509,264.03672 225.74257,268.32815 220.13257,266.67685 214.52245,265.02682 208.91089,263.37765 205.61118,258.09551 202.31123,252.81559 199.0099,247.53607 Z" />
    <path
       style="fill:#000000;stroke:#000000;stroke-width:1px;stroke-linecap:butt;stroke-linejoin:miter;stroke-opacity:1;fill-opacity:1"
       d="M 205.77553,401.66104 C 203.30024,408.92133 205.61047,430.7035 207.4257,458.59194 209.24094,486.48038 210.56102,520.4724 212.70666,537.79971 214.85231,555.12701 217.82252,555.78706 220.62751,554.30172 223.43251,552.81637 226.07343,549.1851 243.70607,543.97869 261.33872,538.77228 295.3807,531.69424 310.06655,524.26856 324.75241,516.84287 320.79188,508.92181 320.29705,500.50579 319.80223,492.08977 322.77267,483.17843 327.39312,477.07333 332.01356,470.96822 338.28503,467.66745 337.62543,465.02778 336.96583,462.38811 329.37363,460.40754 320.29747,460.40743 311.22131,460.40732 300.66122,462.38734 285.69386,466.66102 270.72651,470.9347 251.15632,477.56866 242.40982,482.51931 233.66331,487.46997 235.64339,490.77009 246.37101,489.28462 257.09864,487.79915 276.56886,481.52908 286.96416,480.86871 297.35947,480.20834 298.67969,485.15915 298.01972,491.76012 297.35975,498.36109 294.71986,506.61077 289.42383,512.00901 284.12781,517.40725 275.57876,520.14294 264.68667,523.11353 253.79459,526.08411 240.2652,529.38396 232.67378,530.20912 225.08236,531.03427 223.43234,529.38425 223.26737,520.80285 223.1024,512.22145 224.42253,496.7099 224.92199,483.01388 225.42145,469.31786 225.08248,456.77602 226.73291,451.00097 228.38334,445.22593 232.01399,445.88605 237.62393,444.73095 243.23388,443.57585 250.82629,440.6049 266.17801,436.67838 281.52974,432.75186 305.28169,427.73384 316.56816,423.97135 327.85463,420.20886 326.73247,416.8424 323.10325,414.86266 319.47403,412.88293 313.20214,411.89263 310.89175,408.09617 308.58137,404.2997 310.23132,397.6999 312.8715,391.7598 315.51169,385.8197 319.1427,380.53823 316.50331,376.41381 313.86392,372.28939 304.9511,369.31845 297.1953,367.8332 289.4395,366.34795 282.83928,366.34795 275.90814,367.66806 268.97701,368.98817 261.71737,371.62804 254.45605,374.59855 247.19472,377.56907 239.9352,380.86885 239.60528,384.33487 239.27537,387.80088 245.87494,391.43065 253.49695,391.16484 261.11897,390.89903 270.29823,386.47938 275.08302,387.79889 279.86781,389.11839 280.52797,396.05002 279.04308,401.66077 277.5582,407.27152 273.9283,411.5614 273.26831,414.20243 272.60832,416.84346 274.91797,417.83331 266.83445,420.63785 258.75092,423.4424 240.26521,428.06383 231.18874,426.41304 222.11228,424.76225 222.44229,416.84196 218.97739,409.2522 215.5125,401.66243 208.25082,394.40075 205.77553,401.66104 Z"
       id="path6828"
       inkscape:connector-curvature="0"
       inkscape:path-effect="#path-effect6830"
       inkscape:original-d="M 200.9901,387.14003 C 203.30133,408.92121 205.61156,430.70338 207.92079,452.48656 209.24198,486.48034 210.56206,520.47236 211.88119,554.46676 214.85257,555.12584 217.82278,555.78589 220.79208,556.44696 223.43268,552.8165 226.07361,549.18523 228.71287,545.55587 261.37697,538.95626 295.38054,531.69348 328.71287,524.76379 324.75361,516.84227 320.79308,508.92121 316.83168,501.00141 319.80283,492.08997 322.77328,483.17863 325.74257,474.26874 332.01336,470.96785 338.28483,467.66708 344.55446,464.36775 336.96614,462.38693 329.37394,460.40635 321.78218,458.42716 311.22116,460.40653 300.66107,462.38655 290.09901,464.36775 270.62595,470.63806 251.15612,477.56807 231.68317,484.16973 233.66449,487.46926 235.64456,490.76939 237.62376,494.07072 257.09844,487.79853 276.56866,481.52847 296.0396,475.25884 297.36065,480.20803 298.68087,485.15883 300,490.11032 297.36037,498.36129 294.72047,506.61097 292.07921,514.8628 284.15827,517.50245 275.57856,520.14233 267.32673,522.78359 253.79442,526.0834 240.26503,529.38325 226.73267,532.68458 225.08337,531.03327 223.43334,529.38325 221.78218,527.73409 223.10331,512.22153 224.42344,496.70998 225.74257,481.19943 225.41356,469.31807 225.08351,456.77599 224.75248,444.56577 228.38355,445.22478 232.0142,445.8849 235.64356,446.54597 243.23367,443.57532 250.82608,440.60437 258.41584,437.63508 281.51548,432.68437 305.28153,427.73309 328.71287,422.78359 328.05384,420.14246 326.73367,416.842 325.74257,413.8727 319.47421,412.8818 313.20232,411.8915 306.93069,410.9024 308.58207,404.29988 310.23202,397.70008 311.88119,391.10042 315.5119,385.81984 319.14291,380.53837 322.77228,375.25884 313.86432,372.28819 304.9515,369.31724 296.0396,366.34795 289.4395,366.34695 282.83928,366.34695 276.23762,366.34795 268.9768,368.98761 261.71717,371.62748 254.45545,374.26874 247.19452,377.56862 239.93499,380.8684 232.67327,384.16973 239.27602,387.7997 245.87559,391.42946 252.47525,395.06082 261.05666,390.76961 270.29803,386.47896 279.20792,382.18953 279.8689,389.11829 280.52905,396.04992 281.18812,402.98161 277.55829,407.2716 273.92839,411.56147 270.29703,415.8529 272.60884,416.84225 274.91849,417.8321 277.22772,418.8232 258.75074,423.44169 240.26503,428.06312 221.78218,432.68458 222.11323,424.76229 222.44324,416.842 222.77228,408.92221 215.5135,401.66143 208.25183,394.39975 200.9901,387.14003 Z" />
    <path
       style="fill:#000000;stroke:#000000;stroke-width:1px;stroke-linecap:butt;stroke-linejoin:miter;stroke-opacity:1;fill-opacity:1"
       d="M 77.393137,532.84947 C 86.799651,529.38428 110.23199,530.04434 130.36341,534.00468 150.49483,537.96501 167.32721,545.22604 190.59425,551.9916 213.8613,558.75717 243.56512,565.02797 279.3733,567.33813 315.18149,569.64828 357.09675,567.99807 393.56497,567.83308 430.0332,567.66809 461.05707,568.98825 474.42354,571.29798 487.79002,573.60771 483.49946,576.90814 469.80014,582.0248 456.10082,587.14146 433.00449,594.07036 414.68732,599.84603 396.37014,605.6217 382.83948,610.24193 369.96733,610.24203 357.09517,610.24213 344.88504,605.62208 325.41263,601.33152 305.94023,597.04096 279.20875,593.08075 255.94112,589.61535 232.67348,586.14996 212.87212,583.17975 198.51538,580.20943 184.15864,577.23911 175.24812,574.26894 167.1618,569.48316 159.07547,564.69738 151.81523,558.09716 142.40968,554.3018 133.00413,550.50643 121.45306,549.51634 112.3993,551.36249 103.34555,553.20863 96.040738,558.42635 90.594303,558.92148 85.147869,559.41661 81.188121,555.45686 76.897603,549.68114 72.607086,543.90542 67.986622,536.31466 77.393137,532.84947 Z"
       id="path6832"
       inkscape:connector-curvature="0"
       inkscape:path-effect="#path-effect6834"
       inkscape:original-d="M 63.366337,528.72419 C 86.79968,529.38325 110.23202,530.04332 133.66337,530.70438 150.49535,537.96381 167.32773,545.22484 184.15842,552.48656 213.86154,558.75601 243.56536,565.02682 273.26733,571.29844 315.18145,569.64732 357.09671,567.99711 399.0099,566.34795 430.03324,567.66705 461.05711,568.98721 492.07921,570.30834 487.78991,573.60757 483.49935,576.908 479.20792,580.20933 456.10063,587.14082 433.0043,594.06972 409.90099,601.00141 396.36994,605.62111 382.83928,610.24134 369.30693,614.8628 357.09563,610.24093 344.88549,605.62088 332.67327,601.00141 305.9404,597.03984 279.20892,593.07962 252.47525,589.12023 232.67365,586.14884 212.87229,583.17863 193.06931,580.20933 184.15904,577.23791 175.24852,574.26774 166.33663,571.29844 159.07642,564.69634 151.81618,558.09612 144.55446,551.49646 133.00422,550.50536 121.45315,549.51526 109.90099,548.52617 103.30081,553.14599 96.040604,558.42616 89.108911,563.37765 85.148866,559.41561 81.189119,555.45586 77.227723,551.49646 72.608261,543.9047 67.987799,536.31394 63.366337,528.72419 Z" />
  </g>
</svg>
