<?xml version="1.0" encoding="UTF-8" standalone="no"?>
<!-- Created with Inkscape (http://www.inkscape.org/) -->

<svg
   xmlns:dc="http://purl.org/dc/elements/1.1/"
   xmlns:cc="http://creativecommons.org/ns#"
   xmlns:rdf="http://www.w3.org/1999/02/22-rdf-syntax-ns#"
   xmlns:svg="http://www.w3.org/2000/svg"
   xmlns="http://www.w3.org/2000/svg"
   xmlns:sodipodi="http://sodipodi.sourceforge.net/DTD/sodipodi-0.dtd"
   xmlns:inkscape="http://www.inkscape.org/namespaces/inkscape"
   width="513"
   height="513"
   viewBox="0 0 513 513"
   version="1.1"
   id="svg5636"
   inkscape:version="0.92.4 (5da689c313, 2019-01-14)"
   sodipodi:docname="U+9059.svg">
  <defs
     id="defs5630">
    <inkscape:path-effect
       effect="bspline"
       id="path-effect6242"
       is_visible="true"
       weight="33.333333"
       steps="2"
       helper_size="0"
       apply_no_weight="true"
       apply_with_weight="true"
       only_selected="false" />
    <inkscape:path-effect
       effect="bspline"
       id="path-effect6238"
       is_visible="true"
       weight="33.333333"
       steps="2"
       helper_size="0"
       apply_no_weight="true"
       apply_with_weight="true"
       only_selected="false" />
    <inkscape:path-effect
       effect="bspline"
       id="path-effect6234"
       is_visible="true"
       weight="33.333333"
       steps="2"
       helper_size="0"
       apply_no_weight="true"
       apply_with_weight="true"
       only_selected="false" />
    <inkscape:path-effect
       effect="bspline"
       id="path-effect6230"
       is_visible="true"
       weight="33.333333"
       steps="2"
       helper_size="0"
       apply_no_weight="true"
       apply_with_weight="true"
       only_selected="false" />
    <inkscape:path-effect
       effect="bspline"
       id="path-effect6226"
       is_visible="true"
       weight="33.333333"
       steps="2"
       helper_size="0"
       apply_no_weight="true"
       apply_with_weight="true"
       only_selected="false" />
    <inkscape:path-effect
       effect="bspline"
       id="path-effect6222"
       is_visible="true"
       weight="33.333333"
       steps="2"
       helper_size="0"
       apply_no_weight="true"
       apply_with_weight="true"
       only_selected="false" />
    <inkscape:path-effect
       effect="bspline"
       id="path-effect6218"
       is_visible="true"
       weight="33.333333"
       steps="2"
       helper_size="0"
       apply_no_weight="true"
       apply_with_weight="true"
       only_selected="false" />
    <inkscape:path-effect
       effect="bspline"
       id="path-effect6214"
       is_visible="true"
       weight="33.333333"
       steps="2"
       helper_size="0"
       apply_no_weight="true"
       apply_with_weight="true"
       only_selected="false" />
    <inkscape:path-effect
       effect="bspline"
       id="path-effect6210"
       is_visible="true"
       weight="33.333333"
       steps="2"
       helper_size="0"
       apply_no_weight="true"
       apply_with_weight="true"
       only_selected="false" />
    <inkscape:path-effect
       effect="bspline"
       id="path-effect6206"
       is_visible="true"
       weight="33.333333"
       steps="2"
       helper_size="0"
       apply_no_weight="true"
       apply_with_weight="true"
       only_selected="false" />
    <inkscape:path-effect
       effect="bspline"
       id="path-effect6202"
       is_visible="true"
       weight="33.333333"
       steps="2"
       helper_size="0"
       apply_no_weight="true"
       apply_with_weight="true"
       only_selected="false" />
    <inkscape:path-effect
       effect="bspline"
       id="path-effect6198"
       is_visible="true"
       weight="33.333333"
       steps="2"
       helper_size="0"
       apply_no_weight="true"
       apply_with_weight="true"
       only_selected="false" />
    <inkscape:path-effect
       effect="bspline"
       id="path-effect6194"
       is_visible="true"
       weight="33.333333"
       steps="2"
       helper_size="0"
       apply_no_weight="true"
       apply_with_weight="true"
       only_selected="false" />
  </defs>
  <sodipodi:namedview
     id="base"
     pagecolor="#ffffff"
     bordercolor="#666666"
     borderopacity="1.0"
     inkscape:pageopacity="0.0"
     inkscape:pageshadow="2"
     inkscape:zoom="0.81454783"
     inkscape:cx="94.544247"
     inkscape:cy="255.59969"
     inkscape:document-units="px"
     inkscape:current-layer="layer1"
     showgrid="false"
     units="px"
     inkscape:window-width="1920"
     inkscape:window-height="1001"
     inkscape:window-x="-9"
     inkscape:window-y="-9"
     inkscape:window-maximized="1" />
  <metadata
     id="metadata5633">
    <rdf:RDF>
      <cc:Work
         rdf:about="">
        <dc:format>image/svg+xml</dc:format>
        <dc:type
           rdf:resource="http://purl.org/dc/dcmitype/StillImage" />
        <dc:title></dc:title>
      </cc:Work>
    </rdf:RDF>
  </metadata>
  <g
     inkscape:label="圖層 1"
     inkscape:groupmode="layer"
     id="layer1"
     transform="translate(0,-161.26874)">
    <path
       style="fill:#000000;stroke:#000000;stroke-width:1px;stroke-linecap:butt;stroke-linejoin:miter;stroke-opacity:1;fill-opacity:1"
       d="M 38.699561,266.7734 C 37.109267,262.88601 37.109267,262.88601 37.109267,262.88601 46.65165,265.71338 56.19468,268.54095 65.560308,268.71749 74.925936,268.89403 84.115521,266.41991 90.122849,267.12657 96.130176,267.83323 98.957915,271.72137 96.131009,275.9623 93.304103,280.20324 84.822373,284.7975 75.632562,286.56491 66.442751,288.33231 56.548336,287.2722 50.009351,282.85378 43.470365,278.43536 40.289855,270.66078 38.699561,266.7734 Z"
       id="path6192"
       inkscape:connector-curvature="0"
       inkscape:path-effect="#path-effect6194"
       inkscape:original-d="M 37.109267,262.88601 C 37.110267,262.88501 37.110267,262.88501 37.109267,262.88601 37.109267,262.88601 56.195032,268.53976 65.736415,271.36813 74.925753,268.89335 84.115338,266.41923 93.303299,263.94628 96.131308,267.83241 98.959045,271.72055 101.78542,275.60919 93.30391,280.20288 84.822181,284.79715 76.339063,289.39263 66.442868,288.33122 56.548454,287.2711 46.65165,286.21184 43.471572,278.43487 40.291061,270.66029 37.109267,262.88601 Z" />
    <path
       style="fill:#000000;stroke:#000000;stroke-width:1px;stroke-linecap:butt;stroke-linejoin:miter;stroke-opacity:1;fill-opacity:1"
       d="M 13.960425,352.47809 C 14.137569,350.18132 15.551257,350.53474 27.738804,347.70863 39.926351,344.88251 62.910225,338.87135 78.636899,337.81124 94.363573,336.75113 102.84613,340.63897 102.67002,345.05617 102.49392,349.47338 93.657911,354.42154 81.80452,358.97071 69.951128,363.51989 54.428112,367.85189 42.941323,368.73561 31.454534,369.61933 23.679865,367.14558 19.261663,363.43398 14.84346,359.72238 13.78328,354.77487 13.960425,352.47809 Z"
       id="path6196"
       inkscape:connector-curvature="0"
       inkscape:path-effect="#path-effect6198"
       inkscape:original-d="M 12.723177,349.82772 C 14.137864,350.18014 15.55155,350.53357 16.964236,350.88799 39.926169,344.88182 62.910043,338.87065 85.881446,332.86349 94.364128,336.74992 102.84668,340.63776 111.3278,344.5264 102.49373,349.47304 93.657721,354.4212 84.821181,359.37011 69.976479,363.61073 54.427925,367.85122 39.229796,372.09328 31.454914,369.61814 23.680246,367.14438 15.903971,364.67143 14.844622,359.72213 13.784442,354.77462 12.723177,349.82772 Z" />
    <path
       style="fill:#000000;stroke:#000000;stroke-width:1px;stroke-linecap:butt;stroke-linejoin:miter;stroke-opacity:1;fill-opacity:1"
       d="M 30.748178,415.0336 C 32.869407,415.56374 36.050203,414.50347 43.469843,412.56025 50.889483,410.61702 62.556795,407.78858 72.628893,404.0777 82.700991,400.36683 91.183962,395.77188 98.251456,395.77193 105.31895,395.77198 110.97449,400.3671 109.5613,407.43486 108.14812,414.50262 99.665824,424.0452 94.730883,431.24387 89.795943,438.44253 88.355739,443.48325 91.184017,447.54868 94.012296,451.61411 101.07903,454.79414 108.14703,459.56505 115.21504,464.33596 122.28393,470.69796 124.75803,477.58903 127.23213,484.4801 125.11158,491.90201 122.49766,496.23492 119.88375,500.56783 115.92348,502.15194 113.27183,499.32325 110.62017,496.49456 108.85367,489.42854 104.78974,482.89091 100.72582,476.35328 94.36359,470.34451 89.238978,465.57332 84.114366,460.80213 80.226752,457.26793 78.282907,452.31947 76.339063,447.371 76.339063,441.00949 71.569082,437.47586 66.799101,433.94224 57.255218,433.23528 49.822606,432.21659 42.389994,431.19789 36.403131,429.70117 32.868388,425.98942 29.333646,422.27768 27.920136,416.27026 27.743347,414.32647 27.566558,412.38269 28.626948,414.50347 30.748178,415.0336 Z"
       id="path6200"
       inkscape:connector-curvature="0"
       inkscape:path-effect="#path-effect6202"
       inkscape:original-d="M 29.687413,416.6244 C 32.869208,415.56314 36.050002,414.50287 39.229796,413.44361 50.889309,410.6163 62.556621,407.78786 74.218533,404.96149 82.700798,400.36647 91.18377,395.77153 99.664888,391.17805 105.31984,395.77088 110.97538,400.36601 116.62912,404.96149 108.14818,414.50268 99.665888,424.04526 91.18277,433.58864 90.123388,438.53609 88.356397,443.48344 86.941711,448.43235 94.012841,451.6129 101.07957,454.79293 108.14701,457.97473 115.21598,464.33491 122.28487,470.69691 129.3523,477.05949 127.23279,484.48029 125.11224,491.9022 122.99071,499.32505 119.81041,500.38449 115.92328,502.15143 112.38806,503.56611 110.62135,496.49427 108.85485,489.42825 107.08674,482.36082 100.72679,476.35225 94.364564,470.34348 88.001975,464.33632 84.11532,460.80108 80.2277,457.26689 76.339063,453.73367 76.340063,447.371 76.340063,441.00949 76.339063,434.6489 66.79918,433.94117 57.255297,433.23422 47.711914,432.52837 42.411079,431.11355 36.403424,429.7 30.747678,428.28731 29.334815,422.2774 27.921305,416.26998 26.506619,410.26281 27.567756,412.38209 28.628149,414.50287 29.687413,416.6244 Z" />
    <path
       style="fill:#000000;stroke:#000000;stroke-width:1px;stroke-linecap:butt;stroke-linejoin:miter;stroke-opacity:1;fill-opacity:1"
       d="M 288.2152,175.76684 C 290.15892,179.83145 294.04656,189.02041 292.80992,198.03257 291.57329,207.04474 285.21204,215.87981 271.9576,227.01363 258.70317,238.14745 238.56072,251.57575 231.31813,257.95815 224.07554,264.34054 230.43198,263.59272 240.14987,258.99872 249.86776,254.40471 263.30024,245.92104 275.63295,239.29684 287.96566,232.67263 300.05614,227.54334 309.59813,223.30243 319.14013,219.06152 326.56275,215.52694 329.0362,210.57958 331.50965,205.63222 329.03529,199.2696 323.91122,193.4387 318.78714,187.60781 311.01121,182.30604 304.29641,179.12523 297.5816,175.94442 291.92702,174.88418 289.09925,173.82327 286.27149,172.76236 286.27149,171.70224 288.2152,175.76684 Z"
       id="path6204"
       inkscape:connector-curvature="0"
       inkscape:path-effect="#path-effect6206"
       inkscape:original-d="M 286.27149,170.64298 C 290.16012,179.83094 294.04776,189.0199 297.9344,198.20986 291.57347,207.04487 285.21222,215.87994 278.84963,224.71648 258.70302,238.14722 238.56057,251.57552 218.41454,265.00654 224.07061,264.29866 230.43188,263.59186 236.43904,262.88601 249.8676,254.40445 263.30008,245.92078 276.7291,237.43966 288.03861,232.84458 300.05593,227.54285 311.71784,222.59595 319.13993,219.0611 326.56255,215.52652 333.9834,211.9933 331.51085,205.63175 329.0365,199.26913 326.56155,192.90854 318.78792,187.60666 311.012,182.30489 303.23572,177.00457 297.58182,175.94327 291.92723,174.88304 286.27149,173.82377 286.27249,172.76236 286.27249,171.70224 286.27149,170.64298 Z" />
    <path
       style="fill:#000000;stroke:#000000;stroke-width:1px;stroke-linecap:butt;stroke-linejoin:miter;stroke-opacity:1;fill-opacity:1"
       d="M 182.54268,271.19102 C 183.07338,266.06681 185.90076,266.06681 190.14031,268.89318 194.37987,271.71955 200.03662,277.3763 207.20166,282.97978 214.36669,288.58325 223.36269,294.3407 230.07751,299.46516 236.79233,304.58963 241.38694,309.18424 241.03408,311.83483 240.68121,314.48542 235.37989,315.19226 227.95678,313.95512 220.53367,312.71799 210.99329,309.53786 203.57111,306.35696 196.14894,303.17605 190.84795,299.99546 187.31347,293.27967 183.77899,286.56389 182.01198,276.31523 182.54268,271.19102 Z"
       id="path6208"
       inkscape:connector-curvature="0"
       inkscape:path-effect="#path-effect6210"
       inkscape:original-d="M 180.24501,266.06681 C 183.07338,266.06581 185.90076,266.06581 188.72713,266.06681 194.38087,271.71855 200.03762,277.3753 205.69136,283.03104 214.5279,288.33137 223.36344,294.33953 232.19798,299.99528 236.79333,304.58863 241.38794,309.18324 245.98143,313.77872 240.6811,314.48456 235.37978,315.19141 230.07745,315.89925 220.53407,312.71679 210.99369,309.53666 201.4503,306.35687 196.14965,303.17487 190.84866,299.99428 185.54633,296.81448 183.78013,286.56369 182.01312,276.31503 180.24501,266.06681 Z" />
    <path
       style="fill:#000000;stroke:#000000;stroke-width:1px;stroke-linecap:butt;stroke-linejoin:miter;stroke-opacity:1;fill-opacity:1"
       d="M 269.13154,324.02766 C 277.0837,317.66567 297.58216,305.64933 312.69321,293.38983 327.80426,281.13034 337.8719,268.18623 342.64266,257.05394 347.41342,245.92165 347.05996,236.37843 346.52979,230.37054 345.99962,224.36265 345.2927,221.88845 347.94269,223.30179 350.59267,224.71512 356.60244,230.01786 362.43384,235.49584 368.26523,240.97381 373.2132,245.92178 371.09318,253.16643 368.97316,260.41108 359.43077,269.60004 349.35482,279.67036 339.27888,289.74068 327.97622,301.40795 314.72232,310.24403 301.46843,319.08012 285.91927,325.44114 275.84639,328.26879 265.77351,331.09645 261.17938,330.38966 269.13154,324.02766 Z"
       id="path6212"
       inkscape:connector-curvature="0"
       inkscape:path-effect="#path-effect6214"
       inkscape:original-d="M 256.58407,329.68269 C 277.08352,317.66536 297.58198,305.64902 318.07943,293.63369 327.97566,281.26365 337.87204,268.18634 347.76684,255.46416 347.41445,245.92161 347.061,236.37839 346.70658,226.83701 346.00081,224.36231 345.29389,221.88811 344.58605,219.41516 350.59361,224.71406 356.60338,230.0168 362.61055,235.31913 367.91281,241.32623 373.2142,245.92078 378.51452,251.2231 368.97314,260.41106 359.43075,269.60002 349.88737,278.78998 339.28459,289.74622 327.97623,301.40796 317.01916,312.71846 301.46822,319.07962 285.91906,325.44063 270.36751,331.80322 265.77368,331.09532 261.17955,330.38854 256.58407,329.68269 Z" />
    <path
       style="fill:#000000;stroke:#000000;stroke-width:1px;stroke-linecap:butt;stroke-linejoin:miter;stroke-opacity:1;fill-opacity:1"
       d="M 200.74405,354.24485 C 202.15833,352.30138 204.9857,351.59454 213.46485,350.18136 221.944,348.76817 236.08674,346.64676 257.46766,340.10875 278.84857,333.57074 307.47799,322.6138 325.32515,319.43322 343.17231,316.25263 350.24104,320.84731 350.06494,324.55788 349.88883,328.26845 342.46673,331.09592 330.77371,334.8873 319.08069,338.67868 301.82323,343.8192 284.85838,350.00426 267.89353,356.18933 250.57712,363.61065 239.44414,367.85188 228.31116,372.09311 223.3636,373.1533 217.78632,371.78743 212.20903,370.42156 205.69165,366.43871 202.51071,362.90383 199.32978,359.36896 199.32978,356.18831 200.74405,354.24485 Z"
       id="path6216"
       inkscape:connector-curvature="0"
       inkscape:path-effect="#path-effect6218"
       inkscape:original-d="M 199.32978,353.00852 C 202.15815,352.30067 204.98552,351.59383 207.81189,350.88799 221.94388,348.76734 236.08662,346.64593 250.22248,344.5264 278.84836,333.5702 307.47778,322.61326 336.10393,311.65819 343.17306,316.25148 350.24179,320.84615 357.30923,325.44163 349.88863,328.26791 342.46652,331.09538 335.04367,333.92375 319.13811,338.87146 301.82304,343.81856 285.21122,348.76746 267.89332,356.18884 250.57691,363.61016 233.25825,371.03302 228.311,372.09236 223.36344,373.15255 218.41454,374.21381 212.05246,370.67777 205.69236,366.43754 199.32978,362.5509 199.33078,359.36896 199.33078,356.18831 199.32978,353.00852 Z" />
    <path
       style="fill:#000000;stroke:#000000;stroke-width:1px;stroke-linecap:butt;stroke-linejoin:miter;stroke-opacity:1;fill-opacity:1"
       d="M 186.96037,401.42698 C 190.14171,399.30682 197.91699,400.01367 216.11668,396.8331 234.31637,393.65253 262.94684,386.58328 286.80241,380.39849 310.65798,374.2137 329.74353,368.91216 345.82379,364.67122 361.90406,360.43028 374.98147,357.24929 382.8783,357.69771 390.77513,358.14613 393.71149,362.55067 392.12156,367.14495 390.53162,371.73923 384.52378,376.68687 373.91975,379.86819 363.31572,383.04951 348.12134,384.46294 327.26856,387.46713 306.41577,390.47133 279.91104,395.06549 259.94246,400.54348 239.97388,406.02146 226.54444,412.38277 216.64836,416.8007 206.75227,421.21864 200.39125,423.69237 195.97255,422.80849 191.55385,421.92461 189.08037,417.68436 187.1366,413.08988 185.19283,408.49541 183.77904,403.54714 186.96037,401.42698 Z"
       id="path6220"
       inkscape:connector-curvature="0"
       inkscape:path-effect="#path-effect6222"
       inkscape:original-d="M 182.36554,398.5999 C 190.14181,399.30574 197.91709,400.01259 205.69136,400.72043 234.31619,393.65182 262.94666,386.58257 291.57281,379.51514 310.65779,374.21303 329.74334,368.91149 348.82711,363.61116 361.90389,360.42957 374.9813,357.24858 388.0569,354.06878 390.53163,358.30846 393.71265,362.5499 396.53902,366.79196 390.53153,371.73913 384.52369,376.68676 378.51452,381.63567 363.31564,383.04861 348.12126,384.46204 332.92314,385.87672 306.41563,390.47053 279.9109,395.06469 253.40328,399.66017 239.97368,406.02103 226.54424,412.38234 213.11322,418.74493 206.75206,421.2181 200.39104,423.69183 194.02845,426.16679 191.55503,421.92392 189.08155,417.68367 186.6066,413.44361 185.19402,408.49507 183.78023,403.5468 182.36554,398.5999 Z" />
    <path
       style="fill:#000000;stroke:#000000;stroke-width:1px;stroke-linecap:butt;stroke-linejoin:miter;stroke-opacity:1;fill-opacity:1"
       d="M 212.05335,437.47583 C 208.87227,442.06967 207.812,452.67231 204.98466,462.21508 202.15732,471.75785 197.56332,480.2391 195.9726,486.778 194.38188,493.3169 195.79537,497.91074 199.15393,499.32442 202.5125,500.7381 207.81309,498.97123 213.46706,495.08398 219.12102,491.19672 225.13055,485.18719 229.90113,476.35252 234.67171,467.51786 238.20651,455.85301 237.32323,448.6087 236.43994,441.3644 231.13808,438.53674 225.83674,436.41615 220.5354,434.29557 215.23444,432.88198 212.05335,437.47583 Z"
       id="path6224"
       inkscape:connector-curvature="0"
       inkscape:path-effect="#path-effect6226"
       inkscape:original-d="M 209.93242,431.46811 C 208.87316,442.06976 207.81289,452.6724 206.75163,463.27605 202.15768,471.75804 197.56367,480.23929 192.96819,488.72241 194.38307,493.31653 195.79656,497.91037 197.20925,502.50585 202.5123,500.7375 207.81289,498.97063 213.11322,497.20452 219.12102,491.19672 225.13055,485.18719 231.13772,479.18002 234.67235,467.51805 238.20715,455.8532 241.74037,444.19129 236.44058,441.3632 231.13872,438.53554 225.83639,435.70917 220.53571,434.29439 215.23475,432.8808 209.93242,431.46811 Z" />
    <path
       style="fill:#000000;stroke:#000000;stroke-width:1px;stroke-linecap:butt;stroke-linejoin:miter;stroke-opacity:1;fill-opacity:1"
       d="M 275.31564,378.27784 C 272.48793,388.70325 275.66872,412.73592 275.83311,429.92218 275.99749,447.10844 273.19521,457.2667 265.9498,463.45219 258.70439,469.63768 247.04283,471.75796 242.80129,475.11569 238.55974,478.47342 241.74022,483.06745 249.69297,486.42518 257.64572,489.7829 270.36832,491.90333 285.38838,488.54574 300.40845,485.18814 317.72721,476.35204 328.3297,470.69732 338.9322,465.04259 342.82011,462.56847 349.70967,469.63464 356.59924,476.7008 366.49801,493.31659 371.446,501.26822 376.39399,509.21985 376.39399,508.51302 376.04105,500.5718 375.6881,492.63059 374.98026,477.41197 371.97629,465.92638 368.97232,454.44078 363.67067,446.66502 357.48609,440.4804 351.30151,434.29577 344.23287,429.70116 338.57809,426.16691 332.9233,422.63267 328.68239,420.1588 329.38919,424.22327 330.09598,428.28773 335.75031,438.8896 333.80703,446.13474 331.86375,453.37989 322.32169,457.26739 314.19254,459.74157 306.06338,462.21574 299.34921,463.27588 294.871,463.48606 290.3928,463.69624 287.68583,462.92282 288.92335,455.49839 290.16087,448.07395 295.10745,433.94086 296.87436,419.27466 298.64128,404.60846 297.22747,389.41004 292.10345,380.22172 286.97942,371.03341 278.14336,367.85243 275.31564,378.27784 Z"
       id="path6228"
       inkscape:connector-curvature="0"
       inkscape:path-effect="#path-effect6230"
       inkscape:original-d="M 269.30725,364.67143 C 272.48904,388.7031 275.66984,412.73577 278.84963,436.76943 275.66973,447.01802 273.19589,457.26689 270.36751,467.51711 258.70425,469.63689 247.04269,471.75717 235.37878,473.8787 238.56088,478.47263 241.74137,483.06666 244.92116,487.66214 257.64591,489.78177 270.36851,491.9022 283.09069,494.02373 300.40825,485.18775 317.72701,476.35165 335.04367,467.51711 338.93203,465.04233 342.81994,462.56821 346.70658,460.09526 356.60042,476.7001 366.49919,493.31589 376.39399,509.9277 376.39499,509.21985 376.39499,508.51302 376.39399,507.80717 375.68915,492.63054 374.9813,477.41192 374.27346,462.21579 368.97347,454.44 363.67181,446.66424 358.36949,438.88996 351.30226,434.29461 344.23363,429.7 337.16419,425.10652 332.92399,422.63148 328.68308,420.15762 324.44102,417.68467 330.09718,428.28709 335.75151,438.88896 341.40525,449.49261 331.86354,453.37938 322.32149,457.26689 312.77811,461.15552 306.06325,462.21492 299.34908,463.27505 292.63307,464.33632 290.51319,463.27487 287.68617,462.92163 285.21122,462.21579 290.16144,448.07415 295.10803,433.94106 300.05493,419.8052 298.64236,404.60836 297.22856,389.40994 295.81387,374.21381 286.97985,371.03221 278.14379,367.85122 269.30725,364.67143 Z" />
    <path
       style="fill:#000000;stroke:#000000;stroke-width:1px;stroke-linecap:butt;stroke-linejoin:miter;stroke-opacity:1;fill-opacity:1"
       d="M 62.026363,521.05983 C 73.866199,518.40971 95.778337,516.28918 118.21983,518.4097 140.66132,520.53022 163.63487,526.89213 195.44234,531.4865 227.24982,536.08088 267.89449,538.90833 317.01948,540.14636 366.14447,541.38438 424.46034,541.02879 448.31648,543.14902 472.17263,545.26924 461.92323,549.8638 448.49223,555.69569 435.06123,561.52757 418.45237,568.59517 404.84525,573.71998 391.23812,578.84479 380.63624,582.02535 370.73959,581.84872 360.84295,581.67209 351.65502,578.13827 330.62563,574.25046 309.59625,570.36266 276.72996,566.12185 249.51618,562.05746 222.30241,557.99308 200.74425,554.10554 181.65907,549.15756 162.57388,544.20958 145.96368,538.20163 133.59396,534.84405 121.22424,531.48647 113.09582,530.77965 104.25989,531.83986 95.423956,532.90007 85.882637,535.72712 78.460449,537.84776 71.03826,539.9684 65.737598,541.38191 60.693178,539.87983 55.648758,538.37775 51.246172,534.31383 49.832802,530.60227 48.419433,526.89072 50.186527,523.70995 62.026363,521.05983 Z"
       id="path6232"
       inkscape:connector-curvature="0"
       inkscape:path-effect="#path-effect6234"
       inkscape:original-d="M 51.952973,520.53035 C 73.866112,518.40882 95.77825,516.28829 117.68939,514.16876 140.66165,520.52903 163.6352,526.89094 186.6066,533.25353 227.24989,536.07982 267.89456,538.90727 308.53705,541.73564 366.14445,541.38123 424.46033,541.0278 482.42047,540.67538 472.17242,545.26878 461.92302,549.86334 451.67279,554.45882 435.06102,561.52709 418.45216,568.59469 401.84035,575.66412 391.23793,578.84414 380.63605,582.02471 370.0324,585.2065 360.84341,581.67089 351.65548,578.13707 342.46552,574.60385 309.59639,570.36155 276.7301,566.12073 243.8609,561.88068 222.30262,557.99194 200.74446,554.1044 179.18474,550.21776 162.57432,544.20837 145.96412,538.20043 129.3523,532.19326 121.22433,531.48539 113.09591,530.77858 104.96621,530.07273 95.423765,532.89942 85.882446,535.72648 76.339063,538.55485 71.038077,539.96771 65.737415,541.38122 60.435091,542.79591 55.487085,538.5529 51.24713,534.31279 46.65165,530.07273 48.419774,526.89091 50.186865,523.71014 51.952973,520.53035 Z" />
    <path
       style="fill:#000000;stroke:#000000;stroke-width:1px;stroke-linecap:butt;stroke-linejoin:miter;stroke-opacity:1;fill-opacity:1"
       d="M 254.81703,265.53596 C 251.98988,262.17799 251.63646,263.59168 257.2964,264.47598 262.95634,265.36029 274.60954,265.71342 283.79834,264.65302 292.98715,263.59262 299.70272,261.11846 303.23627,263.41482 306.76983,265.71117 307.12331,272.78087 308.26894,278.5763 309.41456,284.37173 311.71763,289.74557 306.94649,292.39647 302.17535,295.04738 290.51358,295.40077 282.91434,293.81023 275.3151,292.21969 271.7812,288.68579 267.36335,282.85421 262.94551,277.02263 257.64418,268.89394 254.81703,265.53596 Z"
       id="path6236"
       inkscape:connector-curvature="0"
       inkscape:path-effect="#path-effect6238"
       inkscape:original-d="M 252.34301,260.76548 C 251.99059,262.17817 251.63717,263.59186 251.28275,265.00654 262.95637,265.35926 274.60957,265.71238 286.27149,266.06681 292.98694,263.59206 299.70251,261.1179 306.41652,258.64495 306.77087,265.71112 307.12436,272.78082 307.47678,279.85025 309.24513,284.44434 311.71884,289.74505 313.83837,294.69395 302.17532,295.04641 290.51355,295.3998 278.84963,295.75422 275.3161,292.21869 271.7822,288.68479 268.24699,285.15157 262.94666,277.02188 257.64534,268.89318 252.34301,260.76548 Z" />
    <path
       style="fill:none;stroke:#000000;stroke-width:1px;stroke-linecap:butt;stroke-linejoin:miter;stroke-opacity:1"
       d="M -146.15093,-27.25571 C -151.02149,-26.44395 -155.89318,-25.632 -160.76602,-24.81986"
       id="path6240"
       inkscape:connector-curvature="0"
       inkscape:path-effect="#path-effect6242"
       inkscape:original-d="M -146.15093,-27.25571 C -151.02162,-26.44476 -155.89332,-25.63281 -160.76602,-24.81986" />
  </g>
</svg>
