<?xml version="1.0" encoding="UTF-8" standalone="no"?>
<!-- Created with Inkscape (http://www.inkscape.org/) -->

<svg
   xmlns:dc="http://purl.org/dc/elements/1.1/"
   xmlns:cc="http://creativecommons.org/ns#"
   xmlns:rdf="http://www.w3.org/1999/02/22-rdf-syntax-ns#"
   xmlns:svg="http://www.w3.org/2000/svg"
   xmlns="http://www.w3.org/2000/svg"
   xmlns:sodipodi="http://sodipodi.sourceforge.net/DTD/sodipodi-0.dtd"
   xmlns:inkscape="http://www.inkscape.org/namespaces/inkscape"
   width="512"
   height="512"
   viewBox="0 0 512 512"
   version="1.1"
   id="svg874"
   inkscape:version="0.92.4 (5da689c313, 2019-01-14)"
   sodipodi:docname="U+9ED8.svg">
  <defs
     id="defs868">
    <inkscape:path-effect
       effect="bspline"
       id="path-effect1480"
       is_visible="true"
       weight="33.333333"
       steps="2"
       helper_size="0"
       apply_no_weight="true"
       apply_with_weight="true"
       only_selected="false" />
    <inkscape:path-effect
       effect="bspline"
       id="path-effect1476"
       is_visible="true"
       weight="33.333333"
       steps="2"
       helper_size="0"
       apply_no_weight="true"
       apply_with_weight="true"
       only_selected="false" />
    <inkscape:path-effect
       effect="bspline"
       id="path-effect1472"
       is_visible="true"
       weight="33.333333"
       steps="2"
       helper_size="0"
       apply_no_weight="true"
       apply_with_weight="true"
       only_selected="false" />
    <inkscape:path-effect
       effect="bspline"
       id="path-effect1468"
       is_visible="true"
       weight="33.333333"
       steps="2"
       helper_size="0"
       apply_no_weight="true"
       apply_with_weight="true"
       only_selected="false" />
    <inkscape:path-effect
       effect="bspline"
       id="path-effect1450"
       is_visible="true"
       weight="33.333333"
       steps="2"
       helper_size="0"
       apply_no_weight="true"
       apply_with_weight="true"
       only_selected="false" />
    <inkscape:path-effect
       effect="bspline"
       id="path-effect1446"
       is_visible="true"
       weight="33.333333"
       steps="2"
       helper_size="0"
       apply_no_weight="true"
       apply_with_weight="true"
       only_selected="false" />
    <inkscape:path-effect
       effect="bspline"
       id="path-effect1440"
       is_visible="true"
       weight="33.333333"
       steps="2"
       helper_size="0"
       apply_no_weight="true"
       apply_with_weight="true"
       only_selected="false" />
    <inkscape:path-effect
       effect="bspline"
       id="path-effect1436"
       is_visible="true"
       weight="33.333333"
       steps="2"
       helper_size="0"
       apply_no_weight="true"
       apply_with_weight="true"
       only_selected="false" />
    <inkscape:path-effect
       effect="bspline"
       id="path-effect1432"
       is_visible="true"
       weight="33.333333"
       steps="2"
       helper_size="0"
       apply_no_weight="true"
       apply_with_weight="true"
       only_selected="false" />
  </defs>
  <sodipodi:namedview
     id="base"
     pagecolor="#ffffff"
     bordercolor="#666666"
     borderopacity="1.0"
     inkscape:pageopacity="0.0"
     inkscape:pageshadow="2"
     inkscape:zoom="1.0729879"
     inkscape:cx="173.75257"
     inkscape:cy="303.15995"
     inkscape:document-units="px"
     inkscape:current-layer="layer1"
     showgrid="false"
     units="px"
     inkscape:window-width="1920"
     inkscape:window-height="1001"
     inkscape:window-x="-9"
     inkscape:window-y="-9"
     inkscape:window-maximized="1" />
  <metadata
     id="metadata871">
    <rdf:RDF>
      <cc:Work
         rdf:about="">
        <dc:format>image/svg+xml</dc:format>
        <dc:type
           rdf:resource="http://purl.org/dc/dcmitype/StillImage" />
        <dc:title></dc:title>
      </cc:Work>
    </rdf:RDF>
  </metadata>
  <g
     inkscape:label="圖層 1"
     inkscape:groupmode="layer"
     id="layer1"
     transform="translate(0,-161.53332)">
    <path
       style="fill:#000000;stroke:#000000;stroke-width:1px;stroke-linecap:butt;stroke-linejoin:miter;stroke-opacity:1;fill-opacity:1"
       d="M 102.3627,282.10242 C 120.84747,276.20031 157.81589,270.29779 180.49365,268.43398 203.17141,266.57018 211.55945,268.74486 216.0636,273.24859 220.56774,277.75232 221.18911,284.58738 218.0827,290.02428 214.97629,295.46118 208.14269,299.49922 202.23927,314.25749 196.33584,329.01576 191.36615,354.4854 186.3956,374.0572 181.42505,393.62899 176.45473,407.29737 171.94989,412.73446 167.44504,418.17154 163.40683,415.37586 160.98974,412.65214 158.57265,409.92843 157.5039,406.36596 142.90654,408.69526 128.30919,411.02456 100.03338,418.79264 83.159633,421.45907 66.28589,424.12551 60.578963,421.5891 69.434076,416.7733 78.28919,411.9575 101.58667,404.81294 117.58539,399.68712 133.58411,394.56129 142.28301,391.45454 148.6511,390.0568 155.01919,388.65907 159.05832,388.96977 162.63068,388.659 166.20304,388.34824 169.31033,387.41605 174.09568,369.70944 178.88103,352.00283 185.46362,316.89567 185.77458,298.56749 186.08554,280.23931 180.18283,278.3753 167.9111,280.08394 155.63937,281.79257 137.0018,287.07322 124.26449,292.8203 111.52719,298.56738 104.69312,304.78017 98.94511,306.02304 93.197102,307.26592 88.53793,303.53858 86.207926,298.72274 83.877923,293.9069 83.877923,288.00453 102.3627,282.10242 Z"
       id="path1430"
       inkscape:connector-curvature="0"
       inkscape:path-effect="#path-effect1432"
       inkscape:original-d="M 83.877923,282.10301 C 120.84734,276.19949 157.81576,270.29697 194.78318,264.39545 203.17171,266.569 211.55976,268.74368 219.94655,270.91929 220.56882,277.75222 221.19019,284.58728 221.81051,291.42278 214.97611,295.46088 208.14251,299.49891 201.30702,303.53848 196.33661,329.01591 191.36693,354.48555 186.39538,379.96059 181.42562,393.6292 176.4553,407.29758 171.48375,420.96757 167.44583,418.1704 163.40762,415.37471 159.36805,412.57978 159.05838,409.78271 157.5051,406.3656 156.57212,403.26001 128.309,411.02388 100.03319,418.79196 71.762223,426.55944 66.171127,424.38373 60.5795,421.58789 54.986639,419.10362 78.288995,411.95687 101.58648,404.81231 124.88491,397.66815 133.58391,394.56072 142.28281,391.45397 150.98026,388.34838 155.01927,388.658 159.0584,388.9687 163.09596,389.28036 166.20285,388.34759 169.31014,387.4154 172.41573,386.48443 178.93807,352.01352 185.46441,316.89582 191.98725,282.10301 186.08592,280.23812 180.18321,278.3741 174.27968,276.51115 155.63918,281.79191 137.00161,287.07256 118.36107,292.35476 111.52714,298.56733 104.69307,304.78012 97.857577,310.9943 93.19798,307.26482 88.538808,303.53748 83.877923,299.81057 83.878923,293.9069 83.878923,288.00453 83.877923,282.10301 Z" />
    <path
       style="fill:#000000;stroke:#000000;stroke-width:1px;stroke-linecap:butt;stroke-linejoin:miter;stroke-opacity:1;fill-opacity:1"
       d="M 53.278519,315.96435 C 56.85048,321.86722 65.238271,332.74028 71.606785,348.42839 77.975299,364.1165 82.324467,384.61972 85.511661,393.57006 88.698855,402.5204 91.023943,399.53099 92.110817,393.00924 93.197692,386.48749 93.197692,376.23168 93.353027,367.22293 93.508362,358.21418 93.819051,350.44695 92.576537,344.85578 91.334023,339.26461 88.537715,335.8469 81.548203,330.09996 74.558691,324.35302 63.374612,316.27563 57.161892,312.70258 50.949173,309.12952 49.706558,310.06148 53.278519,315.96435 Z"
       id="path1434"
       inkscape:connector-curvature="0"
       inkscape:path-effect="#path-effect1436"
       inkscape:original-d="M 48.4628,310.9943 C 56.851592,321.86636 65.239385,332.73942 73.626177,343.61349 77.97646,364.11625 82.325628,384.61947 86.673854,405.12397 88.849547,402.6376 91.02408,399.5311 93.197692,396.73617 93.198692,386.48749 93.198692,376.23168 93.197692,365.98094 93.509321,358.21422 93.82001,350.44699 94.129669,342.68151 91.335112,339.26372 88.538808,335.84601 85.741877,332.42977 74.559511,324.35189 63.375431,316.2745 52.190708,308.19837 50.949052,309.12936 49.706436,310.06132 48.4628,310.9943 Z" />
    <path
       style="fill:#000000;stroke:#000000;stroke-width:1px;stroke-linecap:butt;stroke-linejoin:miter;stroke-opacity:1;fill-opacity:1"
       d="M 99.721531,354.79721 143.52445,333.36174 156.57212,337.08965 146.32038,348.27337 108.10932,364.11698 Z"
       id="path1442"
       inkscape:connector-curvature="0" />
    <path
       style="fill:#000000;stroke:#000000;stroke-width:1px;stroke-linecap:butt;stroke-linejoin:miter;stroke-opacity:1;fill-opacity:1"
       d="M 112.76971,313.47897 C 115.25428,316.58556 117.73955,324.04137 118.51873,356.97341 119.29791,389.90544 118.36108,448.92586 117.27414,479.21506 116.18721,509.50425 114.94459,511.36818 117.432,510.74618 119.91941,510.12418 126.12874,507.01951 129.39004,493.19735 132.65133,479.37519 132.96205,454.82839 134.35999,422.36534 135.75794,389.90228 138.24331,349.51495 136.53498,328.08015 134.82664,306.64534 128.92396,304.16001 123.02153,304.78101 117.1191,305.40201 111.21708,309.12961 109.50872,310.37219 107.80036,311.61477 110.28514,310.37238 112.76971,313.47897 Z"
       id="path1448"
       inkscape:connector-curvature="0"
       inkscape:path-effect="#path-effect1450"
       inkscape:original-d="M 112.76921,309.13034 C 115.25548,316.58516 117.74075,324.04097 120.22502,331.49779 119.29397,389.90538 118.36207,448.92588 117.42909,507.64143 116.18744,509.50441 114.94482,511.36834 113.70118,513.23329 119.91921,510.12378 126.12854,507.01911 132.34072,503.91352 132.65232,479.3752 132.96304,454.8284 133.2727,430.28734 135.75887,389.90234 138.24424,349.51501 140.72852,309.13034 134.82715,306.64414 128.92447,304.1588 123.02095,301.67453 117.11894,305.40175 111.21691,309.12934 105.31339,312.85825 107.80016,311.61437 110.28494,310.37198 112.76921,309.13034 Z" />
    <path
       style="fill:#000000;stroke:#000000;stroke-width:1px;stroke-linecap:butt;stroke-linejoin:miter;stroke-opacity:1;fill-opacity:1"
       d="M 88.537808,454.51874 146.32038,450.79084 155.64015,472.2263 88.537808,470.36235 69.898269,467.56642 71.762223,454.51874 Z"
       id="path1452"
       inkscape:connector-curvature="0" />
    <path
       style="fill:#000000;stroke:#000000;stroke-width:1px;stroke-linecap:butt;stroke-linejoin:miter;stroke-opacity:1;fill-opacity:1"
       d="M 52.190708,529.0769 77.354085,539.32864 175.21166,473.15828 82.013969,559.83214 60.5785,549.58039 Z"
       id="path1454"
       inkscape:connector-curvature="0" />
    <path
       style="fill:#000000;stroke:#000000;stroke-width:1px;stroke-linecap:butt;stroke-linejoin:miter;stroke-opacity:1;fill-opacity:1"
       d="M 0.93197692,559.83214 C 0.93197692,559.83214 34.483146,584.99551 65.238385,580.33563 95.993623,575.67574 127.68084,559.83214 127.68084,559.83214 L 101.58548,598.97517 33.551169,612.02284 3.7279077,577.5397 Z"
       id="path1456"
       inkscape:connector-curvature="0" />
    <path
       style="fill:#000000;stroke:#000000;stroke-width:1px;stroke-linecap:butt;stroke-linejoin:miter;stroke-opacity:1;fill-opacity:1"
       d="M 216.21865,364.11698 C 216.21865,364.11698 243.24598,378.09664 253.49772,370.64082 263.74947,363.185 334.57972,352.00128 334.57972,352.00128 L 347.62739,359.4571 238.58609,393.94024 218.0826,379.02861 Z"
       id="path1458"
       inkscape:connector-curvature="0" />
    <path
       style="fill:#000000;stroke:#000000;stroke-width:1px;stroke-linecap:butt;stroke-linejoin:miter;stroke-opacity:1;fill-opacity:1"
       d="M 254.4297,277.44313 271.20528,305.40244 C 271.20528,305.40244 278.6611,358.52512 263.74947,395.8042 248.83784,433.08327 244.17795,441.47107 244.17795,441.47107 L 207.83085,475.95421 184.53143,489.93387 212.49074,482.47805 249.76982,458.24665 270.27331,421.89955 279.59308,385.55245 288.91285,324.04197 300.09657,292.35476 Z"
       id="path1460"
       inkscape:connector-curvature="0" />
    <path
       style="fill:#000000;stroke:#000000;stroke-width:1px;stroke-linecap:butt;stroke-linejoin:miter;stroke-opacity:1;fill-opacity:1"
       d="M 290.7768,434.94723 338.30762,472.2263 375.5867,509.50538 384.90647,505.77747 374.65472,479.68212 339.2396,447.9949 308.48436,432.1513 292.64075,427.49141 Z"
       id="path1462"
       inkscape:connector-curvature="0" />
    <path
       style="fill:#000000;stroke:#000000;stroke-width:1px;stroke-linecap:butt;stroke-linejoin:miter;stroke-opacity:1;fill-opacity:1"
       d="M 330.85181,282.10301 C 330.85181,282.10301 340.17158,299.81057 356.94716,310.06232 373.72275,320.31407 394.22624,324.97395 394.22624,324.97395 L 387.7024,305.40244 362.53902,289.55883 Z"
       id="path1464"
       inkscape:connector-curvature="0" />
    <path
       style="fill:#000000;stroke:#000000;stroke-width:1px;stroke-linecap:butt;stroke-linejoin:miter;stroke-opacity:1;fill-opacity:1"
       d="M 168.84378,539.01768 C 173.03711,545.23121 184.84215,555.79362 191.98731,562.16213 199.13246,568.53064 201.61775,570.70526 206.43339,569.30694 211.24904,567.90862 218.3944,562.93793 223.98589,558.58892 229.57738,554.23991 233.61659,550.51141 231.13236,547.87156 228.64812,545.2317 219.6367,543.67801 210.94569,541.93528 202.25468,540.19255 194.47325,538.39683 187.94902,536.22213 181.42479,534.04742 176.4547,531.56237 172.26106,531.25136 168.06742,530.94035 164.65045,532.80415 168.84378,539.01768 Z"
       id="path1466"
       inkscape:connector-curvature="0"
       inkscape:path-effect="#path-effect1468"
       inkscape:original-d="M 161.23201,534.66876 C 173.03805,545.23016 184.84309,555.79257 196.64713,566.35597 199.13339,568.52958 201.61867,570.7042 204.10295,572.87981 211.2489,567.90841 218.39426,562.93773 225.53842,557.96818 229.57734,554.23987 233.61655,550.51137 237.65412,546.78446 228.64832,545.23056 219.6369,543.67687 210.62678,542.12457 202.23924,540.25945 194.47352,538.39567 186.39538,536.53271 181.42539,534.04622 176.4553,531.56117 171.48375,529.0769 168.06723,530.94 164.65026,532.8038 161.23201,534.66876 Z" />
    <path
       style="fill:#000000;stroke:#000000;stroke-width:1px;stroke-linecap:butt;stroke-linejoin:miter;stroke-opacity:1;fill-opacity:1"
       d="M 274.4678,520.68908 C 275.5546,525.34907 285.49569,533.73686 293.72821,539.95007 301.96074,546.16327 308.48464,550.20188 315.13203,550.74907 321.77941,551.29626 329.29972,548.02657 329.29969,542.43562 329.29967,536.84467 322.1533,528.76617 314.23192,523.64043 306.31053,518.51468 297.61201,516.34006 289.37943,515.71862 281.14684,515.09719 273.381,516.02909 274.4678,520.68908 Z"
       id="path1470"
       inkscape:connector-curvature="0"
       inkscape:path-effect="#path-effect1472"
       inkscape:original-d="M 265.61342,516.9612 C 275.55551,525.34799 285.4966,533.73578 295.43668,542.12457 301.96146,546.1621 308.48536,550.20071 315.0082,554.24027 321.84341,551.44346 329.29951,548.02609 336.44367,544.9205 329.30072,536.84374 322.15436,528.76524 315.0082,520.6891 306.31082,518.51351 297.6123,516.33888 288.91285,514.16527 281.14674,515.09632 273.3809,516.02822 265.61342,516.9612 Z" />
    <path
       style="fill:#000000;stroke:#000000;stroke-width:1px;stroke-linecap:butt;stroke-linejoin:miter;stroke-opacity:1;fill-opacity:1"
       d="M 460.86369,575.83077 C 454.49508,576.60772 444.86465,576.60772 434.30121,571.9474 423.73776,567.28708 412.24457,557.96827 403.70131,549.58032 395.15804,541.19236 389.56623,533.73662 389.46268,529.26093 389.35913,524.78524 395.15941,523.17405 403.25916,524.67089 411.35892,526.16773 422.49669,530.94106 431.50545,536.22207 440.51421,541.50308 447.65968,547.40586 454.33876,553.46363 461.01783,559.52139 467.2311,565.73466 468.785,569.6176 470.33889,573.50053 467.2323,575.05383 460.86369,575.83077 Z"
       id="path1478"
       inkscape:connector-curvature="0"
       inkscape:path-effect="#path-effect1480"
       inkscape:original-d="M 464.12451,576.60772 C 454.49508,576.60672 444.86465,576.60672 435.23322,576.60772 423.73865,567.28598 412.24546,557.96718 400.75008,548.64841 395.15916,541.19152 389.56735,533.73578 383.97449,526.28097 389.25658,524.41605 395.15922,523.17338 400.75008,521.62108 411.31124,526.27898 422.49721,530.93985 433.36927,535.60074 440.51511,541.50199 447.66058,547.40478 454.80474,553.3083 461.01883,559.52039 467.2321,565.73366 473.44428,571.94784 470.33869,573.50013 467.2321,575.05343 464.12451,576.60772 Z" />
  </g>
</svg>
