<?xml version="1.0" standalone="no"?>
<!DOCTYPE svg PUBLIC "-//W3C//DTD SVG 1.1//EN" "http://www.w3.org/Graphics/SVG/1.1/DTD/svg11.dtd" >
<svg xmlns="http://www.w3.org/2000/svg" xmlns:xlink="http://www.w3.org/1999/xlink" version="1.1" viewBox="0 0 256 256">
  <g transform="matrix(1 0 0 -1 0 204)">
   <path fill="currentColor"
d="M70 192q-2 2 1 1q20 -10 29 -17q1 -8 -8 -8q-7 3 -11 1q-5 -2 -1 2q0 1 1 2t2 3q-8 7 -13 16zM92 141q3 4 6 1q0 -1 1 -2q5 -3 9 -2q2 -1 2 -3q-1 -2 -3 -2q-20 -5 -23 -25q-3 -12 -4 -41q0 -31 2 -63q7 -5 12 -12q0 -6 -3 -5q-9 5 -10 8q-3 5 -8 5q-4 1 -1 5q2 4 5 7v21
v21q-3 13 -2 48q-12 -13 -22 -26q-17 -22 -29 -27q-6 -3 -1 2q31 30 52 69q-16 -5 -36 -14q-7 -3 -23 -1q-5 1 1 2q17 2 37 10q1 0 6 2q17 7 25 10q4 6 7 12zM88 96q15 -6 23 -14q1 -6 -6 -5q-11 8 -19 17q-5 4 2 2zM187 200q-34 -11 -52 -30q-1 -1 -2 -4v-4q0 -2 -2 -2h-1
q-4 0 -4 5q-2 8 1 20q0 2 2 1q0 -1 1 -4q1 -4 2 -4q-1 -3 4 0q24 17 52 26q2 1 4 1q7 -3 10 -5q1 -1 -1 -3t-4 -3q-3 -2 -4 -3q-26 -20 -49 -36q-2 -1 -1 1q28 21 46 41v2q-1 1 -2 1zM188 157q5 -2 10 -2q1 -1 3 -1q2 -1 4 -1q2 -2 1 -3q-1 -3 -5 -2q-14 1 -52 -13
q4 -5 12 -9l2 -2q0 -1 -1 -1q-2 -2 -1 -2q-5 -5 -4 -9q8 2 10 4q1 1 4 2q6 1 15 1q2 -1 2 -2q0 -3 -1 -2q-17 -3 -30 -9v-23q17 3 40 5q4 4 8 5l1 1q1 0 3 -1q1 -1 3 -1q1 -1 9 -3q13 -3 20 -8q4 -3 -1 -7q-1 -2 -6 1q-17 12 -40 9q-18 -2 -36 -5v-6q2 -49 4 -74
q-1 -14 6 -20q1 -2 4 -6q2 -2 3 -4q1 0 -1 -3q-2 -2 -3 -1q-5 4 -11 11q-4 5 -6 6q-2 2 -3 4l-1 1q-2 1 0 5q-2 4 7 4q-1 15 -3 42q-1 26 -1 40q-20 -4 -36 -9q-10 -5 -22 -1q-3 0 0 1h3q6 1 11 3q19 5 43 10q0 3 -1 10v12q-16 -7 -27 -3q-1 0 1 1q6 0 21 5l4 2q-1 9 1 13
q0 5 -5 12q-30 -8 -41 -9q-3 0 0 2q9 2 28 8l18 6q24 6 28 11q3 6 5 6q1 0 4 -1z" />
  </g>

</svg>
