<?xml version="1.0" standalone="no"?>
<!DOCTYPE svg PUBLIC "-//W3C//DTD SVG 1.1//EN" "http://www.w3.org/Graphics/SVG/1.1/DTD/svg11.dtd" >
<svg xmlns="http://www.w3.org/2000/svg" xmlns:xlink="http://www.w3.org/1999/xlink" version="1.1" viewBox="0 0 256 256">
  <g transform="matrix(1 0 0 -1 0 204)">
   <path fill="currentColor"
d="M211 53q4 -5 0 -7q-5 -3 -6 -15q-5 -35 -15 -46q-5 -4 -10 -9q-2 -3 -3 -5q-1 -4 -8 1q-23 11 -39 28q-3 2 1 0q21 -15 41 -19q5 -2 10 2q19 19 17 68q-3 17 -12 19q-15 5 -41 -3l-1 -1q-2 -3 -1 -6q-1 -6 -1 -12q-1 -6 -1 -11q4 1 8 0t4 -5q-2 -3 -9 -1q-8 1 -17 -1
q-2 -1 -3 -1q-2 -2 -6 -1q0 -2 2 -5q3 -5 0 -7t-3 0q-2 2 -3 4q-3 4 -4 6q-3 1 -2 6l1 1q3 3 3 8v14q-1 12 -9 10q-9 -3 -23 -10q-3 -1 -4 -1q-4 -1 -2 2q9 6 28 12q6 2 8 1q4 -3 10 -6q1 -1 0 -4q-5 -6 -3 -27q1 1 3 2q1 0 2 1q4 0 8 1q2 1 5 1q1 4 2 11q0 7 1 15
q0 6 -3 11q-2 1 1 2q2 -2 4 -3q3 -2 4 -2q18 7 41 4q11 -2 25 -22zM166 178q8 -1 17 -2q4 -4 2 -7q-24 -1 -49 -18q3 -4 8 -5v-1q3 -1 2 -8q10 7 16 7q4 -3 1 -5q-16 -8 -17 -9v-9q9 5 16 4q1 -3 -4 -6q-9 -3 -12 -5q0 -1 -1 -6v-11q15 5 20 8q5 4 18 1q2 -1 2 -2
q-1 -2 -3 -2q-19 -4 -32 -11q-5 -3 -1 1q3 2 -2 1q-24 -7 -31 -11q-6 -2 -6 2q-2 4 3 7q3 0 6 2q3 1 1 -2q-2 -2 -2 -3h2q6 2 19 6v14q-5 -3 -4 -2q-1 0 3 6q-5 -2 -15 -4h-3q-3 -1 -3 0t1 3q0 2 3 1q0 -1 6 0q5 2 13 5v11q-15 -4 -25 -2q-5 0 -1 2q15 1 26 6q0 7 -2 9
q-4 3 -7 12q-12 -2 -26 -1q-3 1 0 2q22 3 47 11q2 1 5 5q2 6 9 6zM105 203q11 -11 10 -15q0 -5 -9 -16q-7 -8 -7 -18q-6 -25 0 -61q0 -9 9 -15q2 -3 2 -5q-1 -2 -4 -2q-6 -1 -8 4q-5 5 -8 9q-5 4 -1 7q5 1 5 11q-4 32 -2 55q-10 -6 -32 -23q-6 -4 -2 1q30 31 45 51q6 9 0 16
q-2 3 2 1zM73 46q-6 -32 6 -44q6 -3 8 -11q0 -3 -2 -4q-1 -1 -4 1q-12 9 -13 12q-3 4 1 6q-4 23 1 40q0 2 1 2t2 -2zM132 204q21 -7 24 -16q0 -7 -4 -9q-3 0 -6 1q-2 0 -3 1q-3 0 -1 3q1 4 -12 18q-2 2 2 2z" />
  </g>

</svg>
